<svg width="145" height="19" viewBox="0 0 145 19" fill="none" xmlns="http://www.w3.org/2000/svg">
<path d="M9.66797 14L8.38477 10.4316H3.47168L2.21484 14H0L4.80762 1.09766H7.09277L11.9004 14H9.66797ZM7.83105 8.62109L6.62695 5.12305C6.53906 4.88867 6.41602 4.51953 6.25781 4.01562C6.10547 3.51172 6 3.14258 5.94141 2.9082C5.7832 3.62891 5.55176 4.41699 5.24707 5.27246L4.08691 8.62109H7.83105ZM18.3428 4.10352C19.5557 4.10352 20.499 4.54297 21.1729 5.42188C21.8525 6.30078 22.1924 7.53418 22.1924 9.12207C22.1924 10.7158 21.8496 11.958 21.1641 12.8486C20.4785 13.7334 19.5264 14.1758 18.3076 14.1758C17.0771 14.1758 16.1221 13.7334 15.4424 12.8486H15.3018L14.9238 14H13.377V0.324219H15.4424V3.57617C15.4424 3.81641 15.4307 4.17383 15.4072 4.64844C15.3838 5.12305 15.3662 5.4248 15.3545 5.55371H15.4424C16.0986 4.58691 17.0654 4.10352 18.3428 4.10352ZM17.8066 5.79102C16.9746 5.79102 16.374 6.03711 16.0049 6.5293C15.6416 7.01562 15.4541 7.83301 15.4424 8.98145V9.12207C15.4424 10.3057 15.6299 11.1641 16.0049 11.6973C16.3799 12.2246 16.9922 12.4883 17.8418 12.4883C18.5742 12.4883 19.1279 12.1982 19.5029 11.6182C19.8838 11.0381 20.0742 10.2002 20.0742 9.10449C20.0742 6.89551 19.3184 5.79102 17.8066 5.79102ZM33.2139 9.12207C33.2139 10.71 32.8066 11.9492 31.9922 12.8398C31.1777 13.7305 30.0439 14.1758 28.5908 14.1758C27.6826 14.1758 26.8799 13.9707 26.1826 13.5605C25.4854 13.1504 24.9492 12.5615 24.5742 11.7939C24.1992 11.0264 24.0117 10.1357 24.0117 9.12207C24.0117 7.5459 24.416 6.31543 25.2246 5.43066C26.0332 4.5459 27.1729 4.10352 28.6436 4.10352C30.0498 4.10352 31.1631 4.55762 31.9834 5.46582C32.8037 6.36816 33.2139 7.58691 33.2139 9.12207ZM26.1387 9.12207C26.1387 11.3662 26.9678 12.4883 28.626 12.4883C30.2666 12.4883 31.0869 11.3662 31.0869 9.12207C31.0869 6.90137 30.2607 5.79102 28.6084 5.79102C27.7412 5.79102 27.1113 6.07812 26.7188 6.65234C26.332 7.22656 26.1387 8.0498 26.1387 9.12207ZM42.4512 14L42.1611 12.7256H42.0557C41.7686 13.1768 41.3584 13.5312 40.8252 13.7891C40.2979 14.0469 39.6943 14.1758 39.0146 14.1758C37.8369 14.1758 36.958 13.8828 36.3779 13.2969C35.7979 12.7109 35.5078 11.8232 35.5078 10.6338V4.2793H37.5908V10.2734C37.5908 11.0176 37.7432 11.5771 38.0479 11.9521C38.3525 12.3213 38.8301 12.5059 39.4805 12.5059C40.3477 12.5059 40.9834 12.248 41.3877 11.7324C41.7979 11.2109 42.0029 10.3408 42.0029 9.12207V4.2793H44.0771V14H42.4512ZM50.6426 12.5059C51.1465 12.5059 51.6504 12.4268 52.1543 12.2686V13.8242C51.9258 13.9238 51.6299 14.0059 51.2666 14.0703C50.9092 14.1406 50.5371 14.1758 50.1504 14.1758C48.1934 14.1758 47.2148 13.1445 47.2148 11.082V5.84375H45.8877V4.92969L47.3115 4.17383L48.0146 2.11719H49.2891V4.2793H52.0576V5.84375H49.2891V11.0469C49.2891 11.5449 49.4121 11.9141 49.6582 12.1543C49.9102 12.3887 50.2383 12.5059 50.6426 12.5059ZM69.1436 2.76758C67.9365 2.76758 66.9873 3.19531 66.2959 4.05078C65.6045 4.90625 65.2588 6.08691 65.2588 7.59277C65.2588 9.16895 65.5898 10.3613 66.252 11.1699C66.9199 11.9785 67.8838 12.3828 69.1436 12.3828C69.6885 12.3828 70.2158 12.3301 70.7256 12.2246C71.2354 12.1133 71.7656 11.9727 72.3164 11.8027V13.6045C71.3086 13.9854 70.166 14.1758 68.8887 14.1758C67.0078 14.1758 65.5635 13.6074 64.5557 12.4707C63.5479 11.3281 63.0439 9.69629 63.0439 7.5752C63.0439 6.23926 63.2871 5.07031 63.7734 4.06836C64.2656 3.06641 64.9746 2.29883 65.9004 1.76562C66.8262 1.23242 67.9131 0.96582 69.1611 0.96582C70.4736 0.96582 71.6865 1.24121 72.7998 1.79199L72.0439 3.54102C71.6104 3.33594 71.1504 3.15723 70.6641 3.00488C70.1836 2.84668 69.6768 2.76758 69.1436 2.76758ZM83.4873 9.12207C83.4873 10.71 83.0801 11.9492 82.2656 12.8398C81.4512 13.7305 80.3174 14.1758 78.8643 14.1758C77.9561 14.1758 77.1533 13.9707 76.4561 13.5605C75.7588 13.1504 75.2227 12.5615 74.8477 11.7939C74.4727 11.0264 74.2852 10.1357 74.2852 9.12207C74.2852 7.5459 74.6895 6.31543 75.498 5.43066C76.3066 4.5459 77.4463 4.10352 78.917 4.10352C80.3232 4.10352 81.4365 4.55762 82.2568 5.46582C83.0771 6.36816 83.4873 7.58691 83.4873 9.12207ZM76.4121 9.12207C76.4121 11.3662 77.2412 12.4883 78.8994 12.4883C80.54 12.4883 81.3604 11.3662 81.3604 9.12207C81.3604 6.90137 80.5342 5.79102 78.8818 5.79102C78.0146 5.79102 77.3848 6.07812 76.9922 6.65234C76.6055 7.22656 76.4121 8.0498 76.4121 9.12207ZM94.0605 14H91.9863V8.00586C91.9863 7.26172 91.8457 6.70801 91.5645 6.34473C91.2832 5.97559 90.8438 5.79102 90.2461 5.79102C89.4492 5.79102 88.8633 6.05176 88.4883 6.57324C88.1191 7.08887 87.9346 7.9502 87.9346 9.15723V14H85.8691V4.2793H87.4863L87.7764 5.55371H87.8818C88.1514 5.09082 88.541 4.7334 89.0508 4.48145C89.5664 4.22949 90.1318 4.10352 90.7471 4.10352C92.2412 4.10352 93.2314 4.61328 93.7178 5.63281H93.8584C94.1455 5.15234 94.5498 4.77734 95.0713 4.50781C95.5928 4.23828 96.1904 4.10352 96.8643 4.10352C98.0244 4.10352 98.8682 4.39648 99.3955 4.98242C99.9287 5.56836 100.195 6.46191 100.195 7.66309V14H98.1299V8.00586C98.1299 7.26172 97.9863 6.70801 97.6992 6.34473C97.418 5.97559 96.9785 5.79102 96.3809 5.79102C95.5781 5.79102 94.9893 6.04297 94.6143 6.54688C94.2451 7.04492 94.0605 7.8125 94.0605 8.84961V14ZM108.009 14.1758C106.778 14.1758 105.823 13.7334 105.144 12.8486H105.021C105.103 13.6689 105.144 14.167 105.144 14.3428V18.3242H103.078V4.2793H104.748C104.795 4.46094 104.892 4.89453 105.038 5.58008H105.144C105.788 4.5957 106.755 4.10352 108.044 4.10352C109.257 4.10352 110.2 4.54297 110.874 5.42188C111.554 6.30078 111.894 7.53418 111.894 9.12207C111.894 10.71 111.548 11.9492 110.856 12.8398C110.171 13.7305 109.222 14.1758 108.009 14.1758ZM107.508 5.79102C106.688 5.79102 106.087 6.03125 105.706 6.51172C105.331 6.99219 105.144 7.75977 105.144 8.81445V9.12207C105.144 10.3057 105.331 11.1641 105.706 11.6973C106.081 12.2246 106.693 12.4883 107.543 12.4883C108.258 12.4883 108.809 12.1953 109.195 11.6094C109.582 11.0234 109.775 10.1885 109.775 9.10449C109.775 8.01465 109.582 7.19141 109.195 6.63477C108.814 6.07227 108.252 5.79102 107.508 5.79102ZM120.375 14L119.962 12.6465H119.892C119.423 13.2383 118.951 13.6426 118.477 13.8594C118.002 14.0703 117.393 14.1758 116.648 14.1758C115.693 14.1758 114.946 13.918 114.407 13.4023C113.874 12.8867 113.607 12.1572 113.607 11.2139C113.607 10.2119 113.979 9.45605 114.724 8.94629C115.468 8.43652 116.602 8.1582 118.125 8.11133L119.804 8.05859V7.54004C119.804 6.91895 119.657 6.45605 119.364 6.15137C119.077 5.84082 118.629 5.68555 118.02 5.68555C117.521 5.68555 117.044 5.75879 116.587 5.90527C116.13 6.05176 115.69 6.22461 115.269 6.42383L114.601 4.94727C115.128 4.67188 115.705 4.46387 116.332 4.32324C116.959 4.17676 117.551 4.10352 118.107 4.10352C119.344 4.10352 120.275 4.37305 120.902 4.91211C121.535 5.45117 121.852 6.29785 121.852 7.45215V14H120.375ZM117.299 12.5938C118.049 12.5938 118.649 12.3857 119.101 11.9697C119.558 11.5479 119.786 10.959 119.786 10.2031V9.35938L118.538 9.41211C117.565 9.44727 116.856 9.61133 116.411 9.9043C115.972 10.1914 115.752 10.6338 115.752 11.2314C115.752 11.665 115.881 12.002 116.139 12.2422C116.396 12.4766 116.783 12.5938 117.299 12.5938ZM133.286 14H131.212V8.02344C131.212 7.27344 131.06 6.71387 130.755 6.34473C130.456 5.97559 129.979 5.79102 129.322 5.79102C128.449 5.79102 127.811 6.04883 127.406 6.56445C127.002 7.08008 126.8 7.94434 126.8 9.15723V14H124.734V4.2793H126.352L126.642 5.55371H126.747C127.04 5.09082 127.456 4.7334 127.995 4.48145C128.534 4.22949 129.132 4.10352 129.788 4.10352C132.12 4.10352 133.286 5.29004 133.286 7.66309V14ZM134.684 4.2793H136.934L138.911 9.79004C139.21 10.5752 139.409 11.3135 139.509 12.0049H139.579C139.632 11.6826 139.729 11.293 139.869 10.8359C140.01 10.373 140.754 8.1875 142.102 4.2793H144.334L140.177 15.292C139.421 17.3135 138.161 18.3242 136.397 18.3242C135.94 18.3242 135.495 18.2744 135.062 18.1748V16.54C135.372 16.6104 135.727 16.6455 136.125 16.6455C137.121 16.6455 137.821 16.0684 138.226 14.9141L138.586 14L134.684 4.2793Z" fill="white"/>
</svg>
