<svg width="196" height="19" viewBox="0 0 196 19" fill="none" xmlns="http://www.w3.org/2000/svg">
<path d="M0.696289 1.15039H4.51074C6.28027 1.15039 7.55762 1.4082 8.34277 1.92383C9.13379 2.43945 9.5293 3.25391 9.5293 4.36719C9.5293 5.11719 9.33594 5.74121 8.94922 6.23926C8.5625 6.7373 8.00586 7.05078 7.2793 7.17969V7.26758C8.18164 7.4375 8.84375 7.77441 9.26562 8.27832C9.69336 8.77637 9.90723 9.45312 9.90723 10.3086C9.90723 11.4629 9.50293 12.3682 8.69434 13.0244C7.8916 13.6748 6.77246 14 5.33691 14H0.696289V1.15039ZM2.79688 6.45898H4.81836C5.69727 6.45898 6.33887 6.32129 6.74316 6.0459C7.14746 5.76465 7.34961 5.29004 7.34961 4.62207C7.34961 4.01855 7.12988 3.58203 6.69043 3.3125C6.25684 3.04297 5.56543 2.9082 4.61621 2.9082H2.79688V6.45898ZM2.79688 8.16406V12.2334H5.0293C5.9082 12.2334 6.57031 12.0664 7.01562 11.7324C7.4668 11.3926 7.69238 10.8594 7.69238 10.1328C7.69238 9.46484 7.46387 8.96973 7.00684 8.64746C6.5498 8.3252 5.85547 8.16406 4.92383 8.16406H2.79688ZM14.4248 14H12.3594V4.2793H14.4248V14ZM12.2363 1.7041C12.2363 1.33496 12.3359 1.05078 12.5352 0.851562C12.7402 0.652344 13.0303 0.552734 13.4053 0.552734C13.7686 0.552734 14.0498 0.652344 14.249 0.851562C14.4541 1.05078 14.5566 1.33496 14.5566 1.7041C14.5566 2.05566 14.4541 2.33398 14.249 2.53906C14.0498 2.73828 13.7686 2.83789 13.4053 2.83789C13.0303 2.83789 12.7402 2.73828 12.5352 2.53906C12.3359 2.33398 12.2363 2.05566 12.2363 1.7041ZM25.5957 4.2793V5.41309L23.9346 5.7207C24.0869 5.92578 24.2129 6.17773 24.3125 6.47656C24.4121 6.77539 24.4619 7.0918 24.4619 7.42578C24.4619 8.42773 24.1162 9.21582 23.4248 9.79004C22.7334 10.3643 21.7812 10.6514 20.5684 10.6514C20.2578 10.6514 19.9766 10.6279 19.7246 10.5811C19.2793 10.8564 19.0566 11.1787 19.0566 11.5479C19.0566 11.7705 19.1592 11.9375 19.3643 12.0488C19.5752 12.1602 19.959 12.2158 20.5156 12.2158H22.2119C23.2842 12.2158 24.0986 12.4443 24.6553 12.9014C25.2119 13.3584 25.4902 14.0176 25.4902 14.8789C25.4902 15.9805 25.0361 16.8301 24.1279 17.4277C23.2197 18.0254 21.9072 18.3242 20.1904 18.3242C18.8662 18.3242 17.8555 18.0898 17.1582 17.6211C16.4609 17.1523 16.1123 16.4844 16.1123 15.6172C16.1123 15.0195 16.2998 14.5156 16.6748 14.1055C17.0557 13.7012 17.5859 13.4199 18.2656 13.2617C17.9902 13.1445 17.7617 12.957 17.5801 12.6992C17.4043 12.4355 17.3164 12.1602 17.3164 11.873C17.3164 11.5098 17.4189 11.2021 17.624 10.9502C17.8291 10.6982 18.1338 10.4492 18.5381 10.2031C18.0342 9.98633 17.624 9.63477 17.3076 9.14844C16.9971 8.65625 16.8418 8.08203 16.8418 7.42578C16.8418 6.37109 17.1729 5.55371 17.835 4.97363C18.5029 4.39355 19.4521 4.10352 20.6826 4.10352C20.958 4.10352 21.2451 4.12402 21.5439 4.16504C21.8486 4.2002 22.0771 4.23828 22.2295 4.2793H25.5957ZM17.958 15.5117C17.958 15.957 18.1572 16.2998 18.5557 16.54C18.96 16.7803 19.5254 16.9004 20.252 16.9004C21.377 16.9004 22.2148 16.7393 22.7656 16.417C23.3164 16.0947 23.5918 15.667 23.5918 15.1338C23.5918 14.7119 23.4395 14.4102 23.1348 14.2285C22.8359 14.0527 22.2764 13.9648 21.4561 13.9648H19.8916C19.2998 13.9648 18.8281 14.1025 18.4766 14.3779C18.1309 14.6592 17.958 15.0371 17.958 15.5117ZM18.8457 7.42578C18.8457 8.03516 19.001 8.50391 19.3115 8.83203C19.6279 9.16016 20.0791 9.32422 20.665 9.32422C21.8604 9.32422 22.458 8.68555 22.458 7.4082C22.458 6.77539 22.3086 6.28906 22.0098 5.94922C21.7168 5.60352 21.2686 5.43066 20.665 5.43066C20.0674 5.43066 19.6133 5.60059 19.3027 5.94043C18.998 6.28027 18.8457 6.77539 18.8457 7.42578ZM36.7402 14H34.6396V2.95215H30.8604V1.15039H40.5195V2.95215H36.7402V14ZM46.5225 14.1758C45.0107 14.1758 43.8271 13.7363 42.9717 12.8574C42.1221 11.9727 41.6973 10.7568 41.6973 9.20996C41.6973 7.62207 42.0928 6.37402 42.8838 5.46582C43.6748 4.55762 44.7617 4.10352 46.1445 4.10352C47.4277 4.10352 48.4414 4.49316 49.1855 5.27246C49.9297 6.05176 50.3018 7.12402 50.3018 8.48926V9.60547H43.8242C43.8535 10.5488 44.1084 11.2754 44.5889 11.7852C45.0693 12.2891 45.7461 12.541 46.6191 12.541C47.1934 12.541 47.7266 12.4883 48.2188 12.3828C48.7168 12.2715 49.25 12.0898 49.8184 11.8379V13.5166C49.3145 13.7568 48.8047 13.9268 48.2891 14.0264C47.7734 14.126 47.1846 14.1758 46.5225 14.1758ZM46.1445 5.66797C45.4883 5.66797 44.9609 5.87598 44.5625 6.29199C44.1699 6.70801 43.9355 7.31445 43.8594 8.11133H48.2715C48.2598 7.30859 48.0664 6.70215 47.6914 6.29199C47.3164 5.87598 46.8008 5.66797 46.1445 5.66797ZM58.7305 14L58.3174 12.6465H58.2471C57.7783 13.2383 57.3066 13.6426 56.832 13.8594C56.3574 14.0703 55.748 14.1758 55.0039 14.1758C54.0488 14.1758 53.3018 13.918 52.7627 13.4023C52.2295 12.8867 51.9629 12.1572 51.9629 11.2139C51.9629 10.2119 52.335 9.45605 53.0791 8.94629C53.8232 8.43652 54.957 8.1582 56.4805 8.11133L58.1592 8.05859V7.54004C58.1592 6.91895 58.0127 6.45605 57.7197 6.15137C57.4326 5.84082 56.9844 5.68555 56.375 5.68555C55.877 5.68555 55.3994 5.75879 54.9424 5.90527C54.4854 6.05176 54.0459 6.22461 53.624 6.42383L52.9561 4.94727C53.4834 4.67188 54.0605 4.46387 54.6875 4.32324C55.3145 4.17676 55.9062 4.10352 56.4629 4.10352C57.6992 4.10352 58.6309 4.37305 59.2578 4.91211C59.8906 5.45117 60.207 6.29785 60.207 7.45215V14H58.7305ZM55.6543 12.5938C56.4043 12.5938 57.0049 12.3857 57.4561 11.9697C57.9131 11.5479 58.1416 10.959 58.1416 10.2031V9.35938L56.8936 9.41211C55.9209 9.44727 55.2119 9.61133 54.7666 9.9043C54.3271 10.1914 54.1074 10.6338 54.1074 11.2314C54.1074 11.665 54.2363 12.002 54.4941 12.2422C54.752 12.4766 55.1387 12.5938 55.6543 12.5938ZM71.2812 14H69.207V8.00586C69.207 7.26172 69.0664 6.70801 68.7852 6.34473C68.5039 5.97559 68.0645 5.79102 67.4668 5.79102C66.6699 5.79102 66.084 6.05176 65.709 6.57324C65.3398 7.08887 65.1553 7.9502 65.1553 9.15723V14H63.0898V4.2793H64.707L64.9971 5.55371H65.1025C65.3721 5.09082 65.7617 4.7334 66.2715 4.48145C66.7871 4.22949 67.3525 4.10352 67.9678 4.10352C69.4619 4.10352 70.4521 4.61328 70.9385 5.63281H71.0791C71.3662 5.15234 71.7705 4.77734 72.292 4.50781C72.8135 4.23828 73.4111 4.10352 74.085 4.10352C75.2451 4.10352 76.0889 4.39648 76.6162 4.98242C77.1494 5.56836 77.416 6.46191 77.416 7.66309V14H75.3506V8.00586C75.3506 7.26172 75.207 6.70801 74.9199 6.34473C74.6387 5.97559 74.1992 5.79102 73.6016 5.79102C72.7988 5.79102 72.21 6.04297 71.835 6.54688C71.4658 7.04492 71.2812 7.8125 71.2812 8.84961V14ZM93.166 14L91.8828 10.4316H86.9697L85.7129 14H83.498L88.3057 1.09766H90.5908L95.3984 14H93.166ZM91.3291 8.62109L90.125 5.12305C90.0371 4.88867 89.9141 4.51953 89.7559 4.01562C89.6035 3.51172 89.498 3.14258 89.4395 2.9082C89.2812 3.62891 89.0498 4.41699 88.7451 5.27246L87.585 8.62109H91.3291ZM98.9404 14H96.875V0.324219H98.9404V14ZM106.833 4.10352C107.249 4.10352 107.592 4.13281 107.861 4.19141L107.659 6.11621C107.366 6.0459 107.062 6.01074 106.745 6.01074C105.919 6.01074 105.248 6.28027 104.732 6.81934C104.223 7.3584 103.968 8.05859 103.968 8.91992V14H101.902V4.2793H103.52L103.792 5.99316H103.897C104.22 5.41309 104.639 4.95312 105.154 4.61328C105.676 4.27344 106.235 4.10352 106.833 4.10352ZM113.917 14.1758C112.405 14.1758 111.222 13.7363 110.366 12.8574C109.517 11.9727 109.092 10.7568 109.092 9.20996C109.092 7.62207 109.487 6.37402 110.278 5.46582C111.069 4.55762 112.156 4.10352 113.539 4.10352C114.822 4.10352 115.836 4.49316 116.58 5.27246C117.324 6.05176 117.696 7.12402 117.696 8.48926V9.60547H111.219C111.248 10.5488 111.503 11.2754 111.983 11.7852C112.464 12.2891 113.141 12.541 114.014 12.541C114.588 12.541 115.121 12.4883 115.613 12.3828C116.111 12.2715 116.645 12.0898 117.213 11.8379V13.5166C116.709 13.7568 116.199 13.9268 115.684 14.0264C115.168 14.126 114.579 14.1758 113.917 14.1758ZM113.539 5.66797C112.883 5.66797 112.355 5.87598 111.957 6.29199C111.564 6.70801 111.33 7.31445 111.254 8.11133H115.666C115.654 7.30859 115.461 6.70215 115.086 6.29199C114.711 5.87598 114.195 5.66797 113.539 5.66797ZM126.125 14L125.712 12.6465H125.642C125.173 13.2383 124.701 13.6426 124.227 13.8594C123.752 14.0703 123.143 14.1758 122.398 14.1758C121.443 14.1758 120.696 13.918 120.157 13.4023C119.624 12.8867 119.357 12.1572 119.357 11.2139C119.357 10.2119 119.729 9.45605 120.474 8.94629C121.218 8.43652 122.352 8.1582 123.875 8.11133L125.554 8.05859V7.54004C125.554 6.91895 125.407 6.45605 125.114 6.15137C124.827 5.84082 124.379 5.68555 123.77 5.68555C123.271 5.68555 122.794 5.75879 122.337 5.90527C121.88 6.05176 121.44 6.22461 121.019 6.42383L120.351 4.94727C120.878 4.67188 121.455 4.46387 122.082 4.32324C122.709 4.17676 123.301 4.10352 123.857 4.10352C125.094 4.10352 126.025 4.37305 126.652 4.91211C127.285 5.45117 127.602 6.29785 127.602 7.45215V14H126.125ZM123.049 12.5938C123.799 12.5938 124.399 12.3857 124.851 11.9697C125.308 11.5479 125.536 10.959 125.536 10.2031V9.35938L124.288 9.41211C123.315 9.44727 122.606 9.61133 122.161 9.9043C121.722 10.1914 121.502 10.6338 121.502 11.2314C121.502 11.665 121.631 12.002 121.889 12.2422C122.146 12.4766 122.533 12.5938 123.049 12.5938ZM133.763 14.1758C132.55 14.1758 131.604 13.7363 130.924 12.8574C130.244 11.9785 129.904 10.7451 129.904 9.15723C129.904 7.56348 130.247 6.32422 130.933 5.43945C131.624 4.54883 132.579 4.10352 133.798 4.10352C135.075 4.10352 136.048 4.5752 136.716 5.51855H136.821C136.722 4.82129 136.672 4.27051 136.672 3.86621V0.324219H138.746V14H137.129L136.769 12.7256H136.672C136.01 13.6924 135.04 14.1758 133.763 14.1758ZM134.316 12.5059C135.166 12.5059 135.784 12.2686 136.171 11.7939C136.558 11.3135 136.757 10.5371 136.769 9.46484V9.1748C136.769 7.9502 136.569 7.08008 136.171 6.56445C135.772 6.04883 135.148 5.79102 134.299 5.79102C133.572 5.79102 133.013 6.08691 132.62 6.67871C132.228 7.26465 132.031 8.10254 132.031 9.19238C132.031 10.2705 132.222 11.0938 132.603 11.6621C132.983 12.2246 133.555 12.5059 134.316 12.5059ZM140.223 4.2793H142.473L144.45 9.79004C144.749 10.5752 144.948 11.3135 145.048 12.0049H145.118C145.171 11.6826 145.268 11.293 145.408 10.8359C145.549 10.373 146.293 8.1875 147.641 4.2793H149.873L145.716 15.292C144.96 17.3135 143.7 18.3242 141.937 18.3242C141.479 18.3242 141.034 18.2744 140.601 18.1748V16.54C140.911 16.6104 141.266 16.6455 141.664 16.6455C142.66 16.6455 143.36 16.0684 143.765 14.9141L144.125 14L140.223 4.2793ZM166.379 14H164.27V8.20801H158.346V14H156.245V1.15039H158.346V6.40625H164.27V1.15039H166.379V14ZM173.788 14.1758C172.276 14.1758 171.093 13.7363 170.237 12.8574C169.388 11.9727 168.963 10.7568 168.963 9.20996C168.963 7.62207 169.358 6.37402 170.149 5.46582C170.94 4.55762 172.027 4.10352 173.41 4.10352C174.693 4.10352 175.707 4.49316 176.451 5.27246C177.195 6.05176 177.567 7.12402 177.567 8.48926V9.60547H171.09C171.119 10.5488 171.374 11.2754 171.854 11.7852C172.335 12.2891 173.012 12.541 173.885 12.541C174.459 12.541 174.992 12.4883 175.484 12.3828C175.982 12.2715 176.516 12.0898 177.084 11.8379V13.5166C176.58 13.7568 176.07 13.9268 175.555 14.0264C175.039 14.126 174.45 14.1758 173.788 14.1758ZM173.41 5.66797C172.754 5.66797 172.227 5.87598 171.828 6.29199C171.436 6.70801 171.201 7.31445 171.125 8.11133H175.537C175.525 7.30859 175.332 6.70215 174.957 6.29199C174.582 5.87598 174.066 5.66797 173.41 5.66797ZM184.845 4.10352C185.261 4.10352 185.604 4.13281 185.873 4.19141L185.671 6.11621C185.378 6.0459 185.073 6.01074 184.757 6.01074C183.931 6.01074 183.26 6.28027 182.744 6.81934C182.234 7.3584 181.979 8.05859 181.979 8.91992V14H179.914V4.2793H181.531L181.804 5.99316H181.909C182.231 5.41309 182.65 4.95312 183.166 4.61328C183.688 4.27344 184.247 4.10352 184.845 4.10352ZM191.929 14.1758C190.417 14.1758 189.233 13.7363 188.378 12.8574C187.528 11.9727 187.104 10.7568 187.104 9.20996C187.104 7.62207 187.499 6.37402 188.29 5.46582C189.081 4.55762 190.168 4.10352 191.551 4.10352C192.834 4.10352 193.848 4.49316 194.592 5.27246C195.336 6.05176 195.708 7.12402 195.708 8.48926V9.60547H189.23C189.26 10.5488 189.515 11.2754 189.995 11.7852C190.476 12.2891 191.152 12.541 192.025 12.541C192.6 12.541 193.133 12.4883 193.625 12.3828C194.123 12.2715 194.656 12.0898 195.225 11.8379V13.5166C194.721 13.7568 194.211 13.9268 193.695 14.0264C193.18 14.126 192.591 14.1758 191.929 14.1758ZM191.551 5.66797C190.895 5.66797 190.367 5.87598 189.969 6.29199C189.576 6.70801 189.342 7.31445 189.266 8.11133H193.678C193.666 7.30859 193.473 6.70215 193.098 6.29199C192.723 5.87598 192.207 5.66797 191.551 5.66797Z" fill="#565656"/>
</svg>
