<svg width="197" height="15" viewBox="0 0 197 15" fill="none" xmlns="http://www.w3.org/2000/svg">
<path d="M6.16309 2.76758C4.95605 2.76758 4.00684 3.19531 3.31543 4.05078C2.62402 4.90625 2.27832 6.08691 2.27832 7.59277C2.27832 9.16895 2.60938 10.3613 3.27148 11.1699C3.93945 11.9785 4.90332 12.3828 6.16309 12.3828C6.70801 12.3828 7.23535 12.3301 7.74512 12.2246C8.25488 12.1133 8.78516 11.9727 9.33594 11.8027V13.6045C8.32812 13.9854 7.18555 14.1758 5.9082 14.1758C4.02734 14.1758 2.58301 13.6074 1.5752 12.4707C0.567383 11.3281 0.0634766 9.69629 0.0634766 7.5752C0.0634766 6.23926 0.306641 5.07031 0.792969 4.06836C1.28516 3.06641 1.99414 2.29883 2.91992 1.76562C3.8457 1.23242 4.93262 0.96582 6.18066 0.96582C7.49316 0.96582 8.70605 1.24121 9.81934 1.79199L9.06348 3.54102C8.62988 3.33594 8.16992 3.15723 7.68359 3.00488C7.20312 2.84668 6.69629 2.76758 6.16309 2.76758ZM20.5068 9.12207C20.5068 10.71 20.0996 11.9492 19.2852 12.8398C18.4707 13.7305 17.3369 14.1758 15.8838 14.1758C14.9756 14.1758 14.1729 13.9707 13.4756 13.5605C12.7783 13.1504 12.2422 12.5615 11.8672 11.7939C11.4922 11.0264 11.3047 10.1357 11.3047 9.12207C11.3047 7.5459 11.709 6.31543 12.5176 5.43066C13.3262 4.5459 14.4658 4.10352 15.9365 4.10352C17.3428 4.10352 18.4561 4.55762 19.2764 5.46582C20.0967 6.36816 20.5068 7.58691 20.5068 9.12207ZM13.4316 9.12207C13.4316 11.3662 14.2607 12.4883 15.9189 12.4883C17.5596 12.4883 18.3799 11.3662 18.3799 9.12207C18.3799 6.90137 17.5537 5.79102 15.9014 5.79102C15.0342 5.79102 14.4043 6.07812 14.0117 6.65234C13.625 7.22656 13.4316 8.0498 13.4316 9.12207ZM31.4404 14H29.3662V8.02344C29.3662 7.27344 29.2139 6.71387 28.9092 6.34473C28.6104 5.97559 28.1328 5.79102 27.4766 5.79102C26.6035 5.79102 25.9648 6.04883 25.5605 6.56445C25.1562 7.08008 24.9541 7.94434 24.9541 9.15723V14H22.8887V4.2793H24.5059L24.7959 5.55371H24.9014C25.1943 5.09082 25.6104 4.7334 26.1494 4.48145C26.6885 4.22949 27.2861 4.10352 27.9424 4.10352C30.2744 4.10352 31.4404 5.29004 31.4404 7.66309V14ZM40.8447 11.2314C40.8447 12.1807 40.499 12.9102 39.8076 13.4199C39.1162 13.9238 38.126 14.1758 36.8369 14.1758C35.542 14.1758 34.502 13.9795 33.7168 13.5869V11.8027C34.8594 12.3301 35.9229 12.5938 36.9072 12.5938C38.1787 12.5938 38.8145 12.21 38.8145 11.4424C38.8145 11.1963 38.7441 10.9912 38.6035 10.8271C38.4629 10.6631 38.2314 10.4932 37.9092 10.3174C37.5869 10.1416 37.1387 9.94238 36.5645 9.71973C35.4453 9.28613 34.6865 8.85254 34.2881 8.41895C33.8955 7.98535 33.6992 7.42285 33.6992 6.73145C33.6992 5.89941 34.0332 5.25488 34.7012 4.79785C35.375 4.33496 36.2891 4.10352 37.4434 4.10352C38.5859 4.10352 39.667 4.33496 40.6865 4.79785L40.0186 6.35352C38.9697 5.91992 38.0879 5.70312 37.373 5.70312C36.2832 5.70312 35.7383 6.01367 35.7383 6.63477C35.7383 6.93945 35.8789 7.19727 36.1602 7.4082C36.4473 7.61914 37.0684 7.90918 38.0234 8.27832C38.8262 8.58887 39.4092 8.87305 39.7725 9.13086C40.1357 9.38867 40.4053 9.6875 40.5811 10.0273C40.7568 10.3613 40.8447 10.7627 40.8447 11.2314ZM46.707 12.5059C47.2109 12.5059 47.7148 12.4268 48.2188 12.2686V13.8242C47.9902 13.9238 47.6943 14.0059 47.3311 14.0703C46.9736 14.1406 46.6016 14.1758 46.2148 14.1758C44.2578 14.1758 43.2793 13.1445 43.2793 11.082V5.84375H41.9521V4.92969L43.376 4.17383L44.0791 2.11719H45.3535V4.2793H48.1221V5.84375H45.3535V11.0469C45.3535 11.5449 45.4766 11.9141 45.7227 12.1543C45.9746 12.3887 46.3027 12.5059 46.707 12.5059ZM55.1006 4.10352C55.5166 4.10352 55.8594 4.13281 56.1289 4.19141L55.9268 6.11621C55.6338 6.0459 55.3291 6.01074 55.0127 6.01074C54.1865 6.01074 53.5156 6.28027 53 6.81934C52.4902 7.3584 52.2354 8.05859 52.2354 8.91992V14H50.1699V4.2793H51.7871L52.0596 5.99316H52.165C52.4873 5.41309 52.9062 4.95312 53.4219 4.61328C53.9434 4.27344 54.5029 4.10352 55.1006 4.10352ZM64.7949 14L64.5049 12.7256H64.3994C64.1123 13.1768 63.7021 13.5312 63.1689 13.7891C62.6416 14.0469 62.0381 14.1758 61.3584 14.1758C60.1807 14.1758 59.3018 13.8828 58.7217 13.2969C58.1416 12.7109 57.8516 11.8232 57.8516 10.6338V4.2793H59.9346V10.2734C59.9346 11.0176 60.0869 11.5771 60.3916 11.9521C60.6963 12.3213 61.1738 12.5059 61.8242 12.5059C62.6914 12.5059 63.3271 12.248 63.7314 11.7324C64.1416 11.2109 64.3467 10.3408 64.3467 9.12207V4.2793H66.4209V14H64.7949ZM73.2852 14.1758C71.8145 14.1758 70.6953 13.748 69.9277 12.8926C69.166 12.0312 68.7852 10.7979 68.7852 9.19238C68.7852 7.55762 69.1836 6.30078 69.9805 5.42188C70.7832 4.54297 71.9404 4.10352 73.4521 4.10352C74.4775 4.10352 75.4004 4.29395 76.2207 4.6748L75.5967 6.33594C74.7236 5.99609 74.0029 5.82617 73.4346 5.82617C71.7529 5.82617 70.9121 6.94238 70.9121 9.1748C70.9121 10.2646 71.1201 11.085 71.5361 11.6357C71.958 12.1807 72.5732 12.4531 73.3818 12.4531C74.3018 12.4531 75.1719 12.2246 75.9922 11.7676V13.5693C75.623 13.7861 75.2275 13.9414 74.8057 14.0352C74.3896 14.1289 73.8828 14.1758 73.2852 14.1758ZM81.8984 12.5059C82.4023 12.5059 82.9062 12.4268 83.4102 12.2686V13.8242C83.1816 13.9238 82.8857 14.0059 82.5225 14.0703C82.165 14.1406 81.793 14.1758 81.4062 14.1758C79.4492 14.1758 78.4707 13.1445 78.4707 11.082V5.84375H77.1436V4.92969L78.5674 4.17383L79.2705 2.11719H80.5449V4.2793H83.3135V5.84375H80.5449V11.0469C80.5449 11.5449 80.668 11.9141 80.9141 12.1543C81.166 12.3887 81.4941 12.5059 81.8984 12.5059ZM87.4268 14H85.3613V4.2793H87.4268V14ZM85.2383 1.7041C85.2383 1.33496 85.3379 1.05078 85.5371 0.851562C85.7422 0.652344 86.0322 0.552734 86.4072 0.552734C86.7705 0.552734 87.0518 0.652344 87.251 0.851562C87.4561 1.05078 87.5586 1.33496 87.5586 1.7041C87.5586 2.05566 87.4561 2.33398 87.251 2.53906C87.0518 2.73828 86.7705 2.83789 86.4072 2.83789C86.0322 2.83789 85.7422 2.73828 85.5371 2.53906C85.3379 2.33398 85.2383 2.05566 85.2383 1.7041ZM99.0107 9.12207C99.0107 10.71 98.6035 11.9492 97.7891 12.8398C96.9746 13.7305 95.8408 14.1758 94.3877 14.1758C93.4795 14.1758 92.6768 13.9707 91.9795 13.5605C91.2822 13.1504 90.7461 12.5615 90.3711 11.7939C89.9961 11.0264 89.8086 10.1357 89.8086 9.12207C89.8086 7.5459 90.2129 6.31543 91.0215 5.43066C91.8301 4.5459 92.9697 4.10352 94.4404 4.10352C95.8467 4.10352 96.96 4.55762 97.7803 5.46582C98.6006 6.36816 99.0107 7.58691 99.0107 9.12207ZM91.9355 9.12207C91.9355 11.3662 92.7646 12.4883 94.4229 12.4883C96.0635 12.4883 96.8838 11.3662 96.8838 9.12207C96.8838 6.90137 96.0576 5.79102 94.4053 5.79102C93.5381 5.79102 92.9082 6.07812 92.5156 6.65234C92.1289 7.22656 91.9355 8.0498 91.9355 9.12207ZM109.944 14H107.87V8.02344C107.87 7.27344 107.718 6.71387 107.413 6.34473C107.114 5.97559 106.637 5.79102 105.98 5.79102C105.107 5.79102 104.469 6.04883 104.064 6.56445C103.66 7.08008 103.458 7.94434 103.458 9.15723V14H101.393V4.2793H103.01L103.3 5.55371H103.405C103.698 5.09082 104.114 4.7334 104.653 4.48145C105.192 4.22949 105.79 4.10352 106.446 4.10352C108.778 4.10352 109.944 5.29004 109.944 7.66309V14ZM123.269 14L119.542 3.26855H119.472C119.571 4.8623 119.621 6.35645 119.621 7.75098V14H117.714V1.15039H120.676L124.244 11.3721H124.297L127.971 1.15039H130.941V14H128.92V7.64551C128.92 7.00684 128.935 6.1748 128.964 5.14941C128.999 4.12402 129.028 3.50293 129.052 3.28613H128.981L125.123 14H123.269ZM140.188 14L139.774 12.6465H139.704C139.235 13.2383 138.764 13.6426 138.289 13.8594C137.814 14.0703 137.205 14.1758 136.461 14.1758C135.506 14.1758 134.759 13.918 134.22 13.4023C133.687 12.8867 133.42 12.1572 133.42 11.2139C133.42 10.2119 133.792 9.45605 134.536 8.94629C135.28 8.43652 136.414 8.1582 137.938 8.11133L139.616 8.05859V7.54004C139.616 6.91895 139.47 6.45605 139.177 6.15137C138.89 5.84082 138.441 5.68555 137.832 5.68555C137.334 5.68555 136.856 5.75879 136.399 5.90527C135.942 6.05176 135.503 6.22461 135.081 6.42383L134.413 4.94727C134.94 4.67188 135.518 4.46387 136.145 4.32324C136.771 4.17676 137.363 4.10352 137.92 4.10352C139.156 4.10352 140.088 4.37305 140.715 4.91211C141.348 5.45117 141.664 6.29785 141.664 7.45215V14H140.188ZM137.111 12.5938C137.861 12.5938 138.462 12.3857 138.913 11.9697C139.37 11.5479 139.599 10.959 139.599 10.2031V9.35938L138.351 9.41211C137.378 9.44727 136.669 9.61133 136.224 9.9043C135.784 10.1914 135.564 10.6338 135.564 11.2314C135.564 11.665 135.693 12.002 135.951 12.2422C136.209 12.4766 136.596 12.5938 137.111 12.5938ZM148.168 12.5059C148.672 12.5059 149.176 12.4268 149.68 12.2686V13.8242C149.451 13.9238 149.155 14.0059 148.792 14.0703C148.435 14.1406 148.062 14.1758 147.676 14.1758C145.719 14.1758 144.74 13.1445 144.74 11.082V5.84375H143.413V4.92969L144.837 4.17383L145.54 2.11719H146.814V4.2793H149.583V5.84375H146.814V11.0469C146.814 11.5449 146.938 11.9141 147.184 12.1543C147.436 12.3887 147.764 12.5059 148.168 12.5059ZM155.876 14.1758C154.364 14.1758 153.181 13.7363 152.325 12.8574C151.476 11.9727 151.051 10.7568 151.051 9.20996C151.051 7.62207 151.446 6.37402 152.237 5.46582C153.028 4.55762 154.115 4.10352 155.498 4.10352C156.781 4.10352 157.795 4.49316 158.539 5.27246C159.283 6.05176 159.655 7.12402 159.655 8.48926V9.60547H153.178C153.207 10.5488 153.462 11.2754 153.942 11.7852C154.423 12.2891 155.1 12.541 155.973 12.541C156.547 12.541 157.08 12.4883 157.572 12.3828C158.07 12.2715 158.604 12.0898 159.172 11.8379V13.5166C158.668 13.7568 158.158 13.9268 157.643 14.0264C157.127 14.126 156.538 14.1758 155.876 14.1758ZM155.498 5.66797C154.842 5.66797 154.314 5.87598 153.916 6.29199C153.523 6.70801 153.289 7.31445 153.213 8.11133H157.625C157.613 7.30859 157.42 6.70215 157.045 6.29199C156.67 5.87598 156.154 5.66797 155.498 5.66797ZM166.933 4.10352C167.349 4.10352 167.691 4.13281 167.961 4.19141L167.759 6.11621C167.466 6.0459 167.161 6.01074 166.845 6.01074C166.019 6.01074 165.348 6.28027 164.832 6.81934C164.322 7.3584 164.067 8.05859 164.067 8.91992V14H162.002V4.2793H163.619L163.892 5.99316H163.997C164.319 5.41309 164.738 4.95312 165.254 4.61328C165.775 4.27344 166.335 4.10352 166.933 4.10352ZM171.837 14H169.771V4.2793H171.837V14ZM169.648 1.7041C169.648 1.33496 169.748 1.05078 169.947 0.851562C170.152 0.652344 170.442 0.552734 170.817 0.552734C171.181 0.552734 171.462 0.652344 171.661 0.851562C171.866 1.05078 171.969 1.33496 171.969 1.7041C171.969 2.05566 171.866 2.33398 171.661 2.53906C171.462 2.73828 171.181 2.83789 170.817 2.83789C170.442 2.83789 170.152 2.73828 169.947 2.53906C169.748 2.33398 169.648 2.05566 169.648 1.7041ZM180.881 14L180.468 12.6465H180.397C179.929 13.2383 179.457 13.6426 178.982 13.8594C178.508 14.0703 177.898 14.1758 177.154 14.1758C176.199 14.1758 175.452 13.918 174.913 13.4023C174.38 12.8867 174.113 12.1572 174.113 11.2139C174.113 10.2119 174.485 9.45605 175.229 8.94629C175.974 8.43652 177.107 8.1582 178.631 8.11133L180.31 8.05859V7.54004C180.31 6.91895 180.163 6.45605 179.87 6.15137C179.583 5.84082 179.135 5.68555 178.525 5.68555C178.027 5.68555 177.55 5.75879 177.093 5.90527C176.636 6.05176 176.196 6.22461 175.774 6.42383L175.106 4.94727C175.634 4.67188 176.211 4.46387 176.838 4.32324C177.465 4.17676 178.057 4.10352 178.613 4.10352C179.85 4.10352 180.781 4.37305 181.408 4.91211C182.041 5.45117 182.357 6.29785 182.357 7.45215V14H180.881ZM177.805 12.5938C178.555 12.5938 179.155 12.3857 179.606 11.9697C180.063 11.5479 180.292 10.959 180.292 10.2031V9.35938L179.044 9.41211C178.071 9.44727 177.362 9.61133 176.917 9.9043C176.478 10.1914 176.258 10.6338 176.258 11.2314C176.258 11.665 176.387 12.002 176.645 12.2422C176.902 12.4766 177.289 12.5938 177.805 12.5938ZM187.306 14H185.24V0.324219H187.306V14ZM196.798 11.2314C196.798 12.1807 196.452 12.9102 195.761 13.4199C195.069 13.9238 194.079 14.1758 192.79 14.1758C191.495 14.1758 190.455 13.9795 189.67 13.5869V11.8027C190.812 12.3301 191.876 12.5938 192.86 12.5938C194.132 12.5938 194.768 12.21 194.768 11.4424C194.768 11.1963 194.697 10.9912 194.557 10.8271C194.416 10.6631 194.185 10.4932 193.862 10.3174C193.54 10.1416 193.092 9.94238 192.518 9.71973C191.398 9.28613 190.64 8.85254 190.241 8.41895C189.849 7.98535 189.652 7.42285 189.652 6.73145C189.652 5.89941 189.986 5.25488 190.654 4.79785C191.328 4.33496 192.242 4.10352 193.396 4.10352C194.539 4.10352 195.62 4.33496 196.64 4.79785L195.972 6.35352C194.923 5.91992 194.041 5.70312 193.326 5.70312C192.236 5.70312 191.691 6.01367 191.691 6.63477C191.691 6.93945 191.832 7.19727 192.113 7.4082C192.4 7.61914 193.021 7.90918 193.977 8.27832C194.779 8.58887 195.362 8.87305 195.726 9.13086C196.089 9.38867 196.358 9.6875 196.534 10.0273C196.71 10.3613 196.798 10.7627 196.798 11.2314Z" fill="#565656"/>
</svg>
