<svg width="105" height="15" viewBox="0 0 105 15" fill="none" xmlns="http://www.w3.org/2000/svg">
<path d="M6.16309 2.76758C4.95605 2.76758 4.00684 3.19531 3.31543 4.05078C2.62402 4.90625 2.27832 6.08691 2.27832 7.59277C2.27832 9.16895 2.60938 10.3613 3.27148 11.1699C3.93945 11.9785 4.90332 12.3828 6.16309 12.3828C6.70801 12.3828 7.23535 12.3301 7.74512 12.2246C8.25488 12.1133 8.78516 11.9727 9.33594 11.8027V13.6045C8.32812 13.9854 7.18555 14.1758 5.9082 14.1758C4.02734 14.1758 2.58301 13.6074 1.5752 12.4707C0.567383 11.3281 0.0634766 9.69629 0.0634766 7.5752C0.0634766 6.23926 0.306641 5.07031 0.792969 4.06836C1.28516 3.06641 1.99414 2.29883 2.91992 1.76562C3.8457 1.23242 4.93262 0.96582 6.18066 0.96582C7.49316 0.96582 8.70605 1.24121 9.81934 1.79199L9.06348 3.54102C8.62988 3.33594 8.16992 3.15723 7.68359 3.00488C7.20312 2.84668 6.69629 2.76758 6.16309 2.76758ZM20.5068 9.12207C20.5068 10.71 20.0996 11.9492 19.2852 12.8398C18.4707 13.7305 17.3369 14.1758 15.8838 14.1758C14.9756 14.1758 14.1729 13.9707 13.4756 13.5605C12.7783 13.1504 12.2422 12.5615 11.8672 11.7939C11.4922 11.0264 11.3047 10.1357 11.3047 9.12207C11.3047 7.5459 11.709 6.31543 12.5176 5.43066C13.3262 4.5459 14.4658 4.10352 15.9365 4.10352C17.3428 4.10352 18.4561 4.55762 19.2764 5.46582C20.0967 6.36816 20.5068 7.58691 20.5068 9.12207ZM13.4316 9.12207C13.4316 11.3662 14.2607 12.4883 15.9189 12.4883C17.5596 12.4883 18.3799 11.3662 18.3799 9.12207C18.3799 6.90137 17.5537 5.79102 15.9014 5.79102C15.0342 5.79102 14.4043 6.07812 14.0117 6.65234C13.625 7.22656 13.4316 8.0498 13.4316 9.12207ZM31.4404 14H29.3662V8.02344C29.3662 7.27344 29.2139 6.71387 28.9092 6.34473C28.6104 5.97559 28.1328 5.79102 27.4766 5.79102C26.6035 5.79102 25.9648 6.04883 25.5605 6.56445C25.1562 7.08008 24.9541 7.94434 24.9541 9.15723V14H22.8887V4.2793H24.5059L24.7959 5.55371H24.9014C25.1943 5.09082 25.6104 4.7334 26.1494 4.48145C26.6885 4.22949 27.2861 4.10352 27.9424 4.10352C30.2744 4.10352 31.4404 5.29004 31.4404 7.66309V14ZM37.9355 12.5059C38.4395 12.5059 38.9434 12.4268 39.4473 12.2686V13.8242C39.2188 13.9238 38.9229 14.0059 38.5596 14.0703C38.2021 14.1406 37.8301 14.1758 37.4434 14.1758C35.4863 14.1758 34.5078 13.1445 34.5078 11.082V5.84375H33.1807V4.92969L34.6045 4.17383L35.3076 2.11719H36.582V4.2793H39.3506V5.84375H36.582V11.0469C36.582 11.5449 36.7051 11.9141 36.9512 12.1543C37.2031 12.3887 37.5312 12.5059 37.9355 12.5059ZM47.4805 14L47.0674 12.6465H46.9971C46.5283 13.2383 46.0566 13.6426 45.582 13.8594C45.1074 14.0703 44.498 14.1758 43.7539 14.1758C42.7988 14.1758 42.0518 13.918 41.5127 13.4023C40.9795 12.8867 40.7129 12.1572 40.7129 11.2139C40.7129 10.2119 41.085 9.45605 41.8291 8.94629C42.5732 8.43652 43.707 8.1582 45.2305 8.11133L46.9092 8.05859V7.54004C46.9092 6.91895 46.7627 6.45605 46.4697 6.15137C46.1826 5.84082 45.7344 5.68555 45.125 5.68555C44.627 5.68555 44.1494 5.75879 43.6924 5.90527C43.2354 6.05176 42.7959 6.22461 42.374 6.42383L41.7061 4.94727C42.2334 4.67188 42.8105 4.46387 43.4375 4.32324C44.0645 4.17676 44.6562 4.10352 45.2129 4.10352C46.4492 4.10352 47.3809 4.37305 48.0078 4.91211C48.6406 5.45117 48.957 6.29785 48.957 7.45215V14H47.4805ZM44.4043 12.5938C45.1543 12.5938 45.7549 12.3857 46.2061 11.9697C46.6631 11.5479 46.8916 10.959 46.8916 10.2031V9.35938L45.6436 9.41211C44.6709 9.44727 43.9619 9.61133 43.5166 9.9043C43.0771 10.1914 42.8574 10.6338 42.8574 11.2314C42.8574 11.665 42.9863 12.002 43.2441 12.2422C43.502 12.4766 43.8887 12.5938 44.4043 12.5938ZM55.7598 14.1758C54.2891 14.1758 53.1699 13.748 52.4023 12.8926C51.6406 12.0312 51.2598 10.7979 51.2598 9.19238C51.2598 7.55762 51.6582 6.30078 52.4551 5.42188C53.2578 4.54297 54.415 4.10352 55.9268 4.10352C56.9521 4.10352 57.875 4.29395 58.6953 4.6748L58.0713 6.33594C57.1982 5.99609 56.4775 5.82617 55.9092 5.82617C54.2275 5.82617 53.3867 6.94238 53.3867 9.1748C53.3867 10.2646 53.5947 11.085 54.0107 11.6357C54.4326 12.1807 55.0479 12.4531 55.8564 12.4531C56.7764 12.4531 57.6465 12.2246 58.4668 11.7676V13.5693C58.0977 13.7861 57.7021 13.9414 57.2803 14.0352C56.8643 14.1289 56.3574 14.1758 55.7598 14.1758ZM64.373 12.5059C64.877 12.5059 65.3809 12.4268 65.8848 12.2686V13.8242C65.6562 13.9238 65.3604 14.0059 64.9971 14.0703C64.6396 14.1406 64.2676 14.1758 63.8809 14.1758C61.9238 14.1758 60.9453 13.1445 60.9453 11.082V5.84375H59.6182V4.92969L61.042 4.17383L61.7451 2.11719H63.0195V4.2793H65.7881V5.84375H63.0195V11.0469C63.0195 11.5449 63.1426 11.9141 63.3887 12.1543C63.6406 12.3887 63.9688 12.5059 64.373 12.5059ZM72.7314 14V1.15039H74.832V14H72.7314ZM86.5654 14H84.4912V8.02344C84.4912 7.27344 84.3389 6.71387 84.0342 6.34473C83.7354 5.97559 83.2578 5.79102 82.6016 5.79102C81.7285 5.79102 81.0898 6.04883 80.6855 6.56445C80.2812 7.08008 80.0791 7.94434 80.0791 9.15723V14H78.0137V4.2793H79.6309L79.9209 5.55371H80.0264C80.3193 5.09082 80.7354 4.7334 81.2744 4.48145C81.8135 4.22949 82.4111 4.10352 83.0674 4.10352C85.3994 4.10352 86.5654 5.29004 86.5654 7.66309V14ZM94.3174 5.84375H91.9443V14H89.8701V5.84375H88.2705V4.87695L89.8701 4.24414V3.61133C89.8701 2.46289 90.1396 1.61328 90.6787 1.0625C91.2178 0.505859 92.041 0.227539 93.1484 0.227539C93.875 0.227539 94.5898 0.347656 95.293 0.587891L94.748 2.15234C94.2383 1.98828 93.752 1.90625 93.2891 1.90625C92.8203 1.90625 92.4775 2.05273 92.2607 2.3457C92.0498 2.63281 91.9443 3.06641 91.9443 3.64648V4.2793H94.3174V5.84375ZM104.601 9.12207C104.601 10.71 104.193 11.9492 103.379 12.8398C102.564 13.7305 101.431 14.1758 99.9775 14.1758C99.0693 14.1758 98.2666 13.9707 97.5693 13.5605C96.8721 13.1504 96.3359 12.5615 95.9609 11.7939C95.5859 11.0264 95.3984 10.1357 95.3984 9.12207C95.3984 7.5459 95.8027 6.31543 96.6113 5.43066C97.4199 4.5459 98.5596 4.10352 100.03 4.10352C101.437 4.10352 102.55 4.55762 103.37 5.46582C104.19 6.36816 104.601 7.58691 104.601 9.12207ZM97.5254 9.12207C97.5254 11.3662 98.3545 12.4883 100.013 12.4883C101.653 12.4883 102.474 11.3662 102.474 9.12207C102.474 6.90137 101.647 5.79102 99.9951 5.79102C99.1279 5.79102 98.498 6.07812 98.1055 6.65234C97.7188 7.22656 97.5254 8.0498 97.5254 9.12207Z" fill="white"/>
</svg>
