<svg width="138" height="15" viewBox="0 0 138 15" fill="none" xmlns="http://www.w3.org/2000/svg">
<path d="M6.16309 2.76758C4.95605 2.76758 4.00684 3.19531 3.31543 4.05078C2.62402 4.90625 2.27832 6.08691 2.27832 7.59277C2.27832 9.16895 2.60938 10.3613 3.27148 11.1699C3.93945 11.9785 4.90332 12.3828 6.16309 12.3828C6.70801 12.3828 7.23535 12.3301 7.74512 12.2246C8.25488 12.1133 8.78516 11.9727 9.33594 11.8027V13.6045C8.32812 13.9854 7.18555 14.1758 5.9082 14.1758C4.02734 14.1758 2.58301 13.6074 1.5752 12.4707C0.567383 11.3281 0.0634766 9.69629 0.0634766 7.5752C0.0634766 6.23926 0.306641 5.07031 0.792969 4.06836C1.28516 3.06641 1.99414 2.29883 2.91992 1.76562C3.8457 1.23242 4.93262 0.96582 6.18066 0.96582C7.49316 0.96582 8.70605 1.24121 9.81934 1.79199L9.06348 3.54102C8.62988 3.33594 8.16992 3.15723 7.68359 3.00488C7.20312 2.84668 6.69629 2.76758 6.16309 2.76758ZM16.8154 4.10352C17.2314 4.10352 17.5742 4.13281 17.8438 4.19141L17.6416 6.11621C17.3486 6.0459 17.0439 6.01074 16.7275 6.01074C15.9014 6.01074 15.2305 6.28027 14.7148 6.81934C14.2051 7.3584 13.9502 8.05859 13.9502 8.91992V14H11.8848V4.2793H13.502L13.7744 5.99316H13.8799C14.2021 5.41309 14.6211 4.95312 15.1367 4.61328C15.6582 4.27344 16.2178 4.10352 16.8154 4.10352ZM25.7363 14L25.3232 12.6465H25.2529C24.7842 13.2383 24.3125 13.6426 23.8379 13.8594C23.3633 14.0703 22.7539 14.1758 22.0098 14.1758C21.0547 14.1758 20.3076 13.918 19.7686 13.4023C19.2354 12.8867 18.9688 12.1572 18.9688 11.2139C18.9688 10.2119 19.3408 9.45605 20.085 8.94629C20.8291 8.43652 21.9629 8.1582 23.4863 8.11133L25.165 8.05859V7.54004C25.165 6.91895 25.0186 6.45605 24.7256 6.15137C24.4385 5.84082 23.9902 5.68555 23.3809 5.68555C22.8828 5.68555 22.4053 5.75879 21.9482 5.90527C21.4912 6.05176 21.0518 6.22461 20.6299 6.42383L19.9619 4.94727C20.4893 4.67188 21.0664 4.46387 21.6934 4.32324C22.3203 4.17676 22.9121 4.10352 23.4688 4.10352C24.7051 4.10352 25.6367 4.37305 26.2637 4.91211C26.8965 5.45117 27.2129 6.29785 27.2129 7.45215V14H25.7363ZM22.6602 12.5938C23.4102 12.5938 24.0107 12.3857 24.4619 11.9697C24.9189 11.5479 25.1475 10.959 25.1475 10.2031V9.35938L23.8994 9.41211C22.9268 9.44727 22.2178 9.61133 21.7725 9.9043C21.333 10.1914 21.1133 10.6338 21.1133 11.2314C21.1133 11.665 21.2422 12.002 21.5 12.2422C21.7578 12.4766 22.1445 12.5938 22.6602 12.5938ZM38.6475 14H36.5732V8.02344C36.5732 7.27344 36.4209 6.71387 36.1162 6.34473C35.8174 5.97559 35.3398 5.79102 34.6836 5.79102C33.8105 5.79102 33.1719 6.04883 32.7676 6.56445C32.3633 7.08008 32.1611 7.94434 32.1611 9.15723V14H30.0957V4.2793H31.7129L32.0029 5.55371H32.1084C32.4014 5.09082 32.8174 4.7334 33.3564 4.48145C33.8955 4.22949 34.4932 4.10352 35.1494 4.10352C37.4814 4.10352 38.6475 5.29004 38.6475 7.66309V14ZM45.7666 14.1758C44.2549 14.1758 43.0713 13.7363 42.2158 12.8574C41.3662 11.9727 40.9414 10.7568 40.9414 9.20996C40.9414 7.62207 41.3369 6.37402 42.1279 5.46582C42.9189 4.55762 44.0059 4.10352 45.3887 4.10352C46.6719 4.10352 47.6855 4.49316 48.4297 5.27246C49.1738 6.05176 49.5459 7.12402 49.5459 8.48926V9.60547H43.0684C43.0977 10.5488 43.3525 11.2754 43.833 11.7852C44.3135 12.2891 44.9902 12.541 45.8633 12.541C46.4375 12.541 46.9707 12.4883 47.4629 12.3828C47.9609 12.2715 48.4941 12.0898 49.0625 11.8379V13.5166C48.5586 13.7568 48.0488 13.9268 47.5332 14.0264C47.0176 14.126 46.4287 14.1758 45.7666 14.1758ZM45.3887 5.66797C44.7324 5.66797 44.2051 5.87598 43.8066 6.29199C43.4141 6.70801 43.1797 7.31445 43.1035 8.11133H47.5156C47.5039 7.30859 47.3105 6.70215 46.9355 6.29199C46.5605 5.87598 46.0449 5.66797 45.3887 5.66797ZM62.3428 14L58.6162 3.26855H58.5459C58.6455 4.8623 58.6953 6.35645 58.6953 7.75098V14H56.7881V1.15039H59.75L63.3184 11.3721H63.3711L67.0449 1.15039H70.0156V14H67.9941V7.64551C67.9941 7.00684 68.0088 6.1748 68.0381 5.14941C68.0732 4.12402 68.1025 3.50293 68.126 3.28613H68.0557L64.1973 14H62.3428ZM79.2617 14L78.8486 12.6465H78.7783C78.3096 13.2383 77.8379 13.6426 77.3633 13.8594C76.8887 14.0703 76.2793 14.1758 75.5352 14.1758C74.5801 14.1758 73.833 13.918 73.2939 13.4023C72.7607 12.8867 72.4941 12.1572 72.4941 11.2139C72.4941 10.2119 72.8662 9.45605 73.6104 8.94629C74.3545 8.43652 75.4883 8.1582 77.0117 8.11133L78.6904 8.05859V7.54004C78.6904 6.91895 78.5439 6.45605 78.251 6.15137C77.9639 5.84082 77.5156 5.68555 76.9062 5.68555C76.4082 5.68555 75.9307 5.75879 75.4736 5.90527C75.0166 6.05176 74.5771 6.22461 74.1553 6.42383L73.4873 4.94727C74.0146 4.67188 74.5918 4.46387 75.2188 4.32324C75.8457 4.17676 76.4375 4.10352 76.9941 4.10352C78.2305 4.10352 79.1621 4.37305 79.7891 4.91211C80.4219 5.45117 80.7383 6.29785 80.7383 7.45215V14H79.2617ZM76.1855 12.5938C76.9355 12.5938 77.5361 12.3857 77.9873 11.9697C78.4443 11.5479 78.6729 10.959 78.6729 10.2031V9.35938L77.4248 9.41211C76.4521 9.44727 75.7432 9.61133 75.2979 9.9043C74.8584 10.1914 74.6387 10.6338 74.6387 11.2314C74.6387 11.665 74.7676 12.002 75.0254 12.2422C75.2832 12.4766 75.6699 12.5938 76.1855 12.5938ZM87.541 14.1758C86.0703 14.1758 84.9512 13.748 84.1836 12.8926C83.4219 12.0312 83.041 10.7979 83.041 9.19238C83.041 7.55762 83.4395 6.30078 84.2363 5.42188C85.0391 4.54297 86.1963 4.10352 87.708 4.10352C88.7334 4.10352 89.6562 4.29395 90.4766 4.6748L89.8525 6.33594C88.9795 5.99609 88.2588 5.82617 87.6904 5.82617C86.0088 5.82617 85.168 6.94238 85.168 9.1748C85.168 10.2646 85.376 11.085 85.792 11.6357C86.2139 12.1807 86.8291 12.4531 87.6377 12.4531C88.5576 12.4531 89.4277 12.2246 90.248 11.7676V13.5693C89.8789 13.7861 89.4834 13.9414 89.0615 14.0352C88.6455 14.1289 88.1387 14.1758 87.541 14.1758ZM101.085 14H99.0107V8.02344C99.0107 7.27344 98.8584 6.71387 98.5537 6.34473C98.2549 5.97559 97.7773 5.79102 97.1211 5.79102C96.2539 5.79102 95.6152 6.05176 95.2051 6.57324C94.8008 7.08887 94.5986 7.95605 94.5986 9.1748V14H92.5332V0.324219H94.5986V3.7959C94.5986 4.35254 94.5635 4.94727 94.4932 5.58008H94.625C94.9062 5.11133 95.2959 4.74805 95.7939 4.49023C96.2979 4.23242 96.8838 4.10352 97.5518 4.10352C99.9072 4.10352 101.085 5.29004 101.085 7.66309V14ZM106.024 14H103.959V4.2793H106.024V14ZM103.836 1.7041C103.836 1.33496 103.936 1.05078 104.135 0.851562C104.34 0.652344 104.63 0.552734 105.005 0.552734C105.368 0.552734 105.649 0.652344 105.849 0.851562C106.054 1.05078 106.156 1.33496 106.156 1.7041C106.156 2.05566 106.054 2.33398 105.849 2.53906C105.649 2.73828 105.368 2.83789 105.005 2.83789C104.63 2.83789 104.34 2.73828 104.135 2.53906C103.936 2.33398 103.836 2.05566 103.836 1.7041ZM117.538 14H115.464V8.02344C115.464 7.27344 115.312 6.71387 115.007 6.34473C114.708 5.97559 114.23 5.79102 113.574 5.79102C112.701 5.79102 112.062 6.04883 111.658 6.56445C111.254 7.08008 111.052 7.94434 111.052 9.15723V14H108.986V4.2793H110.604L110.894 5.55371H110.999C111.292 5.09082 111.708 4.7334 112.247 4.48145C112.786 4.22949 113.384 4.10352 114.04 4.10352C116.372 4.10352 117.538 5.29004 117.538 7.66309V14ZM124.657 14.1758C123.146 14.1758 121.962 13.7363 121.106 12.8574C120.257 11.9727 119.832 10.7568 119.832 9.20996C119.832 7.62207 120.228 6.37402 121.019 5.46582C121.81 4.55762 122.896 4.10352 124.279 4.10352C125.562 4.10352 126.576 4.49316 127.32 5.27246C128.064 6.05176 128.437 7.12402 128.437 8.48926V9.60547H121.959C121.988 10.5488 122.243 11.2754 122.724 11.7852C123.204 12.2891 123.881 12.541 124.754 12.541C125.328 12.541 125.861 12.4883 126.354 12.3828C126.852 12.2715 127.385 12.0898 127.953 11.8379V13.5166C127.449 13.7568 126.939 13.9268 126.424 14.0264C125.908 14.126 125.319 14.1758 124.657 14.1758ZM124.279 5.66797C123.623 5.66797 123.096 5.87598 122.697 6.29199C122.305 6.70801 122.07 7.31445 121.994 8.11133H126.406C126.395 7.30859 126.201 6.70215 125.826 6.29199C125.451 5.87598 124.936 5.66797 124.279 5.66797ZM137.313 11.2314C137.313 12.1807 136.968 12.9102 136.276 13.4199C135.585 13.9238 134.595 14.1758 133.306 14.1758C132.011 14.1758 130.971 13.9795 130.186 13.5869V11.8027C131.328 12.3301 132.392 12.5938 133.376 12.5938C134.647 12.5938 135.283 12.21 135.283 11.4424C135.283 11.1963 135.213 10.9912 135.072 10.8271C134.932 10.6631 134.7 10.4932 134.378 10.3174C134.056 10.1416 133.607 9.94238 133.033 9.71973C131.914 9.28613 131.155 8.85254 130.757 8.41895C130.364 7.98535 130.168 7.42285 130.168 6.73145C130.168 5.89941 130.502 5.25488 131.17 4.79785C131.844 4.33496 132.758 4.10352 133.912 4.10352C135.055 4.10352 136.136 4.33496 137.155 4.79785L136.487 6.35352C135.438 5.91992 134.557 5.70312 133.842 5.70312C132.752 5.70312 132.207 6.01367 132.207 6.63477C132.207 6.93945 132.348 7.19727 132.629 7.4082C132.916 7.61914 133.537 7.90918 134.492 8.27832C135.295 8.58887 135.878 8.87305 136.241 9.13086C136.604 9.38867 136.874 9.6875 137.05 10.0273C137.226 10.3613 137.313 10.7627 137.313 11.2314Z" fill="#565656"/>
</svg>
