<svg width="178" height="19" viewBox="0 0 178 19" fill="none" xmlns="http://www.w3.org/2000/svg">
<path d="M6.16309 2.76758C4.95605 2.76758 4.00684 3.19531 3.31543 4.05078C2.62402 4.90625 2.27832 6.08691 2.27832 7.59277C2.27832 9.16895 2.60938 10.3613 3.27148 11.1699C3.93945 11.9785 4.90332 12.3828 6.16309 12.3828C6.70801 12.3828 7.23535 12.3301 7.74512 12.2246C8.25488 12.1133 8.78516 11.9727 9.33594 11.8027V13.6045C8.32812 13.9854 7.18555 14.1758 5.9082 14.1758C4.02734 14.1758 2.58301 13.6074 1.5752 12.4707C0.567383 11.3281 0.0634766 9.69629 0.0634766 7.5752C0.0634766 6.23926 0.306641 5.07031 0.792969 4.06836C1.28516 3.06641 1.99414 2.29883 2.91992 1.76562C3.8457 1.23242 4.93262 0.96582 6.18066 0.96582C7.49316 0.96582 8.70605 1.24121 9.81934 1.79199L9.06348 3.54102C8.62988 3.33594 8.16992 3.15723 7.68359 3.00488C7.20312 2.84668 6.69629 2.76758 6.16309 2.76758ZM16.8154 4.10352C17.2314 4.10352 17.5742 4.13281 17.8438 4.19141L17.6416 6.11621C17.3486 6.0459 17.0439 6.01074 16.7275 6.01074C15.9014 6.01074 15.2305 6.28027 14.7148 6.81934C14.2051 7.3584 13.9502 8.05859 13.9502 8.91992V14H11.8848V4.2793H13.502L13.7744 5.99316H13.8799C14.2021 5.41309 14.6211 4.95312 15.1367 4.61328C15.6582 4.27344 16.2178 4.10352 16.8154 4.10352ZM26.5098 14L26.2197 12.7256H26.1143C25.8271 13.1768 25.417 13.5312 24.8838 13.7891C24.3564 14.0469 23.7529 14.1758 23.0732 14.1758C21.8955 14.1758 21.0166 13.8828 20.4365 13.2969C19.8564 12.7109 19.5664 11.8232 19.5664 10.6338V4.2793H21.6494V10.2734C21.6494 11.0176 21.8018 11.5771 22.1064 11.9521C22.4111 12.3213 22.8887 12.5059 23.5391 12.5059C24.4062 12.5059 25.042 12.248 25.4463 11.7324C25.8564 11.2109 26.0615 10.3408 26.0615 9.12207V4.2793H28.1357V14H26.5098ZM37.6104 11.2314C37.6104 12.1807 37.2646 12.9102 36.5732 13.4199C35.8818 13.9238 34.8916 14.1758 33.6025 14.1758C32.3076 14.1758 31.2676 13.9795 30.4824 13.5869V11.8027C31.625 12.3301 32.6885 12.5938 33.6729 12.5938C34.9443 12.5938 35.5801 12.21 35.5801 11.4424C35.5801 11.1963 35.5098 10.9912 35.3691 10.8271C35.2285 10.6631 34.9971 10.4932 34.6748 10.3174C34.3525 10.1416 33.9043 9.94238 33.3301 9.71973C32.2109 9.28613 31.4521 8.85254 31.0537 8.41895C30.6611 7.98535 30.4648 7.42285 30.4648 6.73145C30.4648 5.89941 30.7988 5.25488 31.4668 4.79785C32.1406 4.33496 33.0547 4.10352 34.209 4.10352C35.3516 4.10352 36.4326 4.33496 37.4521 4.79785L36.7842 6.35352C35.7354 5.91992 34.8535 5.70312 34.1387 5.70312C33.0488 5.70312 32.5039 6.01367 32.5039 6.63477C32.5039 6.93945 32.6445 7.19727 32.9258 7.4082C33.2129 7.61914 33.834 7.90918 34.7891 8.27832C35.5918 8.58887 36.1748 8.87305 36.5381 9.13086C36.9014 9.38867 37.1709 9.6875 37.3467 10.0273C37.5225 10.3613 37.6104 10.7627 37.6104 11.2314ZM48.4033 14H46.3291V8.02344C46.3291 7.27344 46.1768 6.71387 45.8721 6.34473C45.5732 5.97559 45.0957 5.79102 44.4395 5.79102C43.5723 5.79102 42.9336 6.05176 42.5234 6.57324C42.1191 7.08887 41.917 7.95605 41.917 9.1748V14H39.8516V0.324219H41.917V3.7959C41.917 4.35254 41.8818 4.94727 41.8115 5.58008H41.9434C42.2246 5.11133 42.6143 4.74805 43.1123 4.49023C43.6162 4.23242 44.2021 4.10352 44.8701 4.10352C47.2256 4.10352 48.4033 5.29004 48.4033 7.66309V14ZM53.3428 14H51.2773V4.2793H53.3428V14ZM51.1543 1.7041C51.1543 1.33496 51.2539 1.05078 51.4531 0.851562C51.6582 0.652344 51.9482 0.552734 52.3232 0.552734C52.6865 0.552734 52.9678 0.652344 53.167 0.851562C53.3721 1.05078 53.4746 1.33496 53.4746 1.7041C53.4746 2.05566 53.3721 2.33398 53.167 2.53906C52.9678 2.73828 52.6865 2.83789 52.3232 2.83789C51.9482 2.83789 51.6582 2.73828 51.4531 2.53906C51.2539 2.33398 51.1543 2.05566 51.1543 1.7041ZM64.8564 14H62.7822V8.02344C62.7822 7.27344 62.6299 6.71387 62.3252 6.34473C62.0264 5.97559 61.5488 5.79102 60.8926 5.79102C60.0195 5.79102 59.3809 6.04883 58.9766 6.56445C58.5723 7.08008 58.3701 7.94434 58.3701 9.15723V14H56.3047V4.2793H57.9219L58.2119 5.55371H58.3174C58.6104 5.09082 59.0264 4.7334 59.5654 4.48145C60.1045 4.22949 60.7021 4.10352 61.3584 4.10352C63.6904 4.10352 64.8564 5.29004 64.8564 7.66309V14ZM75.9395 4.2793V5.41309L74.2783 5.7207C74.4307 5.92578 74.5566 6.17773 74.6562 6.47656C74.7559 6.77539 74.8057 7.0918 74.8057 7.42578C74.8057 8.42773 74.46 9.21582 73.7686 9.79004C73.0771 10.3643 72.125 10.6514 70.9121 10.6514C70.6016 10.6514 70.3203 10.6279 70.0684 10.5811C69.623 10.8564 69.4004 11.1787 69.4004 11.5479C69.4004 11.7705 69.5029 11.9375 69.708 12.0488C69.9189 12.1602 70.3027 12.2158 70.8594 12.2158H72.5557C73.6279 12.2158 74.4424 12.4443 74.999 12.9014C75.5557 13.3584 75.834 14.0176 75.834 14.8789C75.834 15.9805 75.3799 16.8301 74.4717 17.4277C73.5635 18.0254 72.251 18.3242 70.5342 18.3242C69.21 18.3242 68.1992 18.0898 67.502 17.6211C66.8047 17.1523 66.4561 16.4844 66.4561 15.6172C66.4561 15.0195 66.6436 14.5156 67.0186 14.1055C67.3994 13.7012 67.9297 13.4199 68.6094 13.2617C68.334 13.1445 68.1055 12.957 67.9238 12.6992C67.748 12.4355 67.6602 12.1602 67.6602 11.873C67.6602 11.5098 67.7627 11.2021 67.9678 10.9502C68.1729 10.6982 68.4775 10.4492 68.8818 10.2031C68.3779 9.98633 67.9678 9.63477 67.6514 9.14844C67.3408 8.65625 67.1855 8.08203 67.1855 7.42578C67.1855 6.37109 67.5166 5.55371 68.1787 4.97363C68.8467 4.39355 69.7959 4.10352 71.0264 4.10352C71.3018 4.10352 71.5889 4.12402 71.8877 4.16504C72.1924 4.2002 72.4209 4.23828 72.5732 4.2793H75.9395ZM68.3018 15.5117C68.3018 15.957 68.501 16.2998 68.8994 16.54C69.3037 16.7803 69.8691 16.9004 70.5957 16.9004C71.7207 16.9004 72.5586 16.7393 73.1094 16.417C73.6602 16.0947 73.9355 15.667 73.9355 15.1338C73.9355 14.7119 73.7832 14.4102 73.4785 14.2285C73.1797 14.0527 72.6201 13.9648 71.7998 13.9648H70.2354C69.6436 13.9648 69.1719 14.1025 68.8203 14.3779C68.4746 14.6592 68.3018 15.0371 68.3018 15.5117ZM69.1895 7.42578C69.1895 8.03516 69.3447 8.50391 69.6553 8.83203C69.9717 9.16016 70.4229 9.32422 71.0088 9.32422C72.2041 9.32422 72.8018 8.68555 72.8018 7.4082C72.8018 6.77539 72.6523 6.28906 72.3535 5.94922C72.0605 5.60352 71.6123 5.43066 71.0088 5.43066C70.4111 5.43066 69.957 5.60059 69.6465 5.94043C69.3418 6.28027 69.1895 6.77539 69.1895 7.42578ZM94.0537 7.55762C94.0537 9.64941 93.5293 11.2754 92.4805 12.4355C91.4375 13.5957 89.958 14.1758 88.042 14.1758C86.1025 14.1758 84.6113 13.6016 83.5684 12.4531C82.5312 11.2988 82.0127 9.66113 82.0127 7.54004C82.0127 5.41895 82.5342 3.79004 83.5771 2.65332C84.626 1.5166 86.1201 0.948242 88.0596 0.948242C89.9697 0.948242 91.4463 1.52539 92.4893 2.67969C93.5322 3.83398 94.0537 5.45996 94.0537 7.55762ZM84.2451 7.55762C84.2451 9.13965 84.5645 10.3408 85.2031 11.1611C85.8418 11.9756 86.7881 12.3828 88.042 12.3828C89.29 12.3828 90.2305 11.9785 90.8633 11.1699C91.502 10.3613 91.8213 9.15723 91.8213 7.55762C91.8213 5.98145 91.5049 4.78613 90.8721 3.97168C90.2451 3.15723 89.3076 2.75 88.0596 2.75C86.7998 2.75 85.8477 3.15723 85.2031 3.97168C84.5645 4.78613 84.2451 5.98145 84.2451 7.55762ZM101.524 14.1758C100.294 14.1758 99.3389 13.7334 98.6592 12.8486H98.5361C98.6182 13.6689 98.6592 14.167 98.6592 14.3428V18.3242H96.5938V4.2793H98.2637C98.3105 4.46094 98.4072 4.89453 98.5537 5.58008H98.6592C99.3037 4.5957 100.271 4.10352 101.56 4.10352C102.772 4.10352 103.716 4.54297 104.39 5.42188C105.069 6.30078 105.409 7.53418 105.409 9.12207C105.409 10.71 105.063 11.9492 104.372 12.8398C103.687 13.7305 102.737 14.1758 101.524 14.1758ZM101.023 5.79102C100.203 5.79102 99.6025 6.03125 99.2217 6.51172C98.8467 6.99219 98.6592 7.75977 98.6592 8.81445V9.12207C98.6592 10.3057 98.8467 11.1641 99.2217 11.6973C99.5967 12.2246 100.209 12.4883 101.059 12.4883C101.773 12.4883 102.324 12.1953 102.711 11.6094C103.098 11.0234 103.291 10.1885 103.291 9.10449C103.291 8.01465 103.098 7.19141 102.711 6.63477C102.33 6.07227 101.768 5.79102 101.023 5.79102ZM112.054 14.1758C110.542 14.1758 109.358 13.7363 108.503 12.8574C107.653 11.9727 107.229 10.7568 107.229 9.20996C107.229 7.62207 107.624 6.37402 108.415 5.46582C109.206 4.55762 110.293 4.10352 111.676 4.10352C112.959 4.10352 113.973 4.49316 114.717 5.27246C115.461 6.05176 115.833 7.12402 115.833 8.48926V9.60547H109.355C109.385 10.5488 109.64 11.2754 110.12 11.7852C110.601 12.2891 111.277 12.541 112.15 12.541C112.725 12.541 113.258 12.4883 113.75 12.3828C114.248 12.2715 114.781 12.0898 115.35 11.8379V13.5166C114.846 13.7568 114.336 13.9268 113.82 14.0264C113.305 14.126 112.716 14.1758 112.054 14.1758ZM111.676 5.66797C111.02 5.66797 110.492 5.87598 110.094 6.29199C109.701 6.70801 109.467 7.31445 109.391 8.11133H113.803C113.791 7.30859 113.598 6.70215 113.223 6.29199C112.848 5.87598 112.332 5.66797 111.676 5.66797ZM123.11 4.10352C123.526 4.10352 123.869 4.13281 124.139 4.19141L123.937 6.11621C123.644 6.0459 123.339 6.01074 123.022 6.01074C122.196 6.01074 121.525 6.28027 121.01 6.81934C120.5 7.3584 120.245 8.05859 120.245 8.91992V14H118.18V4.2793H119.797L120.069 5.99316H120.175C120.497 5.41309 120.916 4.95312 121.432 4.61328C121.953 4.27344 122.513 4.10352 123.11 4.10352ZM132.031 14L131.618 12.6465H131.548C131.079 13.2383 130.607 13.6426 130.133 13.8594C129.658 14.0703 129.049 14.1758 128.305 14.1758C127.35 14.1758 126.603 13.918 126.063 13.4023C125.53 12.8867 125.264 12.1572 125.264 11.2139C125.264 10.2119 125.636 9.45605 126.38 8.94629C127.124 8.43652 128.258 8.1582 129.781 8.11133L131.46 8.05859V7.54004C131.46 6.91895 131.313 6.45605 131.021 6.15137C130.733 5.84082 130.285 5.68555 129.676 5.68555C129.178 5.68555 128.7 5.75879 128.243 5.90527C127.786 6.05176 127.347 6.22461 126.925 6.42383L126.257 4.94727C126.784 4.67188 127.361 4.46387 127.988 4.32324C128.615 4.17676 129.207 4.10352 129.764 4.10352C131 4.10352 131.932 4.37305 132.559 4.91211C133.191 5.45117 133.508 6.29785 133.508 7.45215V14H132.031ZM128.955 12.5938C129.705 12.5938 130.306 12.3857 130.757 11.9697C131.214 11.5479 131.442 10.959 131.442 10.2031V9.35938L130.194 9.41211C129.222 9.44727 128.513 9.61133 128.067 9.9043C127.628 10.1914 127.408 10.6338 127.408 11.2314C127.408 11.665 127.537 12.002 127.795 12.2422C128.053 12.4766 128.439 12.5938 128.955 12.5938ZM140.012 12.5059C140.516 12.5059 141.02 12.4268 141.523 12.2686V13.8242C141.295 13.9238 140.999 14.0059 140.636 14.0703C140.278 14.1406 139.906 14.1758 139.52 14.1758C137.562 14.1758 136.584 13.1445 136.584 11.082V5.84375H135.257V4.92969L136.681 4.17383L137.384 2.11719H138.658V4.2793H141.427V5.84375H138.658V11.0469C138.658 11.5449 138.781 11.9141 139.027 12.1543C139.279 12.3887 139.607 12.5059 140.012 12.5059ZM145.54 14H143.475V4.2793H145.54V14ZM143.352 1.7041C143.352 1.33496 143.451 1.05078 143.65 0.851562C143.855 0.652344 144.146 0.552734 144.521 0.552734C144.884 0.552734 145.165 0.652344 145.364 0.851562C145.569 1.05078 145.672 1.33496 145.672 1.7041C145.672 2.05566 145.569 2.33398 145.364 2.53906C145.165 2.73828 144.884 2.83789 144.521 2.83789C144.146 2.83789 143.855 2.73828 143.65 2.53906C143.451 2.33398 143.352 2.05566 143.352 1.7041ZM157.124 9.12207C157.124 10.71 156.717 11.9492 155.902 12.8398C155.088 13.7305 153.954 14.1758 152.501 14.1758C151.593 14.1758 150.79 13.9707 150.093 13.5605C149.396 13.1504 148.859 12.5615 148.484 11.7939C148.109 11.0264 147.922 10.1357 147.922 9.12207C147.922 7.5459 148.326 6.31543 149.135 5.43066C149.943 4.5459 151.083 4.10352 152.554 4.10352C153.96 4.10352 155.073 4.55762 155.894 5.46582C156.714 6.36816 157.124 7.58691 157.124 9.12207ZM150.049 9.12207C150.049 11.3662 150.878 12.4883 152.536 12.4883C154.177 12.4883 154.997 11.3662 154.997 9.12207C154.997 6.90137 154.171 5.79102 152.519 5.79102C151.651 5.79102 151.021 6.07812 150.629 6.65234C150.242 7.22656 150.049 8.0498 150.049 9.12207ZM168.058 14H165.983V8.02344C165.983 7.27344 165.831 6.71387 165.526 6.34473C165.228 5.97559 164.75 5.79102 164.094 5.79102C163.221 5.79102 162.582 6.04883 162.178 6.56445C161.773 7.08008 161.571 7.94434 161.571 9.15723V14H159.506V4.2793H161.123L161.413 5.55371H161.519C161.812 5.09082 162.228 4.7334 162.767 4.48145C163.306 4.22949 163.903 4.10352 164.56 4.10352C166.892 4.10352 168.058 5.29004 168.058 7.66309V14ZM177.462 11.2314C177.462 12.1807 177.116 12.9102 176.425 13.4199C175.733 13.9238 174.743 14.1758 173.454 14.1758C172.159 14.1758 171.119 13.9795 170.334 13.5869V11.8027C171.477 12.3301 172.54 12.5938 173.524 12.5938C174.796 12.5938 175.432 12.21 175.432 11.4424C175.432 11.1963 175.361 10.9912 175.221 10.8271C175.08 10.6631 174.849 10.4932 174.526 10.3174C174.204 10.1416 173.756 9.94238 173.182 9.71973C172.062 9.28613 171.304 8.85254 170.905 8.41895C170.513 7.98535 170.316 7.42285 170.316 6.73145C170.316 5.89941 170.65 5.25488 171.318 4.79785C171.992 4.33496 172.906 4.10352 174.061 4.10352C175.203 4.10352 176.284 4.33496 177.304 4.79785L176.636 6.35352C175.587 5.91992 174.705 5.70312 173.99 5.70312C172.9 5.70312 172.355 6.01367 172.355 6.63477C172.355 6.93945 172.496 7.19727 172.777 7.4082C173.064 7.61914 173.686 7.90918 174.641 8.27832C175.443 8.58887 176.026 8.87305 176.39 9.13086C176.753 9.38867 177.022 9.6875 177.198 10.0273C177.374 10.3613 177.462 10.7627 177.462 11.2314Z" fill="#565656"/>
</svg>
