<svg width="258" height="15" viewBox="0 0 258 15" fill="none" xmlns="http://www.w3.org/2000/svg">
<path d="M5.68066 1.49121C4.42741 1.49121 3.44076 1.89225 2.7207 2.69434C2.00065 3.49642 1.64062 4.59473 1.64062 5.98926C1.64062 7.41569 1.98014 8.52311 2.65918 9.31152C3.33822 10.0999 4.30892 10.4941 5.57129 10.4941C6.40983 10.4941 7.18001 10.387 7.88184 10.1729V10.7881C7.22103 11.0205 6.39616 11.1367 5.40723 11.1367C4.00358 11.1367 2.89844 10.6833 2.0918 9.77637C1.28516 8.86947 0.881836 7.60254 0.881836 5.97559C0.881836 4.95931 1.07324 4.0638 1.45605 3.28906C1.84342 2.51432 2.39714 1.91732 3.11719 1.49805C3.8418 1.07422 4.68262 0.862305 5.63965 0.862305C6.61491 0.862305 7.48763 1.0446 8.25781 1.40918L7.97754 2.03809C7.24837 1.6735 6.48275 1.49121 5.68066 1.49121ZM10.5273 3.56934V8.38184C10.5273 9.12923 10.6846 9.67383 10.999 10.0156C11.3135 10.3529 11.8011 10.5215 12.4619 10.5215C13.346 10.5215 13.9954 10.2982 14.4102 9.85156C14.8294 9.40495 15.0391 8.67806 15.0391 7.6709V3.56934H15.709V11H15.1348L15.0117 9.97461H14.9707C14.4876 10.7493 13.6286 11.1367 12.3936 11.1367C10.7028 11.1367 9.85742 10.2321 9.85742 8.42285V3.56934H10.5273ZM22.8047 9.06543C22.8047 9.73079 22.5518 10.2435 22.0459 10.6035C21.54 10.959 20.8223 11.1367 19.8926 11.1367C18.8991 11.1367 18.1107 10.984 17.5273 10.6787V9.94727C18.2747 10.321 19.0632 10.5078 19.8926 10.5078C20.6263 10.5078 21.1823 10.387 21.5605 10.1455C21.9434 9.89941 22.1348 9.57357 22.1348 9.16797C22.1348 8.79427 21.9821 8.47982 21.6768 8.22461C21.376 7.9694 20.8792 7.71875 20.1865 7.47266C19.4437 7.20378 18.9219 6.97363 18.6211 6.78223C18.3203 6.58626 18.0924 6.36751 17.9375 6.12598C17.7871 5.87988 17.7119 5.58138 17.7119 5.23047C17.7119 4.67448 17.9443 4.2347 18.4092 3.91113C18.8786 3.58757 19.5326 3.42578 20.3711 3.42578C21.1732 3.42578 21.9342 3.57617 22.6543 3.87695L22.4014 4.49219C21.6722 4.19141 20.9954 4.04102 20.3711 4.04102C19.765 4.04102 19.2842 4.14128 18.9287 4.3418C18.5732 4.54232 18.3955 4.82031 18.3955 5.17578C18.3955 5.56315 18.5322 5.87305 18.8057 6.10547C19.0837 6.33789 19.6237 6.59766 20.4258 6.88477C21.0957 7.1263 21.5833 7.34505 21.8887 7.54102C22.194 7.73242 22.4219 7.95117 22.5723 8.19727C22.7272 8.44336 22.8047 8.73275 22.8047 9.06543ZM26.6807 10.5352C27.109 10.5352 27.4827 10.4987 27.8018 10.4258V10.9727C27.4736 11.082 27.0954 11.1367 26.667 11.1367C26.0107 11.1367 25.5254 10.9613 25.2109 10.6104C24.901 10.2594 24.7461 9.70801 24.7461 8.95605V4.15723H23.6455V3.76074L24.7461 3.45312L25.0879 1.77148H25.4365V3.56934H27.6172V4.15723H25.4365V8.86035C25.4365 9.43001 25.5368 9.85156 25.7373 10.125C25.9378 10.3984 26.2523 10.5352 26.6807 10.5352ZM35.5537 7.27441C35.5537 8.48665 35.2598 9.43457 34.6719 10.1182C34.084 10.7972 33.2728 11.1367 32.2383 11.1367C31.5866 11.1367 31.0124 10.9795 30.5156 10.665C30.0189 10.3506 29.6383 9.89941 29.374 9.31152C29.1097 8.72363 28.9775 8.0446 28.9775 7.27441C28.9775 6.06217 29.2715 5.11882 29.8594 4.44434C30.4473 3.7653 31.2539 3.42578 32.2793 3.42578C33.3001 3.42578 34.0999 3.76986 34.6787 4.45801C35.262 5.1416 35.5537 6.0804 35.5537 7.27441ZM29.6885 7.27441C29.6885 8.29525 29.9118 9.09277 30.3584 9.66699C30.8096 10.2367 31.4453 10.5215 32.2656 10.5215C33.0859 10.5215 33.7194 10.2367 34.166 9.66699C34.6172 9.09277 34.8428 8.29525 34.8428 7.27441C34.8428 6.24902 34.6149 5.45378 34.1592 4.88867C33.708 4.32357 33.0723 4.04102 32.252 4.04102C31.4316 4.04102 30.7982 4.32357 30.3516 4.88867C29.9095 5.44922 29.6885 6.24447 29.6885 7.27441ZM46.8945 11V6.12598C46.8945 5.40137 46.7533 4.87272 46.4707 4.54004C46.1882 4.20736 45.7552 4.04102 45.1719 4.04102C44.4108 4.04102 43.848 4.25065 43.4834 4.66992C43.1188 5.08919 42.9365 5.74772 42.9365 6.64551V11H42.2461V5.9209C42.2461 4.66764 41.6719 4.04102 40.5234 4.04102C39.7441 4.04102 39.1768 4.26888 38.8213 4.72461C38.4658 5.17578 38.2881 5.90039 38.2881 6.89844V11H37.6113V3.56934H38.1719L38.3154 4.58789H38.3564C38.5615 4.21875 38.8532 3.93392 39.2314 3.7334C39.6097 3.52832 40.0267 3.42578 40.4824 3.42578C41.6536 3.42578 42.4056 3.86556 42.7383 4.74512H42.7656C43.0072 4.32129 43.3307 3.99544 43.7363 3.76758C44.1465 3.53971 44.6113 3.42578 45.1309 3.42578C45.9421 3.42578 46.5505 3.64225 46.9561 4.0752C47.3617 4.50814 47.5645 5.19629 47.5645 6.13965V11H46.8945ZM59.2949 8.42285C59.2949 9.25684 58.9873 9.91764 58.3721 10.4053C57.7614 10.8929 56.9479 11.1367 55.9316 11.1367C54.7103 11.1367 53.7738 11.0023 53.1221 10.7334V10.0361C53.8421 10.3415 54.7604 10.4941 55.877 10.4941C56.6973 10.4941 57.3467 10.3073 57.8252 9.93359C58.3083 9.55534 58.5498 9.06087 58.5498 8.4502C58.5498 8.07194 58.4701 7.75977 58.3105 7.51367C58.151 7.26302 57.8913 7.03516 57.5312 6.83008C57.1712 6.625 56.6426 6.40397 55.9453 6.16699C54.9245 5.81608 54.2181 5.43783 53.8262 5.03223C53.4388 4.62207 53.2451 4.07747 53.2451 3.39844C53.2451 2.65104 53.5368 2.04264 54.1201 1.57324C54.708 1.09928 55.4622 0.862305 56.3828 0.862305C57.3216 0.862305 58.2035 1.04004 59.0283 1.39551L58.7754 1.99707C57.946 1.65072 57.153 1.47754 56.3965 1.47754C55.6582 1.47754 55.0703 1.64844 54.6328 1.99023C54.1953 2.33203 53.9766 2.79688 53.9766 3.38477C53.9766 3.75391 54.0426 4.05697 54.1748 4.29395C54.3115 4.53092 54.5326 4.74512 54.8379 4.93652C55.1432 5.12337 55.6673 5.34896 56.4102 5.61328C57.1895 5.88216 57.7751 6.14421 58.167 6.39941C58.5589 6.65007 58.8438 6.93717 59.0215 7.26074C59.2038 7.57975 59.2949 7.96712 59.2949 8.42285ZM61.8242 3.56934V8.38184C61.8242 9.12923 61.9814 9.67383 62.2959 10.0156C62.6104 10.3529 63.098 10.5215 63.7588 10.5215C64.6429 10.5215 65.2923 10.2982 65.707 9.85156C66.1263 9.40495 66.3359 8.67806 66.3359 7.6709V3.56934H67.0059V11H66.4316L66.3086 9.97461H66.2676C65.7845 10.7493 64.9255 11.1367 63.6904 11.1367C61.9997 11.1367 61.1543 10.2321 61.1543 8.42285V3.56934H61.8242ZM72.6729 11.1367C71.529 11.1367 70.695 10.7083 70.1709 9.85156H70.123L70.1436 10.4258C70.1618 10.763 70.1709 11.1322 70.1709 11.5332V14.3633H69.4941V3.56934H70.0684L70.1982 4.62891H70.2393C70.7497 3.82682 71.5654 3.42578 72.6865 3.42578C73.6891 3.42578 74.4525 3.75618 74.9766 4.41699C75.5052 5.07324 75.7695 6.03027 75.7695 7.28809C75.7695 8.50944 75.4915 9.45736 74.9355 10.1318C74.3841 10.8018 73.6299 11.1367 72.6729 11.1367ZM72.6592 10.5352C73.4202 10.5352 74.0081 10.2526 74.4229 9.6875C74.8421 9.1224 75.0518 8.33171 75.0518 7.31543C75.0518 5.13249 74.2633 4.04102 72.6865 4.04102C71.8206 4.04102 71.1849 4.28027 70.7793 4.75879C70.3737 5.23275 70.1709 6.00749 70.1709 7.08301V7.30176C70.1709 8.46387 70.3646 9.29329 70.752 9.79004C71.1439 10.2868 71.7796 10.5352 72.6592 10.5352ZM81.0127 11.1367C79.8688 11.1367 79.0348 10.7083 78.5107 9.85156H78.4629L78.4834 10.4258C78.5016 10.763 78.5107 11.1322 78.5107 11.5332V14.3633H77.834V3.56934H78.4082L78.5381 4.62891H78.5791C79.0895 3.82682 79.9053 3.42578 81.0264 3.42578C82.029 3.42578 82.7923 3.75618 83.3164 4.41699C83.8451 5.07324 84.1094 6.03027 84.1094 7.28809C84.1094 8.50944 83.8314 9.45736 83.2754 10.1318C82.724 10.8018 81.9697 11.1367 81.0127 11.1367ZM80.999 10.5352C81.7601 10.5352 82.348 10.2526 82.7627 9.6875C83.182 9.1224 83.3916 8.33171 83.3916 7.31543C83.3916 5.13249 82.6032 4.04102 81.0264 4.04102C80.1605 4.04102 79.5247 4.28027 79.1191 4.75879C78.7135 5.23275 78.5107 6.00749 78.5107 7.08301V7.30176C78.5107 8.46387 78.7044 9.29329 79.0918 9.79004C79.4837 10.2868 80.1195 10.5352 80.999 10.5352ZM92.3193 7.27441C92.3193 8.48665 92.0254 9.43457 91.4375 10.1182C90.8496 10.7972 90.0384 11.1367 89.0039 11.1367C88.3522 11.1367 87.778 10.9795 87.2812 10.665C86.7845 10.3506 86.404 9.89941 86.1396 9.31152C85.8753 8.72363 85.7432 8.0446 85.7432 7.27441C85.7432 6.06217 86.0371 5.11882 86.625 4.44434C87.2129 3.7653 88.0195 3.42578 89.0449 3.42578C90.0658 3.42578 90.8656 3.76986 91.4443 4.45801C92.0277 5.1416 92.3193 6.0804 92.3193 7.27441ZM86.4541 7.27441C86.4541 8.29525 86.6774 9.09277 87.124 9.66699C87.5752 10.2367 88.2109 10.5215 89.0312 10.5215C89.8516 10.5215 90.485 10.2367 90.9316 9.66699C91.3828 9.09277 91.6084 8.29525 91.6084 7.27441C91.6084 6.24902 91.3805 5.45378 90.9248 4.88867C90.4736 4.32357 89.8379 4.04102 89.0176 4.04102C88.1973 4.04102 87.5638 4.32357 87.1172 4.88867C86.6751 5.44922 86.4541 6.24447 86.4541 7.27441ZM97.3027 3.42578C97.6172 3.42578 97.9544 3.45768 98.3145 3.52148L98.1846 4.1709C97.8747 4.09342 97.5534 4.05469 97.2207 4.05469C96.5872 4.05469 96.0677 4.32357 95.6621 4.86133C95.2565 5.39909 95.0537 6.07812 95.0537 6.89844V11H94.377V3.56934H94.9512L95.0195 4.90918H95.0674C95.3727 4.3623 95.6986 3.97949 96.0449 3.76074C96.3913 3.53743 96.8105 3.42578 97.3027 3.42578ZM101.794 10.5352C102.222 10.5352 102.596 10.4987 102.915 10.4258V10.9727C102.587 11.082 102.209 11.1367 101.78 11.1367C101.124 11.1367 100.639 10.9613 100.324 10.6104C100.014 10.2594 99.8594 9.70801 99.8594 8.95605V4.15723H98.7588V3.76074L99.8594 3.45312L100.201 1.77148H100.55V3.56934H102.73V4.15723H100.55V8.86035C100.55 9.43001 100.65 9.85156 100.851 10.125C101.051 10.3984 101.366 10.5352 101.794 10.5352ZM107.755 8.46387C107.755 7.83496 107.921 7.29948 108.254 6.85742C108.591 6.41536 109.218 5.94824 110.134 5.45605L109.621 4.89551C109.32 4.57194 109.097 4.25521 108.951 3.94531C108.805 3.63542 108.732 3.31185 108.732 2.97461C108.732 2.32292 108.949 1.80566 109.382 1.42285C109.819 1.04004 110.405 0.848633 111.139 0.848633C111.845 0.848633 112.403 1.0332 112.813 1.40234C113.228 1.77148 113.436 2.2819 113.436 2.93359C113.436 3.41211 113.276 3.85189 112.957 4.25293C112.638 4.64941 112.062 5.09147 111.228 5.5791L114.317 8.70312C114.595 8.375 114.832 8.01725 115.028 7.62988C115.224 7.24251 115.395 6.78451 115.541 6.25586H116.197C115.91 7.37695 115.434 8.34766 114.769 9.16797L116.587 11H115.664L114.345 9.65332C113.925 10.0635 113.552 10.3643 113.224 10.5557C112.896 10.7425 112.535 10.8861 112.144 10.9863C111.756 11.0866 111.314 11.1367 110.817 11.1367C109.865 11.1367 109.115 10.902 108.568 10.4326C108.026 9.96322 107.755 9.30697 107.755 8.46387ZM110.865 10.5215C111.449 10.5215 111.982 10.4235 112.465 10.2275C112.952 10.027 113.431 9.69206 113.9 9.22266L110.599 5.90723C109.979 6.23535 109.53 6.51562 109.252 6.74805C108.979 6.97591 108.778 7.22428 108.65 7.49316C108.527 7.76204 108.466 8.0765 108.466 8.43652C108.466 9.08822 108.678 9.59863 109.102 9.96777C109.525 10.3369 110.113 10.5215 110.865 10.5215ZM109.464 2.96094C109.464 3.32096 109.555 3.65365 109.737 3.95898C109.92 4.26432 110.266 4.66081 110.776 5.14844C111.501 4.76107 112.005 4.39876 112.287 4.06152C112.57 3.72428 112.711 3.33919 112.711 2.90625C112.711 2.47786 112.57 2.13151 112.287 1.86719C112.005 1.59831 111.622 1.46387 111.139 1.46387C110.619 1.46387 110.209 1.59603 109.908 1.86035C109.612 2.12467 109.464 2.49154 109.464 2.96094ZM127.463 8.42285C127.463 9.25684 127.155 9.91764 126.54 10.4053C125.929 10.8929 125.116 11.1367 124.1 11.1367C122.878 11.1367 121.942 11.0023 121.29 10.7334V10.0361C122.01 10.3415 122.928 10.4941 124.045 10.4941C124.865 10.4941 125.515 10.3073 125.993 9.93359C126.476 9.55534 126.718 9.06087 126.718 8.4502C126.718 8.07194 126.638 7.75977 126.479 7.51367C126.319 7.26302 126.059 7.03516 125.699 6.83008C125.339 6.625 124.811 6.40397 124.113 6.16699C123.092 5.81608 122.386 5.43783 121.994 5.03223C121.607 4.62207 121.413 4.07747 121.413 3.39844C121.413 2.65104 121.705 2.04264 122.288 1.57324C122.876 1.09928 123.63 0.862305 124.551 0.862305C125.49 0.862305 126.371 1.04004 127.196 1.39551L126.943 1.99707C126.114 1.65072 125.321 1.47754 124.564 1.47754C123.826 1.47754 123.238 1.64844 122.801 1.99023C122.363 2.33203 122.145 2.79688 122.145 3.38477C122.145 3.75391 122.211 4.05697 122.343 4.29395C122.479 4.53092 122.701 4.74512 123.006 4.93652C123.311 5.12337 123.835 5.34896 124.578 5.61328C125.357 5.88216 125.943 6.14421 126.335 6.39941C126.727 6.65007 127.012 6.93717 127.189 7.26074C127.372 7.57975 127.463 7.96712 127.463 8.42285ZM133.916 11L133.745 9.82422H133.69C133.317 10.3027 132.932 10.6423 132.535 10.8428C132.143 11.0387 131.678 11.1367 131.141 11.1367C130.411 11.1367 129.844 10.9499 129.438 10.5762C129.033 10.2025 128.83 9.68522 128.83 9.02441C128.83 8.2998 129.131 7.73698 129.732 7.33594C130.339 6.9349 131.214 6.72298 132.357 6.7002L133.772 6.65918V6.16699C133.772 5.46061 133.629 4.92741 133.342 4.56738C133.055 4.20736 132.592 4.02734 131.954 4.02734C131.266 4.02734 130.553 4.21875 129.814 4.60156L129.562 4.01367C130.377 3.63086 131.184 3.43945 131.981 3.43945C132.797 3.43945 133.406 3.65137 133.807 4.0752C134.212 4.49902 134.415 5.15983 134.415 6.05762V11H133.916ZM131.182 10.5215C131.975 10.5215 132.599 10.2959 133.055 9.84473C133.515 9.389 133.745 8.75781 133.745 7.95117V7.21973L132.446 7.27441C131.403 7.32454 130.658 7.48861 130.211 7.7666C129.769 8.04004 129.548 8.46842 129.548 9.05176C129.548 9.5166 129.689 9.87891 129.972 10.1387C130.259 10.3939 130.662 10.5215 131.182 10.5215ZM137.505 11H136.828V0.363281H137.505V11ZM143.001 11.1367C141.921 11.1367 141.078 10.804 140.472 10.1387C139.87 9.47331 139.569 8.54134 139.569 7.34277C139.569 6.15788 139.861 5.20996 140.444 4.49902C141.028 3.78353 141.814 3.42578 142.803 3.42578C143.678 3.42578 144.368 3.73112 144.874 4.3418C145.38 4.95247 145.633 5.7819 145.633 6.83008V7.37695H140.28C140.289 8.39779 140.526 9.17708 140.991 9.71484C141.461 10.2526 142.131 10.5215 143.001 10.5215C143.425 10.5215 143.796 10.4919 144.115 10.4326C144.439 10.3734 144.847 10.2458 145.339 10.0498V10.665C144.92 10.8473 144.532 10.9704 144.177 11.0342C143.821 11.1025 143.429 11.1367 143.001 11.1367ZM142.803 4.02734C142.087 4.02734 141.513 4.26432 141.08 4.73828C140.647 5.20768 140.394 5.88672 140.321 6.77539H144.915C144.915 5.91406 144.728 5.24186 144.354 4.75879C143.981 4.27116 143.464 4.02734 142.803 4.02734ZM147.547 10.4668C147.547 10.0202 147.729 9.79688 148.094 9.79688C148.467 9.79688 148.654 10.0202 148.654 10.4668C148.654 10.9134 148.467 11.1367 148.094 11.1367C147.729 11.1367 147.547 10.9134 147.547 10.4668ZM147.547 4.3623C147.547 3.91569 147.729 3.69238 148.094 3.69238C148.467 3.69238 148.654 3.91569 148.654 4.3623C148.654 4.60384 148.6 4.77702 148.49 4.88184C148.385 4.98665 148.253 5.03906 148.094 5.03906C147.939 5.03906 147.809 4.98665 147.704 4.88184C147.599 4.77702 147.547 4.60384 147.547 4.3623ZM157.685 5.77734H160.651V6.33789H157.685V9.29102H157.124V6.33789H154.171V5.77734H157.124V2.81055H157.685V5.77734ZM166.072 11H165.402V3.71973C165.402 3.05892 165.43 2.37305 165.484 1.66211C165.416 1.73047 165.345 1.79655 165.272 1.86035C165.2 1.92415 164.495 2.47786 163.16 3.52148L162.771 3.03613L165.484 1.00586H166.072V11ZM170.037 7.5V6.93945H173.284V7.5H170.037ZM177.591 4.99121C178.657 4.99121 179.496 5.2487 180.106 5.76367C180.722 6.27865 181.029 6.9873 181.029 7.88965C181.029 8.91504 180.71 9.71257 180.072 10.2822C179.434 10.8519 178.555 11.1367 177.434 11.1367C176.937 11.1367 176.465 11.0889 176.019 10.9932C175.572 10.8929 175.198 10.7516 174.897 10.5693V9.86523C175.39 10.1159 175.827 10.2913 176.21 10.3916C176.593 10.4873 177.001 10.5352 177.434 10.5352C178.309 10.5352 179.01 10.305 179.539 9.84473C180.068 9.37988 180.332 8.75326 180.332 7.96484C180.332 7.22201 180.075 6.63867 179.56 6.21484C179.045 5.79102 178.345 5.5791 177.461 5.5791C176.868 5.5791 176.249 5.66797 175.602 5.8457L175.191 5.5791L175.588 1.00586H180.4V1.66211H176.23L175.923 5.18945C176.634 5.05729 177.19 4.99121 177.591 4.99121ZM189.13 5.97559C189.13 7.73014 188.861 9.02897 188.323 9.87207C187.79 10.7152 186.981 11.1367 185.896 11.1367C184.853 11.1367 184.06 10.7038 183.518 9.83789C182.975 8.96745 182.704 7.68001 182.704 5.97559C182.704 4.2347 182.966 2.94499 183.49 2.10645C184.019 1.2679 184.821 0.848633 185.896 0.848633C186.949 0.848633 187.751 1.28385 188.303 2.1543C188.854 3.02018 189.13 4.29395 189.13 5.97559ZM183.442 5.97559C183.442 7.52507 183.645 8.67122 184.051 9.41406C184.456 10.1523 185.072 10.5215 185.896 10.5215C186.758 10.5215 187.384 10.1387 187.776 9.37305C188.173 8.60742 188.371 7.47493 188.371 5.97559C188.371 4.49902 188.173 3.37793 187.776 2.6123C187.384 1.84668 186.758 1.46387 185.896 1.46387C185.035 1.46387 184.411 1.84668 184.023 2.6123C183.636 3.37793 183.442 4.49902 183.442 5.97559ZM193.587 4.99121C194.653 4.99121 195.492 5.2487 196.103 5.76367C196.718 6.27865 197.025 6.9873 197.025 7.88965C197.025 8.91504 196.706 9.71257 196.068 10.2822C195.43 10.8519 194.551 11.1367 193.43 11.1367C192.933 11.1367 192.461 11.0889 192.015 10.9932C191.568 10.8929 191.194 10.7516 190.894 10.5693V9.86523C191.386 10.1159 191.823 10.2913 192.206 10.3916C192.589 10.4873 192.997 10.5352 193.43 10.5352C194.305 10.5352 195.007 10.305 195.535 9.84473C196.064 9.37988 196.328 8.75326 196.328 7.96484C196.328 7.22201 196.071 6.63867 195.556 6.21484C195.041 5.79102 194.341 5.5791 193.457 5.5791C192.865 5.5791 192.245 5.66797 191.598 5.8457L191.188 5.5791L191.584 1.00586H196.396V1.66211H192.227L191.919 5.18945C192.63 5.05729 193.186 4.99121 193.587 4.99121ZM205.126 5.97559C205.126 7.73014 204.857 9.02897 204.319 9.87207C203.786 10.7152 202.977 11.1367 201.893 11.1367C200.849 11.1367 200.056 10.7038 199.514 9.83789C198.971 8.96745 198.7 7.68001 198.7 5.97559C198.7 4.2347 198.962 2.94499 199.486 2.10645C200.015 1.2679 200.817 0.848633 201.893 0.848633C202.945 0.848633 203.747 1.28385 204.299 2.1543C204.85 3.02018 205.126 4.29395 205.126 5.97559ZM199.438 5.97559C199.438 7.52507 199.641 8.67122 200.047 9.41406C200.452 10.1523 201.068 10.5215 201.893 10.5215C202.754 10.5215 203.381 10.1387 203.772 9.37305C204.169 8.60742 204.367 7.47493 204.367 5.97559C204.367 4.49902 204.169 3.37793 203.772 2.6123C203.381 1.84668 202.754 1.46387 201.893 1.46387C201.031 1.46387 200.407 1.84668 200.02 2.6123C199.632 3.37793 199.438 4.49902 199.438 5.97559ZM206.541 7.5V6.93945H209.788V7.5H206.541ZM211.319 6.74121C211.319 5.44238 211.495 4.35091 211.846 3.4668C212.201 2.57812 212.702 1.9196 213.35 1.49121C214.001 1.06283 214.785 0.848633 215.701 0.848633C216.13 0.848633 216.521 0.901042 216.877 1.00586V1.60742C216.544 1.48438 216.143 1.42285 215.674 1.42285C214.548 1.42285 213.671 1.82845 213.042 2.63965C212.418 3.45085 212.067 4.63118 211.989 6.18066H212.078C212.424 5.73405 212.821 5.39681 213.268 5.16895C213.714 4.94108 214.186 4.82715 214.683 4.82715C215.617 4.82715 216.346 5.09375 216.87 5.62695C217.399 6.16016 217.663 6.89616 217.663 7.83496C217.663 8.85579 217.385 9.66243 216.829 10.2549C216.278 10.8428 215.533 11.1367 214.594 11.1367C213.582 11.1367 212.782 10.7516 212.194 9.98145C211.611 9.20671 211.319 8.12663 211.319 6.74121ZM214.594 10.5352C215.341 10.5352 215.922 10.3005 216.337 9.83105C216.752 9.36165 216.959 8.69173 216.959 7.82129C216.959 7.05566 216.754 6.45866 216.344 6.03027C215.934 5.60189 215.375 5.3877 214.669 5.3877C214.204 5.3877 213.771 5.49023 213.37 5.69531C212.974 5.90039 212.657 6.17383 212.42 6.51562C212.183 6.85286 212.064 7.19922 212.064 7.55469C212.064 8.06055 212.176 8.54818 212.399 9.01758C212.627 9.48242 212.933 9.85156 213.315 10.125C213.703 10.3984 214.129 10.5352 214.594 10.5352ZM225.634 5.97559C225.634 7.73014 225.365 9.02897 224.827 9.87207C224.294 10.7152 223.485 11.1367 222.4 11.1367C221.357 11.1367 220.564 10.7038 220.021 9.83789C219.479 8.96745 219.208 7.68001 219.208 5.97559C219.208 4.2347 219.47 2.94499 219.994 2.10645C220.523 1.2679 221.325 0.848633 222.4 0.848633C223.453 0.848633 224.255 1.28385 224.807 2.1543C225.358 3.02018 225.634 4.29395 225.634 5.97559ZM219.946 5.97559C219.946 7.52507 220.149 8.67122 220.555 9.41406C220.96 10.1523 221.576 10.5215 222.4 10.5215C223.262 10.5215 223.888 10.1387 224.28 9.37305C224.677 8.60742 224.875 7.47493 224.875 5.97559C224.875 4.49902 224.677 3.37793 224.28 2.6123C223.888 1.84668 223.262 1.46387 222.4 1.46387C221.539 1.46387 220.915 1.84668 220.527 2.6123C220.14 3.37793 219.946 4.49902 219.946 5.97559ZM228.703 11L232.818 1.66211H227.165V1.00586H233.632V1.50488L229.503 11H228.703ZM241.63 5.97559C241.63 7.73014 241.361 9.02897 240.823 9.87207C240.29 10.7152 239.481 11.1367 238.396 11.1367C237.353 11.1367 236.56 10.7038 236.018 9.83789C235.475 8.96745 235.204 7.68001 235.204 5.97559C235.204 4.2347 235.466 2.94499 235.99 2.10645C236.519 1.2679 237.321 0.848633 238.396 0.848633C239.449 0.848633 240.251 1.28385 240.803 2.1543C241.354 3.02018 241.63 4.29395 241.63 5.97559ZM235.942 5.97559C235.942 7.52507 236.145 8.67122 236.551 9.41406C236.956 10.1523 237.572 10.5215 238.396 10.5215C239.258 10.5215 239.884 10.1387 240.276 9.37305C240.673 8.60742 240.871 7.47493 240.871 5.97559C240.871 4.49902 240.673 3.37793 240.276 2.6123C239.884 1.84668 239.258 1.46387 238.396 1.46387C237.535 1.46387 236.911 1.84668 236.523 2.6123C236.136 3.37793 235.942 4.49902 235.942 5.97559ZM246.395 0.834961C247.242 0.834961 247.924 1.05143 248.438 1.48438C248.958 1.91732 249.218 2.50293 249.218 3.24121C249.218 3.75163 249.056 4.2028 248.732 4.59473C248.413 4.98665 247.894 5.34896 247.174 5.68164C248.049 6.04167 248.664 6.43587 249.02 6.86426C249.375 7.29264 249.553 7.81217 249.553 8.42285C249.553 9.24772 249.263 9.90625 248.685 10.3984C248.11 10.8906 247.338 11.1367 246.367 11.1367C245.36 11.1367 244.588 10.9066 244.05 10.4463C243.512 9.986 243.243 9.31608 243.243 8.43652C243.243 7.83952 243.432 7.31543 243.811 6.86426C244.189 6.41309 244.774 6.02799 245.567 5.70898C244.834 5.36263 244.316 4.99805 244.016 4.61523C243.715 4.22786 243.564 3.7653 243.564 3.22754C243.564 2.74902 243.685 2.32975 243.927 1.96973C244.168 1.60514 244.506 1.32487 244.938 1.12891C245.376 0.932943 245.861 0.834961 246.395 0.834961ZM243.94 8.53906C243.94 9.16797 244.152 9.6556 244.576 10.002C245.005 10.3483 245.602 10.5215 246.367 10.5215C247.115 10.5215 247.716 10.3392 248.172 9.97461C248.628 9.60547 248.855 9.10645 248.855 8.47754C248.855 7.91243 248.675 7.45443 248.315 7.10352C247.96 6.74805 247.272 6.37663 246.251 5.98926C245.412 6.31283 244.818 6.67057 244.467 7.0625C244.116 7.45443 243.94 7.94661 243.94 8.53906ZM246.381 1.4502C245.738 1.4502 245.221 1.6097 244.829 1.92871C244.442 2.24316 244.248 2.67611 244.248 3.22754C244.248 3.54655 244.319 3.8291 244.46 4.0752C244.606 4.31673 244.813 4.53776 245.082 4.73828C245.355 4.93424 245.811 5.16439 246.449 5.42871C247.192 5.1416 247.725 4.82487 248.049 4.47852C248.372 4.13216 248.534 3.71517 248.534 3.22754C248.534 2.68066 248.34 2.24772 247.953 1.92871C247.57 1.6097 247.046 1.4502 246.381 1.4502ZM257.626 5.97559C257.626 7.73014 257.357 9.02897 256.819 9.87207C256.286 10.7152 255.477 11.1367 254.393 11.1367C253.349 11.1367 252.556 10.7038 252.014 9.83789C251.471 8.96745 251.2 7.68001 251.2 5.97559C251.2 4.2347 251.462 2.94499 251.986 2.10645C252.515 1.2679 253.317 0.848633 254.393 0.848633C255.445 0.848633 256.247 1.28385 256.799 2.1543C257.35 3.02018 257.626 4.29395 257.626 5.97559ZM251.938 5.97559C251.938 7.52507 252.141 8.67122 252.547 9.41406C252.952 10.1523 253.568 10.5215 254.393 10.5215C255.254 10.5215 255.881 10.1387 256.272 9.37305C256.669 8.60742 256.867 7.47493 256.867 5.97559C256.867 4.49902 256.669 3.37793 256.272 2.6123C255.881 1.84668 255.254 1.46387 254.393 1.46387C253.531 1.46387 252.907 1.84668 252.52 2.6123C252.132 3.37793 251.938 4.49902 251.938 5.97559Z" fill="white"/>
</svg>
