<svg width="282" height="15" viewBox="0 0 282 15" fill="none" xmlns="http://www.w3.org/2000/svg">
<path d="M2.7793 14H0.696289V1.15039H7.94727V2.92578H2.7793V6.94238H7.62207V8.72656H2.7793V14ZM12.1221 14H10.0566V4.2793H12.1221V14ZM9.93359 1.7041C9.93359 1.33496 10.0332 1.05078 10.2324 0.851562C10.4375 0.652344 10.7275 0.552734 11.1025 0.552734C11.4658 0.552734 11.7471 0.652344 11.9463 0.851562C12.1514 1.05078 12.2539 1.33496 12.2539 1.7041C12.2539 2.05566 12.1514 2.33398 11.9463 2.53906C11.7471 2.73828 11.4658 2.83789 11.1025 2.83789C10.7275 2.83789 10.4375 2.73828 10.2324 2.53906C10.0332 2.33398 9.93359 2.05566 9.93359 1.7041ZM23.6357 14H21.5615V8.02344C21.5615 7.27344 21.4092 6.71387 21.1045 6.34473C20.8057 5.97559 20.3281 5.79102 19.6719 5.79102C18.7988 5.79102 18.1602 6.04883 17.7559 6.56445C17.3516 7.08008 17.1494 7.94434 17.1494 9.15723V14H15.084V4.2793H16.7012L16.9912 5.55371H17.0967C17.3896 5.09082 17.8057 4.7334 18.3447 4.48145C18.8838 4.22949 19.4814 4.10352 20.1377 4.10352C22.4697 4.10352 23.6357 5.29004 23.6357 7.66309V14ZM29.7881 14.1758C28.5752 14.1758 27.6289 13.7363 26.9492 12.8574C26.2695 11.9785 25.9297 10.7451 25.9297 9.15723C25.9297 7.56348 26.2725 6.32422 26.958 5.43945C27.6494 4.54883 28.6045 4.10352 29.8232 4.10352C31.1006 4.10352 32.0732 4.5752 32.7412 5.51855H32.8467C32.7471 4.82129 32.6973 4.27051 32.6973 3.86621V0.324219H34.7715V14H33.1543L32.7939 12.7256H32.6973C32.0352 13.6924 31.0654 14.1758 29.7881 14.1758ZM30.3418 12.5059C31.1914 12.5059 31.8096 12.2686 32.1963 11.7939C32.583 11.3135 32.7822 10.5371 32.7939 9.46484V9.1748C32.7939 7.9502 32.5947 7.08008 32.1963 6.56445C31.7979 6.04883 31.1738 5.79102 30.3242 5.79102C29.5977 5.79102 29.0381 6.08691 28.6455 6.67871C28.2529 7.26465 28.0566 8.10254 28.0566 9.19238C28.0566 10.2705 28.2471 11.0938 28.6279 11.6621C29.0088 12.2246 29.5801 12.5059 30.3418 12.5059ZM47.3662 4.10352C48.5791 4.10352 49.5225 4.54297 50.1963 5.42188C50.876 6.30078 51.2158 7.53418 51.2158 9.12207C51.2158 10.7158 50.873 11.958 50.1875 12.8486C49.502 13.7334 48.5498 14.1758 47.3311 14.1758C46.1006 14.1758 45.1455 13.7334 44.4658 12.8486H44.3252L43.9473 14H42.4004V0.324219H44.4658V3.57617C44.4658 3.81641 44.4541 4.17383 44.4307 4.64844C44.4072 5.12305 44.3896 5.4248 44.3779 5.55371H44.4658C45.1221 4.58691 46.0889 4.10352 47.3662 4.10352ZM46.8301 5.79102C45.998 5.79102 45.3975 6.03711 45.0283 6.5293C44.665 7.01562 44.4775 7.83301 44.4658 8.98145V9.12207C44.4658 10.3057 44.6533 11.1641 45.0283 11.6973C45.4033 12.2246 46.0156 12.4883 46.8652 12.4883C47.5977 12.4883 48.1514 12.1982 48.5264 11.6182C48.9072 11.0381 49.0977 10.2002 49.0977 9.10449C49.0977 6.89551 48.3418 5.79102 46.8301 5.79102ZM57.8604 14.1758C56.3486 14.1758 55.165 13.7363 54.3096 12.8574C53.46 11.9727 53.0352 10.7568 53.0352 9.20996C53.0352 7.62207 53.4307 6.37402 54.2217 5.46582C55.0127 4.55762 56.0996 4.10352 57.4824 4.10352C58.7656 4.10352 59.7793 4.49316 60.5234 5.27246C61.2676 6.05176 61.6396 7.12402 61.6396 8.48926V9.60547H55.1621C55.1914 10.5488 55.4463 11.2754 55.9268 11.7852C56.4072 12.2891 57.084 12.541 57.957 12.541C58.5312 12.541 59.0645 12.4883 59.5566 12.3828C60.0547 12.2715 60.5879 12.0898 61.1562 11.8379V13.5166C60.6523 13.7568 60.1426 13.9268 59.627 14.0264C59.1113 14.126 58.5225 14.1758 57.8604 14.1758ZM57.4824 5.66797C56.8262 5.66797 56.2988 5.87598 55.9004 6.29199C55.5078 6.70801 55.2734 7.31445 55.1973 8.11133H59.6094C59.5977 7.30859 59.4043 6.70215 59.0293 6.29199C58.6543 5.87598 58.1387 5.66797 57.4824 5.66797ZM70.5166 11.2314C70.5166 12.1807 70.1709 12.9102 69.4795 13.4199C68.7881 13.9238 67.7979 14.1758 66.5088 14.1758C65.2139 14.1758 64.1738 13.9795 63.3887 13.5869V11.8027C64.5312 12.3301 65.5947 12.5938 66.5791 12.5938C67.8506 12.5938 68.4863 12.21 68.4863 11.4424C68.4863 11.1963 68.416 10.9912 68.2754 10.8271C68.1348 10.6631 67.9033 10.4932 67.5811 10.3174C67.2588 10.1416 66.8105 9.94238 66.2363 9.71973C65.1172 9.28613 64.3584 8.85254 63.96 8.41895C63.5674 7.98535 63.3711 7.42285 63.3711 6.73145C63.3711 5.89941 63.7051 5.25488 64.373 4.79785C65.0469 4.33496 65.9609 4.10352 67.1152 4.10352C68.2578 4.10352 69.3389 4.33496 70.3584 4.79785L69.6904 6.35352C68.6416 5.91992 67.7598 5.70312 67.0449 5.70312C65.9551 5.70312 65.4102 6.01367 65.4102 6.63477C65.4102 6.93945 65.5508 7.19727 65.832 7.4082C66.1191 7.61914 66.7402 7.90918 67.6953 8.27832C68.498 8.58887 69.0811 8.87305 69.4443 9.13086C69.8076 9.38867 70.0771 9.6875 70.2529 10.0273C70.4287 10.3613 70.5166 10.7627 70.5166 11.2314ZM76.3789 12.5059C76.8828 12.5059 77.3867 12.4268 77.8906 12.2686V13.8242C77.6621 13.9238 77.3662 14.0059 77.0029 14.0703C76.6455 14.1406 76.2734 14.1758 75.8867 14.1758C73.9297 14.1758 72.9512 13.1445 72.9512 11.082V5.84375H71.624V4.92969L73.0479 4.17383L73.751 2.11719H75.0254V4.2793H77.7939V5.84375H75.0254V11.0469C75.0254 11.5449 75.1484 11.9141 75.3945 12.1543C75.6465 12.3887 75.9746 12.5059 76.3789 12.5059ZM90.2041 2.76758C88.9971 2.76758 88.0479 3.19531 87.3564 4.05078C86.665 4.90625 86.3193 6.08691 86.3193 7.59277C86.3193 9.16895 86.6504 10.3613 87.3125 11.1699C87.9805 11.9785 88.9443 12.3828 90.2041 12.3828C90.749 12.3828 91.2764 12.3301 91.7861 12.2246C92.2959 12.1133 92.8262 11.9727 93.377 11.8027V13.6045C92.3691 13.9854 91.2266 14.1758 89.9492 14.1758C88.0684 14.1758 86.624 13.6074 85.6162 12.4707C84.6084 11.3281 84.1045 9.69629 84.1045 7.5752C84.1045 6.23926 84.3477 5.07031 84.834 4.06836C85.3262 3.06641 86.0352 2.29883 86.9609 1.76562C87.8867 1.23242 88.9736 0.96582 90.2217 0.96582C91.5342 0.96582 92.7471 1.24121 93.8604 1.79199L93.1045 3.54102C92.6709 3.33594 92.2109 3.15723 91.7246 3.00488C91.2441 2.84668 90.7373 2.76758 90.2041 2.76758ZM104.548 9.12207C104.548 10.71 104.141 11.9492 103.326 12.8398C102.512 13.7305 101.378 14.1758 99.9248 14.1758C99.0166 14.1758 98.2139 13.9707 97.5166 13.5605C96.8193 13.1504 96.2832 12.5615 95.9082 11.7939C95.5332 11.0264 95.3457 10.1357 95.3457 9.12207C95.3457 7.5459 95.75 6.31543 96.5586 5.43066C97.3672 4.5459 98.5068 4.10352 99.9775 4.10352C101.384 4.10352 102.497 4.55762 103.317 5.46582C104.138 6.36816 104.548 7.58691 104.548 9.12207ZM97.4727 9.12207C97.4727 11.3662 98.3018 12.4883 99.96 12.4883C101.601 12.4883 102.421 11.3662 102.421 9.12207C102.421 6.90137 101.595 5.79102 99.9424 5.79102C99.0752 5.79102 98.4453 6.07812 98.0527 6.65234C97.666 7.22656 97.4727 8.0498 97.4727 9.12207ZM115.481 14H113.407V8.02344C113.407 7.27344 113.255 6.71387 112.95 6.34473C112.651 5.97559 112.174 5.79102 111.518 5.79102C110.645 5.79102 110.006 6.04883 109.602 6.56445C109.197 7.08008 108.995 7.94434 108.995 9.15723V14H106.93V4.2793H108.547L108.837 5.55371H108.942C109.235 5.09082 109.651 4.7334 110.19 4.48145C110.729 4.22949 111.327 4.10352 111.983 4.10352C114.315 4.10352 115.481 5.29004 115.481 7.66309V14ZM124.886 11.2314C124.886 12.1807 124.54 12.9102 123.849 13.4199C123.157 13.9238 122.167 14.1758 120.878 14.1758C119.583 14.1758 118.543 13.9795 117.758 13.5869V11.8027C118.9 12.3301 119.964 12.5938 120.948 12.5938C122.22 12.5938 122.855 12.21 122.855 11.4424C122.855 11.1963 122.785 10.9912 122.645 10.8271C122.504 10.6631 122.272 10.4932 121.95 10.3174C121.628 10.1416 121.18 9.94238 120.605 9.71973C119.486 9.28613 118.728 8.85254 118.329 8.41895C117.937 7.98535 117.74 7.42285 117.74 6.73145C117.74 5.89941 118.074 5.25488 118.742 4.79785C119.416 4.33496 120.33 4.10352 121.484 4.10352C122.627 4.10352 123.708 4.33496 124.728 4.79785L124.06 6.35352C123.011 5.91992 122.129 5.70312 121.414 5.70312C120.324 5.70312 119.779 6.01367 119.779 6.63477C119.779 6.93945 119.92 7.19727 120.201 7.4082C120.488 7.61914 121.109 7.90918 122.064 8.27832C122.867 8.58887 123.45 8.87305 123.813 9.13086C124.177 9.38867 124.446 9.6875 124.622 10.0273C124.798 10.3613 124.886 10.7627 124.886 11.2314ZM130.748 12.5059C131.252 12.5059 131.756 12.4268 132.26 12.2686V13.8242C132.031 13.9238 131.735 14.0059 131.372 14.0703C131.015 14.1406 130.643 14.1758 130.256 14.1758C128.299 14.1758 127.32 13.1445 127.32 11.082V5.84375H125.993V4.92969L127.417 4.17383L128.12 2.11719H129.395V4.2793H132.163V5.84375H129.395V11.0469C129.395 11.5449 129.518 11.9141 129.764 12.1543C130.016 12.3887 130.344 12.5059 130.748 12.5059ZM139.142 4.10352C139.558 4.10352 139.9 4.13281 140.17 4.19141L139.968 6.11621C139.675 6.0459 139.37 6.01074 139.054 6.01074C138.228 6.01074 137.557 6.28027 137.041 6.81934C136.531 7.3584 136.276 8.05859 136.276 8.91992V14H134.211V4.2793H135.828L136.101 5.99316H136.206C136.528 5.41309 136.947 4.95312 137.463 4.61328C137.984 4.27344 138.544 4.10352 139.142 4.10352ZM148.836 14L148.546 12.7256H148.44C148.153 13.1768 147.743 13.5312 147.21 13.7891C146.683 14.0469 146.079 14.1758 145.399 14.1758C144.222 14.1758 143.343 13.8828 142.763 13.2969C142.183 12.7109 141.893 11.8232 141.893 10.6338V4.2793H143.976V10.2734C143.976 11.0176 144.128 11.5771 144.433 11.9521C144.737 12.3213 145.215 12.5059 145.865 12.5059C146.732 12.5059 147.368 12.248 147.772 11.7324C148.183 11.2109 148.388 10.3408 148.388 9.12207V4.2793H150.462V14H148.836ZM157.326 14.1758C155.855 14.1758 154.736 13.748 153.969 12.8926C153.207 12.0312 152.826 10.7979 152.826 9.19238C152.826 7.55762 153.225 6.30078 154.021 5.42188C154.824 4.54297 155.981 4.10352 157.493 4.10352C158.519 4.10352 159.441 4.29395 160.262 4.6748L159.638 6.33594C158.765 5.99609 158.044 5.82617 157.476 5.82617C155.794 5.82617 154.953 6.94238 154.953 9.1748C154.953 10.2646 155.161 11.085 155.577 11.6357C155.999 12.1807 156.614 12.4531 157.423 12.4531C158.343 12.4531 159.213 12.2246 160.033 11.7676V13.5693C159.664 13.7861 159.269 13.9414 158.847 14.0352C158.431 14.1289 157.924 14.1758 157.326 14.1758ZM165.939 12.5059C166.443 12.5059 166.947 12.4268 167.451 12.2686V13.8242C167.223 13.9238 166.927 14.0059 166.563 14.0703C166.206 14.1406 165.834 14.1758 165.447 14.1758C163.49 14.1758 162.512 13.1445 162.512 11.082V5.84375H161.185V4.92969L162.608 4.17383L163.312 2.11719H164.586V4.2793H167.354V5.84375H164.586V11.0469C164.586 11.5449 164.709 11.9141 164.955 12.1543C165.207 12.3887 165.535 12.5059 165.939 12.5059ZM171.468 14H169.402V4.2793H171.468V14ZM169.279 1.7041C169.279 1.33496 169.379 1.05078 169.578 0.851562C169.783 0.652344 170.073 0.552734 170.448 0.552734C170.812 0.552734 171.093 0.652344 171.292 0.851562C171.497 1.05078 171.6 1.33496 171.6 1.7041C171.6 2.05566 171.497 2.33398 171.292 2.53906C171.093 2.73828 170.812 2.83789 170.448 2.83789C170.073 2.83789 169.783 2.73828 169.578 2.53906C169.379 2.33398 169.279 2.05566 169.279 1.7041ZM183.052 9.12207C183.052 10.71 182.645 11.9492 181.83 12.8398C181.016 13.7305 179.882 14.1758 178.429 14.1758C177.521 14.1758 176.718 13.9707 176.021 13.5605C175.323 13.1504 174.787 12.5615 174.412 11.7939C174.037 11.0264 173.85 10.1357 173.85 9.12207C173.85 7.5459 174.254 6.31543 175.062 5.43066C175.871 4.5459 177.011 4.10352 178.481 4.10352C179.888 4.10352 181.001 4.55762 181.821 5.46582C182.642 6.36816 183.052 7.58691 183.052 9.12207ZM175.977 9.12207C175.977 11.3662 176.806 12.4883 178.464 12.4883C180.104 12.4883 180.925 11.3662 180.925 9.12207C180.925 6.90137 180.099 5.79102 178.446 5.79102C177.579 5.79102 176.949 6.07812 176.557 6.65234C176.17 7.22656 175.977 8.0498 175.977 9.12207ZM193.985 14H191.911V8.02344C191.911 7.27344 191.759 6.71387 191.454 6.34473C191.155 5.97559 190.678 5.79102 190.021 5.79102C189.148 5.79102 188.51 6.04883 188.105 6.56445C187.701 7.08008 187.499 7.94434 187.499 9.15723V14H185.434V4.2793H187.051L187.341 5.55371H187.446C187.739 5.09082 188.155 4.7334 188.694 4.48145C189.233 4.22949 189.831 4.10352 190.487 4.10352C192.819 4.10352 193.985 5.29004 193.985 7.66309V14ZM209.727 14H207.652V8.00586C207.652 7.26172 207.512 6.70801 207.23 6.34473C206.949 5.97559 206.51 5.79102 205.912 5.79102C205.115 5.79102 204.529 6.05176 204.154 6.57324C203.785 7.08887 203.601 7.9502 203.601 9.15723V14H201.535V4.2793H203.152L203.442 5.55371H203.548C203.817 5.09082 204.207 4.7334 204.717 4.48145C205.232 4.22949 205.798 4.10352 206.413 4.10352C207.907 4.10352 208.897 4.61328 209.384 5.63281H209.524C209.812 5.15234 210.216 4.77734 210.737 4.50781C211.259 4.23828 211.856 4.10352 212.53 4.10352C213.69 4.10352 214.534 4.39648 215.062 4.98242C215.595 5.56836 215.861 6.46191 215.861 7.66309V14H213.796V8.00586C213.796 7.26172 213.652 6.70801 213.365 6.34473C213.084 5.97559 212.645 5.79102 212.047 5.79102C211.244 5.79102 210.655 6.04297 210.28 6.54688C209.911 7.04492 209.727 7.8125 209.727 8.84961V14ZM224.826 14L224.413 12.6465H224.343C223.874 13.2383 223.402 13.6426 222.928 13.8594C222.453 14.0703 221.844 14.1758 221.1 14.1758C220.145 14.1758 219.397 13.918 218.858 13.4023C218.325 12.8867 218.059 12.1572 218.059 11.2139C218.059 10.2119 218.431 9.45605 219.175 8.94629C219.919 8.43652 221.053 8.1582 222.576 8.11133L224.255 8.05859V7.54004C224.255 6.91895 224.108 6.45605 223.815 6.15137C223.528 5.84082 223.08 5.68555 222.471 5.68555C221.973 5.68555 221.495 5.75879 221.038 5.90527C220.581 6.05176 220.142 6.22461 219.72 6.42383L219.052 4.94727C219.579 4.67188 220.156 4.46387 220.783 4.32324C221.41 4.17676 222.002 4.10352 222.559 4.10352C223.795 4.10352 224.727 4.37305 225.354 4.91211C225.986 5.45117 226.303 6.29785 226.303 7.45215V14H224.826ZM221.75 12.5938C222.5 12.5938 223.101 12.3857 223.552 11.9697C224.009 11.5479 224.237 10.959 224.237 10.2031V9.35938L222.989 9.41211C222.017 9.44727 221.308 9.61133 220.862 9.9043C220.423 10.1914 220.203 10.6338 220.203 11.2314C220.203 11.665 220.332 12.002 220.59 12.2422C220.848 12.4766 221.234 12.5938 221.75 12.5938ZM232.807 12.5059C233.311 12.5059 233.814 12.4268 234.318 12.2686V13.8242C234.09 13.9238 233.794 14.0059 233.431 14.0703C233.073 14.1406 232.701 14.1758 232.314 14.1758C230.357 14.1758 229.379 13.1445 229.379 11.082V5.84375H228.052V4.92969L229.476 4.17383L230.179 2.11719H231.453V4.2793H234.222V5.84375H231.453V11.0469C231.453 11.5449 231.576 11.9141 231.822 12.1543C232.074 12.3887 232.402 12.5059 232.807 12.5059ZM240.515 14.1758C239.003 14.1758 237.819 13.7363 236.964 12.8574C236.114 11.9727 235.689 10.7568 235.689 9.20996C235.689 7.62207 236.085 6.37402 236.876 5.46582C237.667 4.55762 238.754 4.10352 240.137 4.10352C241.42 4.10352 242.434 4.49316 243.178 5.27246C243.922 6.05176 244.294 7.12402 244.294 8.48926V9.60547H237.816C237.846 10.5488 238.101 11.2754 238.581 11.7852C239.062 12.2891 239.738 12.541 240.611 12.541C241.186 12.541 241.719 12.4883 242.211 12.3828C242.709 12.2715 243.242 12.0898 243.811 11.8379V13.5166C243.307 13.7568 242.797 13.9268 242.281 14.0264C241.766 14.126 241.177 14.1758 240.515 14.1758ZM240.137 5.66797C239.48 5.66797 238.953 5.87598 238.555 6.29199C238.162 6.70801 237.928 7.31445 237.852 8.11133H242.264C242.252 7.30859 242.059 6.70215 241.684 6.29199C241.309 5.87598 240.793 5.66797 240.137 5.66797ZM251.571 4.10352C251.987 4.10352 252.33 4.13281 252.6 4.19141L252.397 6.11621C252.104 6.0459 251.8 6.01074 251.483 6.01074C250.657 6.01074 249.986 6.28027 249.471 6.81934C248.961 7.3584 248.706 8.05859 248.706 8.91992V14H246.641V4.2793H248.258L248.53 5.99316H248.636C248.958 5.41309 249.377 4.95312 249.893 4.61328C250.414 4.27344 250.974 4.10352 251.571 4.10352ZM256.476 14H254.41V4.2793H256.476V14ZM254.287 1.7041C254.287 1.33496 254.387 1.05078 254.586 0.851562C254.791 0.652344 255.081 0.552734 255.456 0.552734C255.819 0.552734 256.101 0.652344 256.3 0.851562C256.505 1.05078 256.607 1.33496 256.607 1.7041C256.607 2.05566 256.505 2.33398 256.3 2.53906C256.101 2.73828 255.819 2.83789 255.456 2.83789C255.081 2.83789 254.791 2.73828 254.586 2.53906C254.387 2.33398 254.287 2.05566 254.287 1.7041ZM265.52 14L265.106 12.6465H265.036C264.567 13.2383 264.096 13.6426 263.621 13.8594C263.146 14.0703 262.537 14.1758 261.793 14.1758C260.838 14.1758 260.091 13.918 259.552 13.4023C259.019 12.8867 258.752 12.1572 258.752 11.2139C258.752 10.2119 259.124 9.45605 259.868 8.94629C260.612 8.43652 261.746 8.1582 263.27 8.11133L264.948 8.05859V7.54004C264.948 6.91895 264.802 6.45605 264.509 6.15137C264.222 5.84082 263.773 5.68555 263.164 5.68555C262.666 5.68555 262.188 5.75879 261.731 5.90527C261.274 6.05176 260.835 6.22461 260.413 6.42383L259.745 4.94727C260.272 4.67188 260.85 4.46387 261.477 4.32324C262.104 4.17676 262.695 4.10352 263.252 4.10352C264.488 4.10352 265.42 4.37305 266.047 4.91211C266.68 5.45117 266.996 6.29785 266.996 7.45215V14H265.52ZM262.443 12.5938C263.193 12.5938 263.794 12.3857 264.245 11.9697C264.702 11.5479 264.931 10.959 264.931 10.2031V9.35938L263.683 9.41211C262.71 9.44727 262.001 9.61133 261.556 9.9043C261.116 10.1914 260.896 10.6338 260.896 11.2314C260.896 11.665 261.025 12.002 261.283 12.2422C261.541 12.4766 261.928 12.5938 262.443 12.5938ZM271.944 14H269.879V0.324219H271.944V14ZM281.437 11.2314C281.437 12.1807 281.091 12.9102 280.399 13.4199C279.708 13.9238 278.718 14.1758 277.429 14.1758C276.134 14.1758 275.094 13.9795 274.309 13.5869V11.8027C275.451 12.3301 276.515 12.5938 277.499 12.5938C278.771 12.5938 279.406 12.21 279.406 11.4424C279.406 11.1963 279.336 10.9912 279.195 10.8271C279.055 10.6631 278.823 10.4932 278.501 10.3174C278.179 10.1416 277.73 9.94238 277.156 9.71973C276.037 9.28613 275.278 8.85254 274.88 8.41895C274.487 7.98535 274.291 7.42285 274.291 6.73145C274.291 5.89941 274.625 5.25488 275.293 4.79785C275.967 4.33496 276.881 4.10352 278.035 4.10352C279.178 4.10352 280.259 4.33496 281.278 4.79785L280.61 6.35352C279.562 5.91992 278.68 5.70312 277.965 5.70312C276.875 5.70312 276.33 6.01367 276.33 6.63477C276.33 6.93945 276.471 7.19727 276.752 7.4082C277.039 7.61914 277.66 7.90918 278.615 8.27832C279.418 8.58887 280.001 8.87305 280.364 9.13086C280.728 9.38867 280.997 9.6875 281.173 10.0273C281.349 10.3613 281.437 10.7627 281.437 11.2314Z" fill="#565656"/>
</svg>
