<svg width="45" height="19" viewBox="0 0 45 19" fill="none" xmlns="http://www.w3.org/2000/svg">
<path d="M0.696289 14V1.15039H2.79688V12.1982H8.2373V14H0.696289ZM18.8545 9.12207C18.8545 10.71 18.4473 11.9492 17.6328 12.8398C16.8184 13.7305 15.6846 14.1758 14.2314 14.1758C13.3232 14.1758 12.5205 13.9707 11.8232 13.5605C11.126 13.1504 10.5898 12.5615 10.2148 11.7939C9.83984 11.0264 9.65234 10.1357 9.65234 9.12207C9.65234 7.5459 10.0566 6.31543 10.8652 5.43066C11.6738 4.5459 12.8135 4.10352 14.2842 4.10352C15.6904 4.10352 16.8037 4.55762 17.624 5.46582C18.4443 6.36816 18.8545 7.58691 18.8545 9.12207ZM11.7793 9.12207C11.7793 11.3662 12.6084 12.4883 14.2666 12.4883C15.9072 12.4883 16.7275 11.3662 16.7275 9.12207C16.7275 6.90137 15.9014 5.79102 14.249 5.79102C13.3818 5.79102 12.752 6.07812 12.3594 6.65234C11.9727 7.22656 11.7793 8.0498 11.7793 9.12207ZM29.4453 4.2793V5.41309L27.7842 5.7207C27.9365 5.92578 28.0625 6.17773 28.1621 6.47656C28.2617 6.77539 28.3115 7.0918 28.3115 7.42578C28.3115 8.42773 27.9658 9.21582 27.2744 9.79004C26.583 10.3643 25.6309 10.6514 24.418 10.6514C24.1074 10.6514 23.8262 10.6279 23.5742 10.5811C23.1289 10.8564 22.9062 11.1787 22.9062 11.5479C22.9062 11.7705 23.0088 11.9375 23.2139 12.0488C23.4248 12.1602 23.8086 12.2158 24.3652 12.2158H26.0615C27.1338 12.2158 27.9482 12.4443 28.5049 12.9014C29.0615 13.3584 29.3398 14.0176 29.3398 14.8789C29.3398 15.9805 28.8857 16.8301 27.9775 17.4277C27.0693 18.0254 25.7568 18.3242 24.04 18.3242C22.7158 18.3242 21.7051 18.0898 21.0078 17.6211C20.3105 17.1523 19.9619 16.4844 19.9619 15.6172C19.9619 15.0195 20.1494 14.5156 20.5244 14.1055C20.9053 13.7012 21.4355 13.4199 22.1152 13.2617C21.8398 13.1445 21.6113 12.957 21.4297 12.6992C21.2539 12.4355 21.166 12.1602 21.166 11.873C21.166 11.5098 21.2686 11.2021 21.4736 10.9502C21.6787 10.6982 21.9834 10.4492 22.3877 10.2031C21.8838 9.98633 21.4736 9.63477 21.1572 9.14844C20.8467 8.65625 20.6914 8.08203 20.6914 7.42578C20.6914 6.37109 21.0225 5.55371 21.6846 4.97363C22.3525 4.39355 23.3018 4.10352 24.5322 4.10352C24.8076 4.10352 25.0947 4.12402 25.3936 4.16504C25.6982 4.2002 25.9268 4.23828 26.0791 4.2793H29.4453ZM21.8076 15.5117C21.8076 15.957 22.0068 16.2998 22.4053 16.54C22.8096 16.7803 23.375 16.9004 24.1016 16.9004C25.2266 16.9004 26.0645 16.7393 26.6152 16.417C27.166 16.0947 27.4414 15.667 27.4414 15.1338C27.4414 14.7119 27.2891 14.4102 26.9844 14.2285C26.6855 14.0527 26.126 13.9648 25.3057 13.9648H23.7412C23.1494 13.9648 22.6777 14.1025 22.3262 14.3779C21.9805 14.6592 21.8076 15.0371 21.8076 15.5117ZM22.6953 7.42578C22.6953 8.03516 22.8506 8.50391 23.1611 8.83203C23.4775 9.16016 23.9287 9.32422 24.5146 9.32422C25.71 9.32422 26.3076 8.68555 26.3076 7.4082C26.3076 6.77539 26.1582 6.28906 25.8594 5.94922C25.5664 5.60352 25.1182 5.43066 24.5146 5.43066C23.917 5.43066 23.4629 5.60059 23.1523 5.94043C22.8477 6.28027 22.6953 6.77539 22.6953 7.42578ZM33.3213 14H31.2559V4.2793H33.3213V14ZM31.1328 1.7041C31.1328 1.33496 31.2324 1.05078 31.4316 0.851562C31.6367 0.652344 31.9268 0.552734 32.3018 0.552734C32.665 0.552734 32.9463 0.652344 33.1455 0.851562C33.3506 1.05078 33.4531 1.33496 33.4531 1.7041C33.4531 2.05566 33.3506 2.33398 33.1455 2.53906C32.9463 2.73828 32.665 2.83789 32.3018 2.83789C31.9268 2.83789 31.6367 2.73828 31.4316 2.53906C31.2324 2.33398 31.1328 2.05566 31.1328 1.7041ZM44.835 14H42.7607V8.02344C42.7607 7.27344 42.6084 6.71387 42.3037 6.34473C42.0049 5.97559 41.5273 5.79102 40.8711 5.79102C39.998 5.79102 39.3594 6.04883 38.9551 6.56445C38.5508 7.08008 38.3486 7.94434 38.3486 9.15723V14H36.2832V4.2793H37.9004L38.1904 5.55371H38.2959C38.5889 5.09082 39.0049 4.7334 39.5439 4.48145C40.083 4.22949 40.6807 4.10352 41.3369 4.10352C43.6689 4.10352 44.835 5.29004 44.835 7.66309V14Z" fill="white"/>
</svg>
