<svg width="148" height="13" viewBox="0 0 148 13" fill="none" xmlns="http://www.w3.org/2000/svg">
<path d="M9.52734 11V6.12598C9.52734 5.40137 9.38607 4.87272 9.10352 4.54004C8.82096 4.20736 8.38802 4.04102 7.80469 4.04102C7.04362 4.04102 6.48079 4.25065 6.11621 4.66992C5.75163 5.08919 5.56934 5.74772 5.56934 6.64551V11H4.87891V5.9209C4.87891 4.66764 4.30469 4.04102 3.15625 4.04102C2.37695 4.04102 1.80957 4.26888 1.4541 4.72461C1.09863 5.17578 0.920898 5.90039 0.920898 6.89844V11H0.244141V3.56934H0.804688L0.948242 4.58789H0.989258C1.19434 4.21875 1.486 3.93392 1.86426 3.7334C2.24251 3.52832 2.65951 3.42578 3.11523 3.42578C4.28646 3.42578 5.03841 3.86556 5.37109 4.74512H5.39844C5.63997 4.32129 5.96354 3.99544 6.36914 3.76758C6.7793 3.53971 7.24414 3.42578 7.76367 3.42578C8.57487 3.42578 9.18327 3.64225 9.58887 4.0752C9.99447 4.50814 10.1973 5.19629 10.1973 6.13965V11H9.52734ZM17.1152 11L16.9443 9.82422H16.8896C16.516 10.3027 16.1309 10.6423 15.7344 10.8428C15.3424 11.0387 14.8776 11.1367 14.3398 11.1367C13.6107 11.1367 13.0433 10.9499 12.6377 10.5762C12.2321 10.2025 12.0293 9.68522 12.0293 9.02441C12.0293 8.2998 12.3301 7.73698 12.9316 7.33594C13.5378 6.9349 14.4128 6.72298 15.5566 6.7002L16.9717 6.65918V6.16699C16.9717 5.46061 16.8281 4.92741 16.541 4.56738C16.2539 4.20736 15.7913 4.02734 15.1533 4.02734C14.4652 4.02734 13.752 4.21875 13.0137 4.60156L12.7607 4.01367C13.5765 3.63086 14.3831 3.43945 15.1807 3.43945C15.9964 3.43945 16.6048 3.65137 17.0059 4.0752C17.4115 4.49902 17.6143 5.15983 17.6143 6.05762V11H17.1152ZM14.3809 10.5215C15.1738 10.5215 15.7982 10.2959 16.2539 9.84473C16.7142 9.389 16.9443 8.75781 16.9443 7.95117V7.21973L15.6455 7.27441C14.6019 7.32454 13.8568 7.48861 13.4102 7.7666C12.9681 8.04004 12.7471 8.46842 12.7471 9.05176C12.7471 9.5166 12.8883 9.87891 13.1709 10.1387C13.458 10.3939 13.8613 10.5215 14.3809 10.5215ZM20.7041 11H20.0273V3.56934H20.7041V11ZM19.9316 1.50488C19.9316 1.06738 20.0752 0.848633 20.3623 0.848633C20.5036 0.848633 20.613 0.905599 20.6904 1.01953C20.7725 1.13346 20.8135 1.29525 20.8135 1.50488C20.8135 1.70996 20.7725 1.87174 20.6904 1.99023C20.613 2.10872 20.5036 2.16797 20.3623 2.16797C20.0752 2.16797 19.9316 1.94694 19.9316 1.50488ZM23.876 11H23.1992V0.363281H23.876V11ZM26.2344 10.4668C26.2344 10.0202 26.4167 9.79688 26.7812 9.79688C27.1549 9.79688 27.3418 10.0202 27.3418 10.4668C27.3418 10.9134 27.1549 11.1367 26.7812 11.1367C26.4167 11.1367 26.2344 10.9134 26.2344 10.4668ZM26.2344 4.3623C26.2344 3.91569 26.4167 3.69238 26.7812 3.69238C27.1549 3.69238 27.3418 3.91569 27.3418 4.3623C27.3418 4.60384 27.2871 4.77702 27.1777 4.88184C27.0729 4.98665 26.9408 5.03906 26.7812 5.03906C26.6263 5.03906 26.4964 4.98665 26.3916 4.88184C26.2868 4.77702 26.2344 4.60384 26.2344 4.3623ZM36.3105 11.1367C35.2487 11.1367 34.417 10.8018 33.8154 10.1318C33.2139 9.46191 32.9131 8.52767 32.9131 7.3291C32.9131 6.09863 33.2253 5.1416 33.8496 4.45801C34.474 3.76986 35.3285 3.42578 36.4131 3.42578C37.0557 3.42578 37.6709 3.53743 38.2588 3.76074L38.0742 4.3623C37.4316 4.14811 36.8734 4.04102 36.3994 4.04102C35.488 4.04102 34.7975 4.32357 34.3281 4.88867C33.8587 5.44922 33.624 6.25814 33.624 7.31543C33.624 8.31803 33.8587 9.10417 34.3281 9.67383C34.7975 10.2389 35.4538 10.5215 36.2969 10.5215C36.9714 10.5215 37.598 10.4007 38.1768 10.1592V10.7881C37.7028 11.0205 37.0807 11.1367 36.3105 11.1367ZM46.1475 7.27441C46.1475 8.48665 45.8535 9.43457 45.2656 10.1182C44.6777 10.7972 43.8665 11.1367 42.832 11.1367C42.1803 11.1367 41.6061 10.9795 41.1094 10.665C40.6126 10.3506 40.2321 9.89941 39.9678 9.31152C39.7035 8.72363 39.5713 8.0446 39.5713 7.27441C39.5713 6.06217 39.8652 5.11882 40.4531 4.44434C41.041 3.7653 41.8477 3.42578 42.873 3.42578C43.8939 3.42578 44.6937 3.76986 45.2725 4.45801C45.8558 5.1416 46.1475 6.0804 46.1475 7.27441ZM40.2822 7.27441C40.2822 8.29525 40.5055 9.09277 40.9521 9.66699C41.4033 10.2367 42.0391 10.5215 42.8594 10.5215C43.6797 10.5215 44.3132 10.2367 44.7598 9.66699C45.2109 9.09277 45.4365 8.29525 45.4365 7.27441C45.4365 6.24902 45.2087 5.45378 44.7529 4.88867C44.3018 4.32357 43.666 4.04102 42.8457 4.04102C42.0254 4.04102 41.3919 4.32357 40.9453 4.88867C40.5033 5.44922 40.2822 6.24447 40.2822 7.27441ZM53.3867 11V6.18066C53.3867 5.43327 53.2295 4.89095 52.915 4.55371C52.6006 4.21191 52.113 4.04102 51.4521 4.04102C50.5635 4.04102 49.9118 4.2666 49.4971 4.71777C49.0869 5.16439 48.8818 5.89128 48.8818 6.89844V11H48.2051V3.56934H48.7793L48.9092 4.58789H48.9502C49.4333 3.81315 50.2923 3.42578 51.5273 3.42578C53.2135 3.42578 54.0566 4.3304 54.0566 6.13965V11H53.3867ZM58.4248 10.5352C58.8532 10.5352 59.2269 10.4987 59.5459 10.4258V10.9727C59.2178 11.082 58.8395 11.1367 58.4111 11.1367C57.7549 11.1367 57.2695 10.9613 56.9551 10.6104C56.6452 10.2594 56.4902 9.70801 56.4902 8.95605V4.15723H55.3896V3.76074L56.4902 3.45312L56.832 1.77148H57.1807V3.56934H59.3613V4.15723H57.1807V8.86035C57.1807 9.43001 57.2809 9.85156 57.4814 10.125C57.682 10.3984 57.9964 10.5352 58.4248 10.5352ZM65.6641 11L65.4932 9.82422H65.4385C65.0648 10.3027 64.6797 10.6423 64.2832 10.8428C63.8913 11.0387 63.4264 11.1367 62.8887 11.1367C62.1595 11.1367 61.5921 10.9499 61.1865 10.5762C60.7809 10.2025 60.5781 9.68522 60.5781 9.02441C60.5781 8.2998 60.8789 7.73698 61.4805 7.33594C62.0866 6.9349 62.9616 6.72298 64.1055 6.7002L65.5205 6.65918V6.16699C65.5205 5.46061 65.377 4.92741 65.0898 4.56738C64.8027 4.20736 64.3402 4.02734 63.7021 4.02734C63.014 4.02734 62.3008 4.21875 61.5625 4.60156L61.3096 4.01367C62.1253 3.63086 62.932 3.43945 63.7295 3.43945C64.5452 3.43945 65.1536 3.65137 65.5547 4.0752C65.9603 4.49902 66.1631 5.15983 66.1631 6.05762V11H65.6641ZM62.9297 10.5215C63.7227 10.5215 64.347 10.2959 64.8027 9.84473C65.263 9.389 65.4932 8.75781 65.4932 7.95117V7.21973L64.1943 7.27441C63.1507 7.32454 62.4056 7.48861 61.959 7.7666C61.5169 8.04004 61.2959 8.46842 61.2959 9.05176C61.2959 9.5166 61.4372 9.87891 61.7197 10.1387C62.0068 10.3939 62.4102 10.5215 62.9297 10.5215ZM71.543 11.1367C70.4811 11.1367 69.6494 10.8018 69.0479 10.1318C68.4463 9.46191 68.1455 8.52767 68.1455 7.3291C68.1455 6.09863 68.4577 5.1416 69.082 4.45801C69.7064 3.76986 70.5609 3.42578 71.6455 3.42578C72.2881 3.42578 72.9033 3.53743 73.4912 3.76074L73.3066 4.3623C72.6641 4.14811 72.1058 4.04102 71.6318 4.04102C70.7204 4.04102 70.0299 4.32357 69.5605 4.88867C69.0911 5.44922 68.8564 6.25814 68.8564 7.31543C68.8564 8.31803 69.0911 9.10417 69.5605 9.67383C70.0299 10.2389 70.6862 10.5215 71.5293 10.5215C72.2038 10.5215 72.8304 10.4007 73.4092 10.1592V10.7881C72.9352 11.0205 72.3132 11.1367 71.543 11.1367ZM77.1963 10.5352C77.6247 10.5352 77.9984 10.4987 78.3174 10.4258V10.9727C77.9893 11.082 77.611 11.1367 77.1826 11.1367C76.5264 11.1367 76.041 10.9613 75.7266 10.6104C75.4167 10.2594 75.2617 9.70801 75.2617 8.95605V4.15723H74.1611V3.76074L75.2617 3.45312L75.6035 1.77148H75.9521V3.56934H78.1328V4.15723H75.9521V8.86035C75.9521 9.43001 76.0524 9.85156 76.2529 10.125C76.4535 10.3984 76.7679 10.5352 77.1963 10.5352ZM90.3145 6.04395C90.3145 7.08301 90.1071 7.91699 89.6924 8.5459C89.2822 9.1748 88.724 9.48926 88.0176 9.48926C87.612 9.48926 87.2816 9.36621 87.0264 9.12012C86.7757 8.87402 86.6299 8.53906 86.5889 8.11523H86.5615C86.3656 8.57096 86.083 8.91504 85.7139 9.14746C85.3447 9.37533 84.9141 9.48926 84.4219 9.48926C83.7474 9.48926 83.2256 9.27051 82.8564 8.83301C82.4873 8.39095 82.3027 7.77344 82.3027 6.98047C82.3027 6.0599 82.5762 5.30794 83.123 4.72461C83.6745 4.13672 84.3923 3.84277 85.2764 3.84277C85.9053 3.84277 86.557 3.9362 87.2314 4.12305L87.0811 7.29492V7.5C87.0811 7.97396 87.1608 8.33171 87.3203 8.57324C87.4798 8.81022 87.7441 8.92871 88.1133 8.92871C88.5827 8.92871 88.9655 8.66439 89.2617 8.13574C89.5625 7.60254 89.7129 6.90983 89.7129 6.05762C89.7129 5.1735 89.5329 4.39876 89.1729 3.7334C88.8128 3.06803 88.2979 2.55762 87.6279 2.20215C86.9626 1.84212 86.2015 1.66211 85.3447 1.66211C84.2965 1.66211 83.3714 1.88997 82.5693 2.3457C81.7718 2.79688 81.1566 3.43717 80.7236 4.2666C80.2952 5.09603 80.0811 6.0485 80.0811 7.12402C80.0811 8.59147 80.4616 9.72624 81.2227 10.5283C81.9837 11.3258 83.0638 11.7246 84.4629 11.7246C84.8867 11.7246 85.3151 11.6836 85.748 11.6016C86.1855 11.5195 86.7142 11.36 87.334 11.123V11.7998C86.4089 12.1644 85.4655 12.3467 84.5039 12.3467C82.9134 12.3467 81.6738 11.891 80.7852 10.9795C79.8965 10.0635 79.4521 8.79199 79.4521 7.16504C79.4521 5.99837 79.6982 4.9502 80.1904 4.02051C80.6872 3.08626 81.3867 2.36165 82.2891 1.84668C83.196 1.33171 84.2191 1.07422 85.3584 1.07422C86.3382 1.07422 87.2041 1.27702 87.9561 1.68262C88.7126 2.08822 89.2936 2.66927 89.6992 3.42578C90.1094 4.17773 90.3145 5.05046 90.3145 6.04395ZM83.0068 6.9668C83.0068 7.61849 83.1322 8.1084 83.3828 8.43652C83.6335 8.76465 84.0299 8.92871 84.5723 8.92871C85.7344 8.92871 86.3564 8.1403 86.4385 6.56348L86.5479 4.57422C86.1878 4.45117 85.748 4.38965 85.2285 4.38965C84.5495 4.38965 84.0094 4.62435 83.6084 5.09375C83.2074 5.55859 83.0068 6.18294 83.0068 6.9668ZM96.8496 11L96.6787 9.82422H96.624C96.2503 10.3027 95.8652 10.6423 95.4688 10.8428C95.0768 11.0387 94.612 11.1367 94.0742 11.1367C93.3451 11.1367 92.7777 10.9499 92.3721 10.5762C91.9665 10.2025 91.7637 9.68522 91.7637 9.02441C91.7637 8.2998 92.0645 7.73698 92.666 7.33594C93.2721 6.9349 94.1471 6.72298 95.291 6.7002L96.7061 6.65918V6.16699C96.7061 5.46061 96.5625 4.92741 96.2754 4.56738C95.9883 4.20736 95.5257 4.02734 94.8877 4.02734C94.1995 4.02734 93.4863 4.21875 92.748 4.60156L92.4951 4.01367C93.3109 3.63086 94.1175 3.43945 94.915 3.43945C95.7308 3.43945 96.3392 3.65137 96.7402 4.0752C97.1458 4.49902 97.3486 5.15983 97.3486 6.05762V11H96.8496ZM94.1152 10.5215C94.9082 10.5215 95.5326 10.2959 95.9883 9.84473C96.4486 9.389 96.6787 8.75781 96.6787 7.95117V7.21973L95.3799 7.27441C94.3363 7.32454 93.5911 7.48861 93.1445 7.7666C92.7025 8.04004 92.4814 8.46842 92.4814 9.05176C92.4814 9.5166 92.6227 9.87891 92.9053 10.1387C93.1924 10.3939 93.5957 10.5215 94.1152 10.5215ZM101.587 7.17871L98.9961 3.56934H99.7754L101.99 6.7002L104.185 3.56934H104.93L102.38 7.17871L105.114 11H104.328L101.99 7.68457L99.6387 11H98.8936L101.587 7.17871ZM109.735 11.1367C108.655 11.1367 107.812 10.804 107.206 10.1387C106.604 9.47331 106.304 8.54134 106.304 7.34277C106.304 6.15788 106.595 5.20996 107.179 4.49902C107.762 3.78353 108.548 3.42578 109.537 3.42578C110.412 3.42578 111.103 3.73112 111.608 4.3418C112.114 4.95247 112.367 5.7819 112.367 6.83008V7.37695H107.015C107.024 8.39779 107.261 9.17708 107.726 9.71484C108.195 10.2526 108.865 10.5215 109.735 10.5215C110.159 10.5215 110.531 10.4919 110.85 10.4326C111.173 10.3734 111.581 10.2458 112.073 10.0498V10.665C111.654 10.8473 111.267 10.9704 110.911 11.0342C110.556 11.1025 110.164 11.1367 109.735 11.1367ZM109.537 4.02734C108.822 4.02734 108.247 4.26432 107.814 4.73828C107.382 5.20768 107.129 5.88672 107.056 6.77539H111.649C111.649 5.91406 111.463 5.24186 111.089 4.75879C110.715 4.27116 110.198 4.02734 109.537 4.02734ZM116.38 10.5352C116.808 10.5352 117.182 10.4987 117.501 10.4258V10.9727C117.173 11.082 116.795 11.1367 116.366 11.1367C115.71 11.1367 115.225 10.9613 114.91 10.6104C114.6 10.2594 114.445 9.70801 114.445 8.95605V4.15723H113.345V3.76074L114.445 3.45312L114.787 1.77148H115.136V3.56934H117.316V4.15723H115.136V8.86035C115.136 9.43001 115.236 9.85156 115.437 10.125C115.637 10.3984 115.951 10.5352 116.38 10.5352ZM118.971 10.4668C118.971 10.0202 119.153 9.79688 119.518 9.79688C119.891 9.79688 120.078 10.0202 120.078 10.4668C120.078 10.9134 119.891 11.1367 119.518 11.1367C119.153 11.1367 118.971 10.9134 118.971 10.4668ZM125.41 11.1367C124.348 11.1367 123.517 10.8018 122.915 10.1318C122.313 9.46191 122.013 8.52767 122.013 7.3291C122.013 6.09863 122.325 5.1416 122.949 4.45801C123.574 3.76986 124.428 3.42578 125.513 3.42578C126.155 3.42578 126.771 3.53743 127.358 3.76074L127.174 4.3623C126.531 4.14811 125.973 4.04102 125.499 4.04102C124.588 4.04102 123.897 4.32357 123.428 4.88867C122.958 5.44922 122.724 6.25814 122.724 7.31543C122.724 8.31803 122.958 9.10417 123.428 9.67383C123.897 10.2389 124.553 10.5215 125.396 10.5215C126.071 10.5215 126.698 10.4007 127.276 10.1592V10.7881C126.802 11.0205 126.18 11.1367 125.41 11.1367ZM135.247 7.27441C135.247 8.48665 134.953 9.43457 134.365 10.1182C133.777 10.7972 132.966 11.1367 131.932 11.1367C131.28 11.1367 130.706 10.9795 130.209 10.665C129.712 10.3506 129.332 9.89941 129.067 9.31152C128.803 8.72363 128.671 8.0446 128.671 7.27441C128.671 6.06217 128.965 5.11882 129.553 4.44434C130.141 3.7653 130.947 3.42578 131.973 3.42578C132.993 3.42578 133.793 3.76986 134.372 4.45801C134.955 5.1416 135.247 6.0804 135.247 7.27441ZM129.382 7.27441C129.382 8.29525 129.605 9.09277 130.052 9.66699C130.503 10.2367 131.139 10.5215 131.959 10.5215C132.779 10.5215 133.413 10.2367 133.859 9.66699C134.311 9.09277 134.536 8.29525 134.536 7.27441C134.536 6.24902 134.308 5.45378 133.853 4.88867C133.401 4.32357 132.766 4.04102 131.945 4.04102C131.125 4.04102 130.492 4.32357 130.045 4.88867C129.603 5.44922 129.382 6.24447 129.382 7.27441ZM146.588 11V6.12598C146.588 5.40137 146.447 4.87272 146.164 4.54004C145.882 4.20736 145.449 4.04102 144.865 4.04102C144.104 4.04102 143.541 4.25065 143.177 4.66992C142.812 5.08919 142.63 5.74772 142.63 6.64551V11H141.939V5.9209C141.939 4.66764 141.365 4.04102 140.217 4.04102C139.438 4.04102 138.87 4.26888 138.515 4.72461C138.159 5.17578 137.981 5.90039 137.981 6.89844V11H137.305V3.56934H137.865L138.009 4.58789H138.05C138.255 4.21875 138.547 3.93392 138.925 3.7334C139.303 3.52832 139.72 3.42578 140.176 3.42578C141.347 3.42578 142.099 3.86556 142.432 4.74512H142.459C142.701 4.32129 143.024 3.99544 143.43 3.76758C143.84 3.53971 144.305 3.42578 144.824 3.42578C145.635 3.42578 146.244 3.64225 146.649 4.0752C147.055 4.50814 147.258 5.19629 147.258 6.13965V11H146.588Z" fill="white"/>
</svg>
