<svg width="223" height="31" viewBox="0 0 223 31" fill="none" xmlns="http://www.w3.org/2000/svg">
<path d="M26.0469 15.6836C26.0469 20.2148 24.9141 23.8021 22.6484 26.4453C20.3828 29.0755 17.2578 30.3906 13.2734 30.3906C9.30208 30.3906 6.18359 29.0755 3.91797 26.4453C1.65234 23.8021 0.519531 20.2018 0.519531 15.6445C0.519531 11.1003 1.65885 7.52604 3.9375 4.92188C6.22917 2.30469 9.35417 0.996094 13.3125 0.996094C17.2969 0.996094 20.4154 2.3112 22.668 4.94141C24.9206 7.55859 26.0469 11.1393 26.0469 15.6836ZM2.6875 15.6836C2.6875 19.7721 3.59896 22.9362 5.42188 25.1758C7.24479 27.4023 9.86198 28.5156 13.2734 28.5156C16.7109 28.5156 19.3346 27.4089 21.1445 25.1953C22.9674 22.9818 23.8789 19.8112 23.8789 15.6836C23.8789 11.569 22.9674 8.41797 21.1445 6.23047C19.3346 4.02995 16.724 2.92969 13.3125 2.92969C9.91406 2.92969 7.29036 4.03646 5.44141 6.25C3.60547 8.46354 2.6875 11.6081 2.6875 15.6836ZM33.8203 8.76953V22.5195C33.8203 24.6549 34.2695 26.2109 35.168 27.1875C36.0664 28.151 37.4596 28.6328 39.3477 28.6328C41.8737 28.6328 43.7292 27.9948 44.9141 26.7188C46.112 25.4427 46.7109 23.3659 46.7109 20.4883V8.76953H48.625V30H46.9844L46.6328 27.0703H46.5156C45.1354 29.2839 42.681 30.3906 39.1523 30.3906C34.3216 30.3906 31.9062 27.806 31.9062 22.6367V8.76953H33.8203ZM64.0938 8.35938C64.9922 8.35938 65.9557 8.45052 66.9844 8.63281L66.6133 10.4883C65.7279 10.2669 64.8099 10.1562 63.8594 10.1562C62.0495 10.1562 60.5651 10.9245 59.4062 12.4609C58.2474 13.9974 57.668 15.9375 57.668 18.2812V30H55.7344V8.76953H57.375L57.5703 12.5977H57.707C58.5794 11.0352 59.5104 9.94141 60.5 9.31641C61.4896 8.67839 62.6875 8.35938 64.0938 8.35938ZM97.9609 22.6367C97.9609 25.0195 97.082 26.9076 95.3242 28.3008C93.5794 29.694 91.2552 30.3906 88.3516 30.3906C84.862 30.3906 82.1862 30.0065 80.3242 29.2383V27.2461C82.3815 28.1185 85.0052 28.5547 88.1953 28.5547C90.5391 28.5547 92.3945 28.0208 93.7617 26.9531C95.1419 25.8724 95.832 24.4596 95.832 22.7148C95.832 21.6341 95.6042 20.7422 95.1484 20.0391C94.6927 19.3229 93.9505 18.6719 92.9219 18.0859C91.8932 17.5 90.3828 16.8685 88.3906 16.1914C85.474 15.1888 83.4557 14.1081 82.3359 12.9492C81.2292 11.7773 80.6758 10.2214 80.6758 8.28125C80.6758 6.14583 81.5091 4.40755 83.1758 3.06641C84.8555 1.71224 87.0104 1.03516 89.6406 1.03516C92.3229 1.03516 94.8424 1.54297 97.1992 2.55859L96.4766 4.27734C94.1068 3.28776 91.8411 2.79297 89.6797 2.79297C87.5703 2.79297 85.8906 3.28125 84.6406 4.25781C83.3906 5.23438 82.7656 6.5625 82.7656 8.24219C82.7656 9.29688 82.9544 10.1628 83.332 10.8398C83.7227 11.5169 84.3542 12.1289 85.2266 12.6758C86.099 13.2096 87.5964 13.8542 89.7188 14.6094C91.9453 15.3776 93.6185 16.1263 94.7383 16.8555C95.8581 17.5716 96.6719 18.3919 97.1797 19.3164C97.7005 20.2279 97.9609 21.3346 97.9609 22.6367ZM112.082 30.3906C108.996 30.3906 106.587 29.4401 104.855 27.5391C103.137 25.638 102.277 22.9753 102.277 19.5508C102.277 16.1654 103.111 13.457 104.777 11.4258C106.444 9.38151 108.69 8.35938 111.516 8.35938C114.016 8.35938 115.988 9.23177 117.434 10.9766C118.879 12.7214 119.602 15.0911 119.602 18.0859V19.6484H104.309C104.335 22.5651 105.012 24.7917 106.34 26.3281C107.681 27.8646 109.595 28.6328 112.082 28.6328C113.293 28.6328 114.354 28.5482 115.266 28.3789C116.19 28.2096 117.355 27.8451 118.762 27.2852V29.043C117.564 29.5638 116.457 29.9154 115.441 30.0977C114.426 30.293 113.306 30.3906 112.082 30.3906ZM111.516 10.0781C109.471 10.0781 107.831 10.7552 106.594 12.1094C105.357 13.4505 104.634 15.3906 104.426 17.9297H117.551C117.551 15.4688 117.017 13.5482 115.949 12.168C114.882 10.7747 113.404 10.0781 111.516 10.0781ZM133.82 8.35938C134.719 8.35938 135.682 8.45052 136.711 8.63281L136.34 10.4883C135.454 10.2669 134.536 10.1562 133.586 10.1562C131.776 10.1562 130.292 10.9245 129.133 12.4609C127.974 13.9974 127.395 15.9375 127.395 18.2812V30H125.461V8.76953H127.102L127.297 12.5977H127.434C128.306 11.0352 129.237 9.94141 130.227 9.31641C131.216 8.67839 132.414 8.35938 133.82 8.35938ZM145.695 30L137.492 8.76953H139.484L144.973 23.2031C145.702 25.0521 146.249 26.6667 146.613 28.0469H146.73C147.264 26.276 147.811 24.6484 148.371 23.1641L153.859 8.76953H155.852L147.648 30H145.695ZM161.34 30H159.406V8.76953H161.34V30ZM159.133 2.87109C159.133 1.62109 159.543 0.996094 160.363 0.996094C160.767 0.996094 161.079 1.15885 161.301 1.48438C161.535 1.8099 161.652 2.27214 161.652 2.87109C161.652 3.45703 161.535 3.91927 161.301 4.25781C161.079 4.59635 160.767 4.76562 160.363 4.76562C159.543 4.76562 159.133 4.13411 159.133 2.87109ZM176.945 30.3906C173.911 30.3906 171.535 29.4336 169.816 27.5195C168.098 25.6055 167.238 22.9362 167.238 19.5117C167.238 15.9961 168.13 13.2617 169.914 11.3086C171.698 9.34245 174.139 8.35938 177.238 8.35938C179.074 8.35938 180.832 8.67839 182.512 9.31641L181.984 11.0352C180.148 10.4232 178.553 10.1172 177.199 10.1172C174.595 10.1172 172.622 10.9245 171.281 12.5391C169.94 14.1406 169.27 16.4518 169.27 19.4727C169.27 22.3372 169.94 24.5833 171.281 26.2109C172.622 27.8255 174.497 28.6328 176.906 28.6328C178.833 28.6328 180.624 28.2878 182.277 27.5977V29.3945C180.923 30.0586 179.146 30.3906 176.945 30.3906ZM196.066 30.3906C192.98 30.3906 190.572 29.4401 188.84 27.5391C187.121 25.638 186.262 22.9753 186.262 19.5508C186.262 16.1654 187.095 13.457 188.762 11.4258C190.428 9.38151 192.674 8.35938 195.5 8.35938C198 8.35938 199.973 9.23177 201.418 10.9766C202.863 12.7214 203.586 15.0911 203.586 18.0859V19.6484H188.293C188.319 22.5651 188.996 24.7917 190.324 26.3281C191.665 27.8646 193.579 28.6328 196.066 28.6328C197.277 28.6328 198.339 28.5482 199.25 28.3789C200.174 28.2096 201.34 27.8451 202.746 27.2852V29.043C201.548 29.5638 200.441 29.9154 199.426 30.0977C198.41 30.293 197.29 30.3906 196.066 30.3906ZM195.5 10.0781C193.456 10.0781 191.815 10.7552 190.578 12.1094C189.341 13.4505 188.618 15.3906 188.41 17.9297H201.535C201.535 15.4688 201.001 13.5482 199.934 12.168C198.866 10.7747 197.388 10.0781 195.5 10.0781ZM222.609 24.4727C222.609 26.3737 221.887 27.8385 220.441 28.8672C218.996 29.8828 216.945 30.3906 214.289 30.3906C211.451 30.3906 209.198 29.9544 207.531 29.082V26.9922C209.667 28.0599 211.919 28.5938 214.289 28.5938C216.385 28.5938 217.974 28.2487 219.055 27.5586C220.148 26.8555 220.695 25.9245 220.695 24.7656C220.695 23.6979 220.259 22.7995 219.387 22.0703C218.527 21.3411 217.108 20.625 215.129 19.9219C213.007 19.1536 211.516 18.4961 210.656 17.9492C209.797 17.3893 209.146 16.7643 208.703 16.0742C208.273 15.3711 208.059 14.5182 208.059 13.5156C208.059 11.9271 208.723 10.6706 210.051 9.74609C211.392 8.82161 213.26 8.35938 215.656 8.35938C217.948 8.35938 220.122 8.78906 222.18 9.64844L221.457 11.4062C219.374 10.5469 217.44 10.1172 215.656 10.1172C213.924 10.1172 212.551 10.4036 211.535 10.9766C210.52 11.5495 210.012 12.3438 210.012 13.3594C210.012 14.4661 210.402 15.3516 211.184 16.0156C211.978 16.6797 213.521 17.4219 215.812 18.2422C217.727 18.9323 219.12 19.5573 219.992 20.1172C220.865 20.6641 221.516 21.2891 221.945 21.9922C222.388 22.6953 222.609 23.5221 222.609 24.4727Z" fill="#474747"/>
</svg>
