<svg width="197" height="32" viewBox="0 0 197 32" fill="none" xmlns="http://www.w3.org/2000/svg">
<path d="M26.0469 16.6836C26.0469 21.2148 24.9141 24.8021 22.6484 27.4453C20.3828 30.0755 17.2578 31.3906 13.2734 31.3906C9.30208 31.3906 6.18359 30.0755 3.91797 27.4453C1.65234 24.8021 0.519531 21.2018 0.519531 16.6445C0.519531 12.1003 1.65885 8.52604 3.9375 5.92188C6.22917 3.30469 9.35417 1.99609 13.3125 1.99609C17.2969 1.99609 20.4154 3.3112 22.668 5.94141C24.9206 8.55859 26.0469 12.1393 26.0469 16.6836ZM2.6875 16.6836C2.6875 20.7721 3.59896 23.9362 5.42188 26.1758C7.24479 28.4023 9.86198 29.5156 13.2734 29.5156C16.7109 29.5156 19.3346 28.4089 21.1445 26.1953C22.9674 23.9818 23.8789 20.8112 23.8789 16.6836C23.8789 12.569 22.9674 9.41797 21.1445 7.23047C19.3346 5.02995 16.724 3.92969 13.3125 3.92969C9.91406 3.92969 7.29036 5.03646 5.44141 7.25C3.60547 9.46354 2.6875 12.6081 2.6875 16.6836ZM33.8203 9.76953V23.5195C33.8203 25.6549 34.2695 27.2109 35.168 28.1875C36.0664 29.151 37.4596 29.6328 39.3477 29.6328C41.8737 29.6328 43.7292 28.9948 44.9141 27.7188C46.112 26.4427 46.7109 24.3659 46.7109 21.4883V9.76953H48.625V31H46.9844L46.6328 28.0703H46.5156C45.1354 30.2839 42.681 31.3906 39.1523 31.3906C34.3216 31.3906 31.9062 28.806 31.9062 23.6367V9.76953H33.8203ZM64.0938 9.35938C64.9922 9.35938 65.9557 9.45052 66.9844 9.63281L66.6133 11.4883C65.7279 11.2669 64.8099 11.1562 63.8594 11.1562C62.0495 11.1562 60.5651 11.9245 59.4062 13.4609C58.2474 14.9974 57.668 16.9375 57.668 19.2812V31H55.7344V9.76953H57.375L57.5703 13.5977H57.707C58.5794 12.0352 59.5104 10.9414 60.5 10.3164C61.4896 9.67839 62.6875 9.35938 64.0938 9.35938ZM94.3867 3.83203C90.806 3.83203 87.987 4.97786 85.9297 7.26953C83.8724 9.5612 82.8438 12.6992 82.8438 16.6836C82.8438 20.7591 83.8138 23.9232 85.7539 26.1758C87.694 28.4284 90.4674 29.5547 94.0742 29.5547C96.4701 29.5547 98.6706 29.2487 100.676 28.6367V30.3945C98.7878 31.0586 96.431 31.3906 93.6055 31.3906C89.5951 31.3906 86.4375 30.0951 84.1328 27.5039C81.8281 24.9128 80.6758 21.293 80.6758 16.6445C80.6758 13.7409 81.2227 11.1823 82.3164 8.96875C83.4232 6.75521 85.0052 5.04948 87.0625 3.85156C89.1328 2.64062 91.5352 2.03516 94.2695 2.03516C97.056 2.03516 99.5495 2.55599 101.75 3.59766L100.949 5.39453C98.8659 4.35286 96.6784 3.83203 94.3867 3.83203ZM108.488 31H106.555V0.609375H108.488V31ZM117.551 31H115.617V9.76953H117.551V31ZM115.344 3.87109C115.344 2.62109 115.754 1.99609 116.574 1.99609C116.978 1.99609 117.29 2.15885 117.512 2.48438C117.746 2.8099 117.863 3.27214 117.863 3.87109C117.863 4.45703 117.746 4.91927 117.512 5.25781C117.29 5.59635 116.978 5.76562 116.574 5.76562C115.754 5.76562 115.344 5.13411 115.344 3.87109ZM133.254 31.3906C130.168 31.3906 127.759 30.4401 126.027 28.5391C124.309 26.638 123.449 23.9753 123.449 20.5508C123.449 17.1654 124.283 14.457 125.949 12.4258C127.616 10.3815 129.862 9.35938 132.688 9.35938C135.188 9.35938 137.16 10.2318 138.605 11.9766C140.051 13.7214 140.773 16.0911 140.773 19.0859V20.6484H125.48C125.507 23.5651 126.184 25.7917 127.512 27.3281C128.853 28.8646 130.767 29.6328 133.254 29.6328C134.465 29.6328 135.526 29.5482 136.438 29.3789C137.362 29.2096 138.527 28.8451 139.934 28.2852V30.043C138.736 30.5638 137.629 30.9154 136.613 31.0977C135.598 31.293 134.478 31.3906 133.254 31.3906ZM132.688 11.0781C130.643 11.0781 129.003 11.7552 127.766 13.1094C126.529 14.4505 125.806 16.3906 125.598 18.9297H138.723C138.723 16.4688 138.189 14.5482 137.121 13.168C136.053 11.7747 134.576 11.0781 132.688 11.0781ZM161.438 31V17.2305C161.438 15.0951 160.988 13.5456 160.09 12.582C159.191 11.6055 157.798 11.1172 155.91 11.1172C153.371 11.1172 151.509 11.7617 150.324 13.0508C149.152 14.3268 148.566 16.4036 148.566 19.2812V31H146.633V9.76953H148.273L148.645 12.6797H148.762C150.142 10.4661 152.596 9.35938 156.125 9.35938C160.943 9.35938 163.352 11.944 163.352 17.1133V31H161.438ZM175.832 29.6719C177.056 29.6719 178.124 29.5677 179.035 29.3594V30.9219C178.098 31.2344 177.017 31.3906 175.793 31.3906C173.918 31.3906 172.531 30.8893 171.633 29.8867C170.747 28.8841 170.305 27.3086 170.305 25.1602V11.4492H167.16V10.3164L170.305 9.4375L171.281 4.63281H172.277V9.76953H178.508V11.4492H172.277V24.8867C172.277 26.5143 172.564 27.7188 173.137 28.5C173.71 29.2812 174.608 29.6719 175.832 29.6719ZM196.789 25.4727C196.789 27.3737 196.066 28.8385 194.621 29.8672C193.176 30.8828 191.125 31.3906 188.469 31.3906C185.63 31.3906 183.378 30.9544 181.711 30.082V27.9922C183.846 29.0599 186.099 29.5938 188.469 29.5938C190.565 29.5938 192.154 29.2487 193.234 28.5586C194.328 27.8555 194.875 26.9245 194.875 25.7656C194.875 24.6979 194.439 23.7995 193.566 23.0703C192.707 22.3411 191.288 21.625 189.309 20.9219C187.186 20.1536 185.695 19.4961 184.836 18.9492C183.977 18.3893 183.326 17.7643 182.883 17.0742C182.453 16.3711 182.238 15.5182 182.238 14.5156C182.238 12.9271 182.902 11.6706 184.23 10.7461C185.572 9.82161 187.44 9.35938 189.836 9.35938C192.128 9.35938 194.302 9.78906 196.359 10.6484L195.637 12.4062C193.553 11.5469 191.62 11.1172 189.836 11.1172C188.104 11.1172 186.73 11.4036 185.715 11.9766C184.699 12.5495 184.191 13.3438 184.191 14.3594C184.191 15.4661 184.582 16.3516 185.363 17.0156C186.158 17.6797 187.701 18.4219 189.992 19.2422C191.906 19.9323 193.299 20.5573 194.172 21.1172C195.044 21.6641 195.695 22.2891 196.125 22.9922C196.568 23.6953 196.789 24.5221 196.789 25.4727Z" fill="#474747"/>
</svg>
