<svg width="143" height="31" viewBox="0 0 143 31" fill="none" xmlns="http://www.w3.org/2000/svg">
<path d="M17.8047 22.6367C17.8047 25.0195 16.9258 26.9076 15.168 28.3008C13.4232 29.694 11.099 30.3906 8.19531 30.3906C4.70573 30.3906 2.02995 30.0065 0.167969 29.2383V27.2461C2.22526 28.1185 4.84896 28.5547 8.03906 28.5547C10.3828 28.5547 12.2383 28.0208 13.6055 26.9531C14.9857 25.8724 15.6758 24.4596 15.6758 22.7148C15.6758 21.6341 15.4479 20.7422 14.9922 20.0391C14.5365 19.3229 13.7943 18.6719 12.7656 18.0859C11.737 17.5 10.2266 16.8685 8.23438 16.1914C5.31771 15.1888 3.29948 14.1081 2.17969 12.9492C1.07292 11.7773 0.519531 10.2214 0.519531 8.28125C0.519531 6.14583 1.35286 4.40755 3.01953 3.06641C4.69922 1.71224 6.85417 1.03516 9.48438 1.03516C12.1667 1.03516 14.6862 1.54297 17.043 2.55859L16.3203 4.27734C13.9505 3.28776 11.6849 2.79297 9.52344 2.79297C7.41406 2.79297 5.73438 3.28125 4.48438 4.25781C3.23438 5.23438 2.60938 6.5625 2.60938 8.24219C2.60938 9.29688 2.79818 10.1628 3.17578 10.8398C3.56641 11.5169 4.19792 12.1289 5.07031 12.6758C5.94271 13.2096 7.4401 13.8542 9.5625 14.6094C11.7891 15.3776 13.4622 16.1263 14.582 16.8555C15.7018 17.5716 16.5156 18.3919 17.0234 19.3164C17.5443 20.2279 17.8047 21.3346 17.8047 22.6367ZM31.9258 30.3906C28.8398 30.3906 26.431 29.4401 24.6992 27.5391C22.9805 25.638 22.1211 22.9753 22.1211 19.5508C22.1211 16.1654 22.9544 13.457 24.6211 11.4258C26.2878 9.38151 28.5339 8.35938 31.3594 8.35938C33.8594 8.35938 35.832 9.23177 37.2773 10.9766C38.7227 12.7214 39.4453 15.0911 39.4453 18.0859V19.6484H24.1523C24.1784 22.5651 24.8555 24.7917 26.1836 26.3281C27.5247 27.8646 29.4388 28.6328 31.9258 28.6328C33.1367 28.6328 34.1979 28.5482 35.1094 28.3789C36.0339 28.2096 37.1992 27.8451 38.6055 27.2852V29.043C37.4076 29.5638 36.3008 29.9154 35.2852 30.0977C34.2695 30.293 33.1497 30.3906 31.9258 30.3906ZM31.3594 10.0781C29.3151 10.0781 27.6745 10.7552 26.4375 12.1094C25.2005 13.4505 24.4779 15.3906 24.2695 17.9297H37.3945C37.3945 15.4688 36.8607 13.5482 35.793 12.168C34.7253 10.7747 33.2474 10.0781 31.3594 10.0781ZM53.6641 8.35938C54.5625 8.35938 55.526 8.45052 56.5547 8.63281L56.1836 10.4883C55.2982 10.2669 54.3802 10.1562 53.4297 10.1562C51.6198 10.1562 50.1354 10.9245 48.9766 12.4609C47.8177 13.9974 47.2383 15.9375 47.2383 18.2812V30H45.3047V8.76953H46.9453L47.1406 12.5977H47.2773C48.1497 11.0352 49.0807 9.94141 50.0703 9.31641C51.0599 8.67839 52.2578 8.35938 53.6641 8.35938ZM65.5391 30L57.3359 8.76953H59.3281L64.8164 23.2031C65.5456 25.0521 66.0924 26.6667 66.457 28.0469H66.5742C67.1081 26.276 67.6549 24.6484 68.2148 23.1641L73.7031 8.76953H75.6953L67.4922 30H65.5391ZM81.1836 30H79.25V8.76953H81.1836V30ZM78.9766 2.87109C78.9766 1.62109 79.3867 0.996094 80.207 0.996094C80.6107 0.996094 80.9232 1.15885 81.1445 1.48438C81.3789 1.8099 81.4961 2.27214 81.4961 2.87109C81.4961 3.45703 81.3789 3.91927 81.1445 4.25781C80.9232 4.59635 80.6107 4.76562 80.207 4.76562C79.3867 4.76562 78.9766 4.13411 78.9766 2.87109ZM96.7891 30.3906C93.7552 30.3906 91.3789 29.4336 89.6602 27.5195C87.9414 25.6055 87.082 22.9362 87.082 19.5117C87.082 15.9961 87.974 13.2617 89.7578 11.3086C91.5417 9.34245 93.9831 8.35938 97.082 8.35938C98.918 8.35938 100.676 8.67839 102.355 9.31641L101.828 11.0352C99.9922 10.4232 98.3971 10.1172 97.043 10.1172C94.4388 10.1172 92.4661 10.9245 91.125 12.5391C89.7839 14.1406 89.1133 16.4518 89.1133 19.4727C89.1133 22.3372 89.7839 24.5833 91.125 26.2109C92.4661 27.8255 94.3411 28.6328 96.75 28.6328C98.6771 28.6328 100.467 28.2878 102.121 27.5977V29.3945C100.767 30.0586 98.9896 30.3906 96.7891 30.3906ZM115.91 30.3906C112.824 30.3906 110.415 29.4401 108.684 27.5391C106.965 25.638 106.105 22.9753 106.105 19.5508C106.105 16.1654 106.939 13.457 108.605 11.4258C110.272 9.38151 112.518 8.35938 115.344 8.35938C117.844 8.35938 119.816 9.23177 121.262 10.9766C122.707 12.7214 123.43 15.0911 123.43 18.0859V19.6484H108.137C108.163 22.5651 108.84 24.7917 110.168 26.3281C111.509 27.8646 113.423 28.6328 115.91 28.6328C117.121 28.6328 118.182 28.5482 119.094 28.3789C120.018 28.2096 121.184 27.8451 122.59 27.2852V29.043C121.392 29.5638 120.285 29.9154 119.27 30.0977C118.254 30.293 117.134 30.3906 115.91 30.3906ZM115.344 10.0781C113.299 10.0781 111.659 10.7552 110.422 12.1094C109.185 13.4505 108.462 15.3906 108.254 17.9297H121.379C121.379 15.4688 120.845 13.5482 119.777 12.168C118.71 10.7747 117.232 10.0781 115.344 10.0781ZM142.453 24.4727C142.453 26.3737 141.73 27.8385 140.285 28.8672C138.84 29.8828 136.789 30.3906 134.133 30.3906C131.294 30.3906 129.042 29.9544 127.375 29.082V26.9922C129.51 28.0599 131.763 28.5938 134.133 28.5938C136.229 28.5938 137.818 28.2487 138.898 27.5586C139.992 26.8555 140.539 25.9245 140.539 24.7656C140.539 23.6979 140.103 22.7995 139.23 22.0703C138.371 21.3411 136.952 20.625 134.973 19.9219C132.85 19.1536 131.359 18.4961 130.5 17.9492C129.641 17.3893 128.99 16.7643 128.547 16.0742C128.117 15.3711 127.902 14.5182 127.902 13.5156C127.902 11.9271 128.566 10.6706 129.895 9.74609C131.236 8.82161 133.104 8.35938 135.5 8.35938C137.792 8.35938 139.966 8.78906 142.023 9.64844L141.301 11.4062C139.217 10.5469 137.284 10.1172 135.5 10.1172C133.768 10.1172 132.395 10.4036 131.379 10.9766C130.363 11.5495 129.855 12.3438 129.855 13.3594C129.855 14.4661 130.246 15.3516 131.027 16.0156C131.822 16.6797 133.365 17.4219 135.656 18.2422C137.57 18.9323 138.964 19.5573 139.836 20.1172C140.708 20.6641 141.359 21.2891 141.789 21.9922C142.232 22.6953 142.453 23.5221 142.453 24.4727Z" fill="white"/>
</svg>
