<svg width="343" height="15" viewBox="0 0 343 15" fill="none" xmlns="http://www.w3.org/2000/svg">
<path d="M6.13477 14H4.03418V2.95215H0.254883V1.15039H9.91406V2.95215H6.13477V14ZM20.2236 14H18.1494V8.02344C18.1494 7.27344 17.9971 6.71387 17.6924 6.34473C17.3936 5.97559 16.916 5.79102 16.2598 5.79102C15.3926 5.79102 14.7539 6.05176 14.3438 6.57324C13.9395 7.08887 13.7373 7.95605 13.7373 9.1748V14H11.6719V0.324219H13.7373V3.7959C13.7373 4.35254 13.7021 4.94727 13.6318 5.58008H13.7637C14.0449 5.11133 14.4346 4.74805 14.9326 4.49023C15.4365 4.23242 16.0225 4.10352 16.6904 4.10352C19.0459 4.10352 20.2236 5.29004 20.2236 7.66309V14ZM27.3428 14.1758C25.8311 14.1758 24.6475 13.7363 23.792 12.8574C22.9424 11.9727 22.5176 10.7568 22.5176 9.20996C22.5176 7.62207 22.9131 6.37402 23.7041 5.46582C24.4951 4.55762 25.582 4.10352 26.9648 4.10352C28.248 4.10352 29.2617 4.49316 30.0059 5.27246C30.75 6.05176 31.1221 7.12402 31.1221 8.48926V9.60547H24.6445C24.6738 10.5488 24.9287 11.2754 25.4092 11.7852C25.8896 12.2891 26.5664 12.541 27.4395 12.541C28.0137 12.541 28.5469 12.4883 29.0391 12.3828C29.5371 12.2715 30.0703 12.0898 30.6387 11.8379V13.5166C30.1348 13.7568 29.625 13.9268 29.1094 14.0264C28.5938 14.126 28.0049 14.1758 27.3428 14.1758ZM26.9648 5.66797C26.3086 5.66797 25.7812 5.87598 25.3828 6.29199C24.9902 6.70801 24.7559 7.31445 24.6797 8.11133H29.0918C29.0801 7.30859 28.8867 6.70215 28.5117 6.29199C28.1367 5.87598 27.6211 5.66797 26.9648 5.66797ZM42.8027 14H40.7021V2.95215H36.9229V1.15039H46.582V2.95215H42.8027V14ZM53.2705 4.10352C53.6865 4.10352 54.0293 4.13281 54.2988 4.19141L54.0967 6.11621C53.8037 6.0459 53.499 6.01074 53.1826 6.01074C52.3564 6.01074 51.6855 6.28027 51.1699 6.81934C50.6602 7.3584 50.4053 8.05859 50.4053 8.91992V14H48.3398V4.2793H49.957L50.2295 5.99316H50.335C50.6572 5.41309 51.0762 4.95312 51.5918 4.61328C52.1133 4.27344 52.6729 4.10352 53.2705 4.10352ZM60.3545 14.1758C58.8428 14.1758 57.6592 13.7363 56.8037 12.8574C55.9541 11.9727 55.5293 10.7568 55.5293 9.20996C55.5293 7.62207 55.9248 6.37402 56.7158 5.46582C57.5068 4.55762 58.5938 4.10352 59.9766 4.10352C61.2598 4.10352 62.2734 4.49316 63.0176 5.27246C63.7617 6.05176 64.1338 7.12402 64.1338 8.48926V9.60547H57.6562C57.6855 10.5488 57.9404 11.2754 58.4209 11.7852C58.9014 12.2891 59.5781 12.541 60.4512 12.541C61.0254 12.541 61.5586 12.4883 62.0508 12.3828C62.5488 12.2715 63.082 12.0898 63.6504 11.8379V13.5166C63.1465 13.7568 62.6367 13.9268 62.1211 14.0264C61.6055 14.126 61.0166 14.1758 60.3545 14.1758ZM59.9766 5.66797C59.3203 5.66797 58.793 5.87598 58.3945 6.29199C58.002 6.70801 57.7676 7.31445 57.6914 8.11133H62.1035C62.0918 7.30859 61.8984 6.70215 61.5234 6.29199C61.1484 5.87598 60.6328 5.66797 59.9766 5.66797ZM75.0322 14H72.958V8.02344C72.958 7.27344 72.8057 6.71387 72.501 6.34473C72.2021 5.97559 71.7246 5.79102 71.0684 5.79102C70.1953 5.79102 69.5566 6.04883 69.1523 6.56445C68.748 7.08008 68.5459 7.94434 68.5459 9.15723V14H66.4805V4.2793H68.0977L68.3877 5.55371H68.4932C68.7861 5.09082 69.2021 4.7334 69.7412 4.48145C70.2803 4.22949 70.8779 4.10352 71.5342 4.10352C73.8662 4.10352 75.0322 5.29004 75.0322 7.66309V14ZM81.1846 14.1758C79.9717 14.1758 79.0254 13.7363 78.3457 12.8574C77.666 11.9785 77.3262 10.7451 77.3262 9.15723C77.3262 7.56348 77.6689 6.32422 78.3545 5.43945C79.0459 4.54883 80.001 4.10352 81.2197 4.10352C82.4971 4.10352 83.4697 4.5752 84.1377 5.51855H84.2432C84.1436 4.82129 84.0938 4.27051 84.0938 3.86621V0.324219H86.168V14H84.5508L84.1904 12.7256H84.0938C83.4316 13.6924 82.4619 14.1758 81.1846 14.1758ZM81.7383 12.5059C82.5879 12.5059 83.2061 12.2686 83.5928 11.7939C83.9795 11.3135 84.1787 10.5371 84.1904 9.46484V9.1748C84.1904 7.9502 83.9912 7.08008 83.5928 6.56445C83.1943 6.04883 82.5703 5.79102 81.7207 5.79102C80.9941 5.79102 80.4346 6.08691 80.042 6.67871C79.6494 7.26465 79.4531 8.10254 79.4531 9.19238C79.4531 10.2705 79.6436 11.0938 80.0244 11.6621C80.4053 12.2246 80.9766 12.5059 81.7383 12.5059ZM98.4551 14H96.3545V2.95215H92.5752V1.15039H102.234V2.95215H98.4551V14ZM112.614 9.12207C112.614 10.71 112.207 11.9492 111.393 12.8398C110.578 13.7305 109.444 14.1758 107.991 14.1758C107.083 14.1758 106.28 13.9707 105.583 13.5605C104.886 13.1504 104.35 12.5615 103.975 11.7939C103.6 11.0264 103.412 10.1357 103.412 9.12207C103.412 7.5459 103.816 6.31543 104.625 5.43066C105.434 4.5459 106.573 4.10352 108.044 4.10352C109.45 4.10352 110.563 4.55762 111.384 5.46582C112.204 6.36816 112.614 7.58691 112.614 9.12207ZM105.539 9.12207C105.539 11.3662 106.368 12.4883 108.026 12.4883C109.667 12.4883 110.487 11.3662 110.487 9.12207C110.487 6.90137 109.661 5.79102 108.009 5.79102C107.142 5.79102 106.512 6.07812 106.119 6.65234C105.732 7.22656 105.539 8.0498 105.539 9.12207ZM122.968 14L121.711 9.46484C121.559 8.98438 121.283 7.86816 120.885 6.11621H120.806C120.466 7.69824 120.196 8.82031 119.997 9.48242L118.705 14H116.42L113.695 4.2793H115.805L117.044 9.06934C117.325 10.2529 117.524 11.2666 117.642 12.1104H117.694C117.753 11.6826 117.841 11.1934 117.958 10.6426C118.081 10.0859 118.187 9.66992 118.274 9.39453L119.751 4.2793H122.019L123.451 9.39453C123.539 9.68164 123.647 10.1211 123.776 10.7129C123.911 11.3047 123.99 11.7646 124.014 12.0928H124.084C124.172 11.3721 124.377 10.3643 124.699 9.06934L125.956 4.2793H128.03L125.288 14H122.968ZM133.954 14.1758C132.442 14.1758 131.259 13.7363 130.403 12.8574C129.554 11.9727 129.129 10.7568 129.129 9.20996C129.129 7.62207 129.524 6.37402 130.315 5.46582C131.106 4.55762 132.193 4.10352 133.576 4.10352C134.859 4.10352 135.873 4.49316 136.617 5.27246C137.361 6.05176 137.733 7.12402 137.733 8.48926V9.60547H131.256C131.285 10.5488 131.54 11.2754 132.021 11.7852C132.501 12.2891 133.178 12.541 134.051 12.541C134.625 12.541 135.158 12.4883 135.65 12.3828C136.148 12.2715 136.682 12.0898 137.25 11.8379V13.5166C136.746 13.7568 136.236 13.9268 135.721 14.0264C135.205 14.126 134.616 14.1758 133.954 14.1758ZM133.576 5.66797C132.92 5.66797 132.393 5.87598 131.994 6.29199C131.602 6.70801 131.367 7.31445 131.291 8.11133H135.703C135.691 7.30859 135.498 6.70215 135.123 6.29199C134.748 5.87598 134.232 5.66797 133.576 5.66797ZM145.011 4.10352C145.427 4.10352 145.77 4.13281 146.039 4.19141L145.837 6.11621C145.544 6.0459 145.239 6.01074 144.923 6.01074C144.097 6.01074 143.426 6.28027 142.91 6.81934C142.4 7.3584 142.146 8.05859 142.146 8.91992V14H140.08V4.2793H141.697L141.97 5.99316H142.075C142.397 5.41309 142.816 4.95312 143.332 4.61328C143.854 4.27344 144.413 4.10352 145.011 4.10352ZM163.195 7.45215C163.195 9.57324 162.606 11.1963 161.429 12.3213C160.251 13.4404 158.555 14 156.34 14H152.745V1.15039H156.718C158.763 1.15039 160.354 1.70117 161.49 2.80273C162.627 3.9043 163.195 5.4541 163.195 7.45215ZM160.98 7.52246C160.98 4.44629 159.542 2.9082 156.665 2.9082H154.846V12.2334H156.34C159.434 12.2334 160.98 10.6631 160.98 7.52246ZM174.366 9.12207C174.366 10.71 173.959 11.9492 173.145 12.8398C172.33 13.7305 171.196 14.1758 169.743 14.1758C168.835 14.1758 168.032 13.9707 167.335 13.5605C166.638 13.1504 166.102 12.5615 165.727 11.7939C165.352 11.0264 165.164 10.1357 165.164 9.12207C165.164 7.5459 165.568 6.31543 166.377 5.43066C167.186 4.5459 168.325 4.10352 169.796 4.10352C171.202 4.10352 172.315 4.55762 173.136 5.46582C173.956 6.36816 174.366 7.58691 174.366 9.12207ZM167.291 9.12207C167.291 11.3662 168.12 12.4883 169.778 12.4883C171.419 12.4883 172.239 11.3662 172.239 9.12207C172.239 6.90137 171.413 5.79102 169.761 5.79102C168.894 5.79102 168.264 6.07812 167.871 6.65234C167.484 7.22656 167.291 8.0498 167.291 9.12207ZM185.3 14H183.226V8.02344C183.226 7.27344 183.073 6.71387 182.769 6.34473C182.47 5.97559 181.992 5.79102 181.336 5.79102C180.463 5.79102 179.824 6.04883 179.42 6.56445C179.016 7.08008 178.813 7.94434 178.813 9.15723V14H176.748V4.2793H178.365L178.655 5.55371H178.761C179.054 5.09082 179.47 4.7334 180.009 4.48145C180.548 4.22949 181.146 4.10352 181.802 4.10352C184.134 4.10352 185.3 5.29004 185.3 7.66309V14ZM192.419 14.1758C190.907 14.1758 189.724 13.7363 188.868 12.8574C188.019 11.9727 187.594 10.7568 187.594 9.20996C187.594 7.62207 187.989 6.37402 188.78 5.46582C189.571 4.55762 190.658 4.10352 192.041 4.10352C193.324 4.10352 194.338 4.49316 195.082 5.27246C195.826 6.05176 196.198 7.12402 196.198 8.48926V9.60547H189.721C189.75 10.5488 190.005 11.2754 190.485 11.7852C190.966 12.2891 191.643 12.541 192.516 12.541C193.09 12.541 193.623 12.4883 194.115 12.3828C194.613 12.2715 195.146 12.0898 195.715 11.8379V13.5166C195.211 13.7568 194.701 13.9268 194.186 14.0264C193.67 14.126 193.081 14.1758 192.419 14.1758ZM192.041 5.66797C191.385 5.66797 190.857 5.87598 190.459 6.29199C190.066 6.70801 189.832 7.31445 189.756 8.11133H194.168C194.156 7.30859 193.963 6.70215 193.588 6.29199C193.213 5.87598 192.697 5.66797 192.041 5.66797ZM203.44 14V1.15039H205.541V14H203.44ZM217.274 14H215.2V8.02344C215.2 7.27344 215.048 6.71387 214.743 6.34473C214.444 5.97559 213.967 5.79102 213.311 5.79102C212.438 5.79102 211.799 6.04883 211.395 6.56445C210.99 7.08008 210.788 7.94434 210.788 9.15723V14H208.723V4.2793H210.34L210.63 5.55371H210.735C211.028 5.09082 211.444 4.7334 211.983 4.48145C212.522 4.22949 213.12 4.10352 213.776 4.10352C216.108 4.10352 217.274 5.29004 217.274 7.66309V14ZM232.849 14H224.139V12.4355L227.452 9.10449C228.431 8.10254 229.078 7.39355 229.395 6.97754C229.717 6.55566 229.951 6.16016 230.098 5.79102C230.244 5.42188 230.317 5.02637 230.317 4.60449C230.317 4.02441 230.142 3.56738 229.79 3.2334C229.444 2.89941 228.964 2.73242 228.349 2.73242C227.856 2.73242 227.379 2.82324 226.916 3.00488C226.459 3.18652 225.929 3.51465 225.325 3.98926L224.209 2.62695C224.924 2.02344 225.618 1.5957 226.292 1.34375C226.966 1.0918 227.684 0.96582 228.445 0.96582C229.641 0.96582 230.599 1.2793 231.319 1.90625C232.04 2.52734 232.4 3.36523 232.4 4.41992C232.4 5 232.295 5.55078 232.084 6.07227C231.879 6.59375 231.56 7.13281 231.126 7.68945C230.698 8.24023 229.983 8.9873 228.981 9.93066L226.749 12.0928V12.1807H232.849V14ZM243.132 7.5752C243.132 9.80762 242.771 11.4658 242.051 12.5498C241.336 13.6338 240.24 14.1758 238.764 14.1758C237.334 14.1758 236.25 13.6162 235.512 12.4971C234.773 11.3779 234.404 9.7373 234.404 7.5752C234.404 5.30762 234.762 3.6377 235.477 2.56543C236.197 1.4873 237.293 0.948242 238.764 0.948242C240.199 0.948242 241.286 1.51074 242.024 2.63574C242.763 3.76074 243.132 5.40723 243.132 7.5752ZM236.496 7.5752C236.496 9.32715 236.675 10.5781 237.032 11.3281C237.396 12.0781 237.973 12.4531 238.764 12.4531C239.555 12.4531 240.132 12.0723 240.495 11.3105C240.864 10.5488 241.049 9.30371 241.049 7.5752C241.049 5.85254 240.864 4.60742 240.495 3.83984C240.132 3.06641 239.555 2.67969 238.764 2.67969C237.973 2.67969 237.396 3.05762 237.032 3.81348C236.675 4.56934 236.496 5.82324 236.496 7.5752ZM250.77 14H248.704V5.70312C248.704 4.71289 248.728 3.92773 248.774 3.34766C248.64 3.48828 248.473 3.64355 248.273 3.81348C248.08 3.9834 247.424 4.52246 246.305 5.43066L245.268 4.12109L249.047 1.15039H250.77V14ZM263.681 6.63477C263.681 9.16602 263.171 11.0557 262.151 12.3037C261.132 13.5518 259.597 14.1758 257.546 14.1758C256.767 14.1758 256.207 14.1289 255.867 14.0352V12.3037C256.389 12.4502 256.913 12.5234 257.44 12.5234C258.835 12.5234 259.875 12.1484 260.561 11.3984C261.246 10.6484 261.621 9.4707 261.686 7.86523H261.58C261.234 8.39258 260.815 8.77344 260.323 9.00781C259.837 9.24219 259.266 9.35938 258.609 9.35938C257.473 9.35938 256.579 9.00488 255.929 8.2959C255.278 7.58691 254.953 6.61426 254.953 5.37793C254.953 4.03613 255.328 2.96973 256.078 2.17871C256.834 1.38184 257.862 0.983398 259.163 0.983398C260.077 0.983398 260.874 1.20605 261.554 1.65137C262.233 2.09668 262.758 2.74414 263.127 3.59375C263.496 4.4375 263.681 5.45117 263.681 6.63477ZM259.198 2.69727C258.483 2.69727 257.936 2.93164 257.555 3.40039C257.174 3.86328 256.983 4.5166 256.983 5.36035C256.983 6.09277 257.159 6.66992 257.511 7.0918C257.868 7.50781 258.407 7.71582 259.128 7.71582C259.825 7.71582 260.411 7.50781 260.886 7.0918C261.36 6.67578 261.598 6.18945 261.598 5.63281C261.598 5.11133 261.495 4.625 261.29 4.17383C261.091 3.7168 260.81 3.35645 260.446 3.09277C260.083 2.8291 259.667 2.69727 259.198 2.69727ZM278.262 10.5107C278.262 11.6533 277.849 12.5498 277.022 13.2002C276.196 13.8506 275.057 14.1758 273.604 14.1758C272.15 14.1758 270.961 13.9502 270.035 13.499V11.5127C270.621 11.7881 271.242 12.0049 271.898 12.1631C272.561 12.3213 273.176 12.4004 273.744 12.4004C274.576 12.4004 275.188 12.2422 275.581 11.9258C275.979 11.6094 276.179 11.1846 276.179 10.6514C276.179 10.1709 275.997 9.76367 275.634 9.42969C275.271 9.0957 274.521 8.7002 273.384 8.24316C272.212 7.76855 271.386 7.22656 270.905 6.61719C270.425 6.00781 270.185 5.27539 270.185 4.41992C270.185 3.34766 270.565 2.50391 271.327 1.88867C272.089 1.27344 273.111 0.96582 274.395 0.96582C275.625 0.96582 276.85 1.23535 278.068 1.77441L277.4 3.48828C276.258 3.00781 275.238 2.76758 274.342 2.76758C273.662 2.76758 273.146 2.91699 272.795 3.21582C272.443 3.50879 272.268 3.89844 272.268 4.38477C272.268 4.71875 272.338 5.00586 272.479 5.24609C272.619 5.48047 272.851 5.70312 273.173 5.91406C273.495 6.125 274.075 6.40332 274.913 6.74902C275.856 7.1416 276.548 7.50781 276.987 7.84766C277.427 8.1875 277.749 8.57129 277.954 8.99902C278.159 9.42676 278.262 9.93066 278.262 10.5107ZM287.385 14L287.095 12.7256H286.989C286.702 13.1768 286.292 13.5312 285.759 13.7891C285.231 14.0469 284.628 14.1758 283.948 14.1758C282.771 14.1758 281.892 13.8828 281.312 13.2969C280.731 12.7109 280.441 11.8232 280.441 10.6338V4.2793H282.524V10.2734C282.524 11.0176 282.677 11.5771 282.981 11.9521C283.286 12.3213 283.764 12.5059 284.414 12.5059C285.281 12.5059 285.917 12.248 286.321 11.7324C286.731 11.2109 286.937 10.3408 286.937 9.12207V4.2793H289.011V14H287.385ZM300.146 14H298.072V8.00586C298.072 7.26172 297.932 6.70801 297.65 6.34473C297.369 5.97559 296.93 5.79102 296.332 5.79102C295.535 5.79102 294.949 6.05176 294.574 6.57324C294.205 7.08887 294.021 7.9502 294.021 9.15723V14H291.955V4.2793H293.572L293.862 5.55371H293.968C294.237 5.09082 294.627 4.7334 295.137 4.48145C295.652 4.22949 296.218 4.10352 296.833 4.10352C298.327 4.10352 299.317 4.61328 299.804 5.63281H299.944C300.231 5.15234 300.636 4.77734 301.157 4.50781C301.679 4.23828 302.276 4.10352 302.95 4.10352C304.11 4.10352 304.954 4.39648 305.481 4.98242C306.015 5.56836 306.281 6.46191 306.281 7.66309V14H304.216V8.00586C304.216 7.26172 304.072 6.70801 303.785 6.34473C303.504 5.97559 303.064 5.79102 302.467 5.79102C301.664 5.79102 301.075 6.04297 300.7 6.54688C300.331 7.04492 300.146 7.8125 300.146 8.84961V14ZM317.355 14H315.281V8.00586C315.281 7.26172 315.141 6.70801 314.859 6.34473C314.578 5.97559 314.139 5.79102 313.541 5.79102C312.744 5.79102 312.158 6.05176 311.783 6.57324C311.414 7.08887 311.229 7.9502 311.229 9.15723V14H309.164V4.2793H310.781L311.071 5.55371H311.177C311.446 5.09082 311.836 4.7334 312.346 4.48145C312.861 4.22949 313.427 4.10352 314.042 4.10352C315.536 4.10352 316.526 4.61328 317.013 5.63281H317.153C317.44 5.15234 317.845 4.77734 318.366 4.50781C318.888 4.23828 319.485 4.10352 320.159 4.10352C321.319 4.10352 322.163 4.39648 322.69 4.98242C323.224 5.56836 323.49 6.46191 323.49 7.66309V14H321.425V8.00586C321.425 7.26172 321.281 6.70801 320.994 6.34473C320.713 5.97559 320.273 5.79102 319.676 5.79102C318.873 5.79102 318.284 6.04297 317.909 6.54688C317.54 7.04492 317.355 7.8125 317.355 8.84961V14ZM330.618 14.1758C329.106 14.1758 327.923 13.7363 327.067 12.8574C326.218 11.9727 325.793 10.7568 325.793 9.20996C325.793 7.62207 326.188 6.37402 326.979 5.46582C327.771 4.55762 328.857 4.10352 330.24 4.10352C331.523 4.10352 332.537 4.49316 333.281 5.27246C334.025 6.05176 334.397 7.12402 334.397 8.48926V9.60547H327.92C327.949 10.5488 328.204 11.2754 328.685 11.7852C329.165 12.2891 329.842 12.541 330.715 12.541C331.289 12.541 331.822 12.4883 332.314 12.3828C332.812 12.2715 333.346 12.0898 333.914 11.8379V13.5166C333.41 13.7568 332.9 13.9268 332.385 14.0264C331.869 14.126 331.28 14.1758 330.618 14.1758ZM330.24 5.66797C329.584 5.66797 329.057 5.87598 328.658 6.29199C328.266 6.70801 328.031 7.31445 327.955 8.11133H332.367C332.355 7.30859 332.162 6.70215 331.787 6.29199C331.412 5.87598 330.896 5.66797 330.24 5.66797ZM341.675 4.10352C342.091 4.10352 342.434 4.13281 342.703 4.19141L342.501 6.11621C342.208 6.0459 341.903 6.01074 341.587 6.01074C340.761 6.01074 340.09 6.28027 339.574 6.81934C339.064 7.3584 338.81 8.05859 338.81 8.91992V14H336.744V4.2793H338.361L338.634 5.99316H338.739C339.062 5.41309 339.48 4.95312 339.996 4.61328C340.518 4.27344 341.077 4.10352 341.675 4.10352Z" fill="#565656"/>
</svg>
