<svg width="67" height="11" viewBox="0 0 67 11" fill="none" xmlns="http://www.w3.org/2000/svg">
<path d="M7.9209 0.00585938V6.47266C7.9209 7.61198 7.57682 8.50749 6.88867 9.15918C6.20052 9.81087 5.25488 10.1367 4.05176 10.1367C2.84863 10.1367 1.91667 9.80859 1.25586 9.15234C0.599609 8.49609 0.271484 7.59375 0.271484 6.44531V0.00585938H1.43359V6.52734C1.43359 7.36133 1.66146 8.00163 2.11719 8.44824C2.57292 8.89486 3.24284 9.11816 4.12695 9.11816C4.97005 9.11816 5.61947 8.89486 6.0752 8.44824C6.53092 7.99707 6.75879 7.35221 6.75879 6.51367V0.00585938H7.9209ZM15.2354 7.95605C15.2354 8.65332 14.9756 9.19108 14.4561 9.56934C13.9365 9.94759 13.2074 10.1367 12.2686 10.1367C11.2751 10.1367 10.5003 9.97949 9.94434 9.66504V8.6123C10.3044 8.7946 10.6895 8.93815 11.0996 9.04297C11.5143 9.14779 11.9131 9.2002 12.2959 9.2002C12.8883 9.2002 13.3441 9.10677 13.6631 8.91992C13.9821 8.72852 14.1416 8.43913 14.1416 8.05176C14.1416 7.76009 14.014 7.51172 13.7588 7.30664C13.5081 7.09701 13.016 6.85091 12.2822 6.56836C11.585 6.30859 11.0882 6.08301 10.792 5.8916C10.5003 5.69564 10.2816 5.47461 10.1357 5.22852C9.99447 4.98242 9.92383 4.68848 9.92383 4.34668C9.92383 3.736 10.1722 3.25521 10.6689 2.9043C11.1657 2.54883 11.847 2.37109 12.7129 2.37109C13.5195 2.37109 14.3079 2.53516 15.0781 2.86328L14.6748 3.78613C13.9229 3.47624 13.2415 3.32129 12.6309 3.32129C12.0931 3.32129 11.6875 3.4056 11.4141 3.57422C11.1406 3.74284 11.0039 3.97526 11.0039 4.27148C11.0039 4.47201 11.054 4.6429 11.1543 4.78418C11.2591 4.92546 11.4255 5.0599 11.6533 5.1875C11.8812 5.3151 12.3187 5.49967 12.9658 5.74121C13.8545 6.06478 14.4538 6.39062 14.7637 6.71875C15.0781 7.04688 15.2354 7.45931 15.2354 7.95605ZM20.2529 10.1367C19.1455 10.1367 18.2705 9.79948 17.6279 9.125C16.9899 8.45052 16.6709 7.514 16.6709 6.31543C16.6709 5.10775 16.9671 4.14844 17.5596 3.4375C18.1566 2.72656 18.9564 2.37109 19.959 2.37109C20.8978 2.37109 21.6406 2.68099 22.1875 3.30078C22.7344 3.91602 23.0078 4.72949 23.0078 5.74121V6.45898H17.8467C17.8695 7.33854 18.0905 8.00618 18.5098 8.46191C18.9336 8.91764 19.5283 9.14551 20.2939 9.14551C21.1006 9.14551 21.8981 8.97689 22.6865 8.63965V9.65137C22.2855 9.82454 21.9049 9.94759 21.5449 10.0205C21.1895 10.098 20.7588 10.1367 20.2529 10.1367ZM19.9453 3.32129C19.3438 3.32129 18.863 3.51725 18.5029 3.90918C18.1475 4.30111 17.9378 4.84342 17.874 5.53613H21.791C21.791 4.82064 21.6315 4.27376 21.3125 3.89551C20.9935 3.5127 20.5378 3.32129 19.9453 3.32129ZM28.3672 2.37109C28.6999 2.37109 28.9984 2.39844 29.2627 2.45312L29.1055 3.50586C28.7956 3.4375 28.5221 3.40332 28.2852 3.40332C27.679 3.40332 27.1595 3.64941 26.7266 4.1416C26.2982 4.63379 26.084 5.24674 26.084 5.98047V10H24.9492V2.50781H25.8857L26.0156 3.89551H26.0703C26.3483 3.40788 26.6833 3.0319 27.0752 2.76758C27.4671 2.50326 27.8978 2.37109 28.3672 2.37109ZM35.791 10V5.15332C35.791 4.54264 35.652 4.08691 35.374 3.78613C35.096 3.48535 34.6608 3.33496 34.0684 3.33496C33.2845 3.33496 32.7103 3.54688 32.3457 3.9707C31.9811 4.39453 31.7988 5.09408 31.7988 6.06934V10H30.6641V2.50781H31.5869L31.7715 3.5332H31.8262C32.0586 3.16406 32.3844 2.87923 32.8037 2.67871C33.223 2.47363 33.6901 2.37109 34.2051 2.37109C35.1074 2.37109 35.7865 2.58984 36.2422 3.02734C36.6979 3.46029 36.9258 4.15527 36.9258 5.1123V10H35.791ZM43.8711 10L43.6455 8.93359H43.5908C43.2171 9.40299 42.8434 9.72201 42.4697 9.89062C42.1006 10.0547 41.638 10.1367 41.082 10.1367C40.3392 10.1367 39.7559 9.94531 39.332 9.5625C38.9128 9.17969 38.7031 8.63509 38.7031 7.92871C38.7031 6.41569 39.9131 5.62272 42.333 5.5498L43.6045 5.50879V5.04395C43.6045 4.45605 43.4769 4.02311 43.2217 3.74512C42.971 3.46257 42.5677 3.32129 42.0117 3.32129C41.3874 3.32129 40.681 3.5127 39.8926 3.89551L39.5439 3.02734C39.9131 2.82682 40.3164 2.6696 40.7539 2.55566C41.196 2.44173 41.638 2.38477 42.0801 2.38477C42.9733 2.38477 43.6341 2.58301 44.0625 2.97949C44.4954 3.37598 44.7119 4.01172 44.7119 4.88672V10H43.8711ZM41.3076 9.2002C42.014 9.2002 42.5677 9.00651 42.9688 8.61914C43.3743 8.23177 43.5771 7.68945 43.5771 6.99219V6.31543L42.4424 6.36328C41.54 6.39518 40.8883 6.53646 40.4873 6.78711C40.0908 7.0332 39.8926 7.41829 39.8926 7.94238C39.8926 8.35254 40.0156 8.66471 40.2617 8.87891C40.5124 9.0931 40.861 9.2002 41.3076 9.2002ZM56.6064 10V5.12598C56.6064 4.52897 56.4788 4.08236 56.2236 3.78613C55.9684 3.48535 55.5719 3.33496 55.0342 3.33496C54.3278 3.33496 53.806 3.53776 53.4688 3.94336C53.1315 4.34896 52.9629 4.97331 52.9629 5.81641V10H51.8281V5.12598C51.8281 4.52897 51.7005 4.08236 51.4453 3.78613C51.1901 3.48535 50.7913 3.33496 50.249 3.33496C49.5381 3.33496 49.0163 3.54915 48.6836 3.97754C48.3555 4.40137 48.1914 5.09863 48.1914 6.06934V10H47.0566V2.50781H47.9795L48.1641 3.5332H48.2188C48.4329 3.16862 48.7337 2.88379 49.1211 2.67871C49.513 2.47363 49.9505 2.37109 50.4336 2.37109C51.6048 2.37109 52.3704 2.79492 52.7305 3.64258H52.7852C53.0085 3.25065 53.332 2.94076 53.7559 2.71289C54.1797 2.48503 54.6628 2.37109 55.2051 2.37109C56.0527 2.37109 56.6862 2.58984 57.1055 3.02734C57.5293 3.46029 57.7412 4.15527 57.7412 5.1123V10H56.6064ZM63.251 10.1367C62.1436 10.1367 61.2686 9.79948 60.626 9.125C59.988 8.45052 59.6689 7.514 59.6689 6.31543C59.6689 5.10775 59.9652 4.14844 60.5576 3.4375C61.1546 2.72656 61.9544 2.37109 62.957 2.37109C63.8958 2.37109 64.6387 2.68099 65.1855 3.30078C65.7324 3.91602 66.0059 4.72949 66.0059 5.74121V6.45898H60.8447C60.8675 7.33854 61.0885 8.00618 61.5078 8.46191C61.9316 8.91764 62.5264 9.14551 63.292 9.14551C64.0986 9.14551 64.8962 8.97689 65.6846 8.63965V9.65137C65.2835 9.82454 64.903 9.94759 64.543 10.0205C64.1875 10.098 63.7568 10.1367 63.251 10.1367ZM62.9434 3.32129C62.3418 3.32129 61.861 3.51725 61.501 3.90918C61.1455 4.30111 60.9359 4.84342 60.8721 5.53613H64.7891C64.7891 4.82064 64.6296 4.27376 64.3105 3.89551C63.9915 3.5127 63.5358 3.32129 62.9434 3.32129Z" fill="#848484"/>
</svg>
