<svg width="154" height="12" viewBox="0 0 154 12" fill="none" xmlns="http://www.w3.org/2000/svg">
<path d="M10.9922 11H8.5791L7.22559 5.75C7.17546 5.56315 7.08887 5.17806 6.96582 4.59473C6.84733 4.00684 6.77897 3.61263 6.76074 3.41211C6.7334 3.6582 6.66504 4.05469 6.55566 4.60156C6.44629 5.14388 6.36198 5.53125 6.30273 5.76367L4.95605 11H2.5498L0 1.00586H2.08496L3.36328 6.46094C3.58659 7.4681 3.74837 8.34082 3.84863 9.0791C3.87598 8.81934 3.9375 8.41829 4.0332 7.87598C4.13346 7.3291 4.22689 6.90527 4.31348 6.60449L5.76953 1.00586H7.77246L9.22852 6.60449C9.29232 6.85514 9.37207 7.23796 9.46777 7.75293C9.56348 8.2679 9.63639 8.70996 9.68652 9.0791C9.7321 8.72363 9.80501 8.28158 9.90527 7.75293C10.0055 7.21973 10.0967 6.78906 10.1787 6.46094L11.4502 1.00586H13.5352L10.9922 11ZM19.4824 11L19.0791 9.96094H19.0244C18.6735 10.403 18.3112 10.7106 17.9375 10.8838C17.5684 11.0524 17.0853 11.1367 16.4883 11.1367C15.7546 11.1367 15.1758 10.9271 14.752 10.5078C14.3327 10.0885 14.123 9.49154 14.123 8.7168C14.123 7.9056 14.4056 7.30859 14.9707 6.92578C15.5404 6.53841 16.3971 6.32422 17.541 6.2832L18.8672 6.24219V5.90723C18.8672 5.13249 18.4707 4.74512 17.6777 4.74512C17.0671 4.74512 16.3493 4.92969 15.5244 5.29883L14.834 3.89062C15.7135 3.43034 16.6888 3.2002 17.7598 3.2002C18.7852 3.2002 19.5713 3.4235 20.1182 3.87012C20.665 4.31673 20.9385 4.99577 20.9385 5.90723V11H19.4824ZM18.8672 7.45898L18.0605 7.48633C17.4544 7.50456 17.0033 7.61393 16.707 7.81445C16.4108 8.01497 16.2627 8.32031 16.2627 8.73047C16.2627 9.31836 16.5999 9.6123 17.2744 9.6123C17.7575 9.6123 18.1426 9.47331 18.4297 9.19531C18.7214 8.91732 18.8672 8.54818 18.8672 8.08789V7.45898ZM26.3115 9.47559C26.6761 9.47559 27.1136 9.39583 27.624 9.23633V10.7881C27.1045 11.0205 26.4665 11.1367 25.71 11.1367C24.876 11.1367 24.2676 10.9271 23.8848 10.5078C23.5065 10.084 23.3174 9.45052 23.3174 8.60742V4.92285H22.3193V4.04102L23.4678 3.34375L24.0693 1.73047H25.4023V3.35742H27.542V4.92285H25.4023V8.60742C25.4023 8.90365 25.4844 9.1224 25.6484 9.26367C25.8171 9.40495 26.0381 9.47559 26.3115 9.47559ZM32.2793 11.1367C29.9004 11.1367 28.7109 9.83105 28.7109 7.21973C28.7109 5.9209 29.0345 4.92969 29.6816 4.24609C30.3288 3.55794 31.2562 3.21387 32.4639 3.21387C33.348 3.21387 34.141 3.38704 34.8428 3.7334L34.2275 5.34668C33.8994 5.21452 33.5941 5.10742 33.3115 5.02539C33.029 4.9388 32.7464 4.89551 32.4639 4.89551C31.3792 4.89551 30.8369 5.66569 30.8369 7.20605C30.8369 8.70085 31.3792 9.44824 32.4639 9.44824C32.8649 9.44824 33.2363 9.39583 33.5781 9.29102C33.9199 9.18164 34.2617 9.01302 34.6035 8.78516V10.5693C34.2663 10.7835 33.9245 10.9316 33.5781 11.0137C33.2363 11.0957 32.8034 11.1367 32.2793 11.1367ZM43.4355 11H41.3506V6.53613C41.3506 5.43327 40.9404 4.88184 40.1201 4.88184C39.5368 4.88184 39.1152 5.08008 38.8555 5.47656C38.5957 5.87305 38.4658 6.51562 38.4658 7.4043V11H36.3809V0.363281H38.4658V2.53027C38.4658 2.69889 38.4499 3.09538 38.418 3.71973L38.3701 4.33496H38.4795C38.9443 3.58757 39.6826 3.21387 40.6943 3.21387C41.5921 3.21387 42.2734 3.4554 42.7383 3.93848C43.2031 4.42155 43.4355 5.11426 43.4355 6.0166V11ZM51.0371 11L48.125 3.35742H50.3057L51.7822 7.71191C51.9463 8.26335 52.0488 8.78516 52.0898 9.27734H52.1309C52.1536 8.83984 52.2562 8.31803 52.4385 7.71191L53.9082 3.35742H56.0889L53.1768 11H51.0371ZM57.1006 1.38184C57.1006 0.702799 57.4788 0.363281 58.2354 0.363281C58.9919 0.363281 59.3701 0.702799 59.3701 1.38184C59.3701 1.7054 59.2744 1.95833 59.083 2.14062C58.8962 2.31836 58.6136 2.40723 58.2354 2.40723C57.4788 2.40723 57.1006 2.06543 57.1006 1.38184ZM59.2744 11H57.1895V3.35742H59.2744V11ZM63.8887 11.1367C62.9909 11.1367 62.2845 10.7881 61.7695 10.0908C61.2591 9.39355 61.0039 8.42741 61.0039 7.19238C61.0039 5.93913 61.2637 4.96387 61.7832 4.2666C62.3073 3.56478 63.0273 3.21387 63.9434 3.21387C64.9049 3.21387 65.6387 3.58757 66.1445 4.33496H66.2129C66.1081 3.7653 66.0557 3.25716 66.0557 2.81055V0.363281H68.1475V11H66.5479L66.1445 10.0088H66.0557C65.5817 10.7607 64.8594 11.1367 63.8887 11.1367ZM64.6201 9.47559C65.1533 9.47559 65.543 9.32064 65.7891 9.01074C66.0397 8.70085 66.1764 8.17448 66.1992 7.43164V7.20605C66.1992 6.38574 66.0716 5.79785 65.8164 5.44238C65.5658 5.08691 65.1556 4.90918 64.5859 4.90918C64.1211 4.90918 63.7588 5.10742 63.499 5.50391C63.2438 5.89583 63.1162 6.46777 63.1162 7.21973C63.1162 7.97168 63.2461 8.53678 63.5059 8.91504C63.7656 9.28874 64.137 9.47559 64.6201 9.47559ZM73.4932 4.69727C73.0511 4.69727 72.7048 4.83854 72.4541 5.12109C72.2035 5.39909 72.0599 5.79557 72.0234 6.31055H74.9492C74.9401 5.79557 74.8057 5.39909 74.5459 5.12109C74.2861 4.83854 73.9352 4.69727 73.4932 4.69727ZM73.7871 11.1367C72.5566 11.1367 71.5951 10.7972 70.9023 10.1182C70.2096 9.43913 69.8633 8.47754 69.8633 7.2334C69.8633 5.9528 70.1823 4.96387 70.8203 4.2666C71.4629 3.56478 72.3493 3.21387 73.4795 3.21387C74.5596 3.21387 75.4004 3.52148 76.002 4.13672C76.6035 4.75195 76.9043 5.60189 76.9043 6.68652V7.69824H71.9756C71.9984 8.29069 72.1738 8.75326 72.502 9.08594C72.8301 9.41862 73.2904 9.58496 73.8828 9.58496C74.3431 9.58496 74.7783 9.53711 75.1885 9.44141C75.5986 9.3457 76.027 9.19303 76.4736 8.9834V10.5967C76.109 10.779 75.7194 10.9134 75.3047 11C74.89 11.0911 74.3841 11.1367 73.7871 11.1367ZM80.2607 7.16504C80.2607 7.92155 80.3838 8.49349 80.6299 8.88086C80.8805 9.26823 81.2861 9.46191 81.8467 9.46191C82.4027 9.46191 82.8014 9.27051 83.043 8.8877C83.2891 8.50033 83.4121 7.92611 83.4121 7.16504C83.4121 6.40853 83.2891 5.84115 83.043 5.46289C82.7969 5.08464 82.3936 4.89551 81.833 4.89551C81.277 4.89551 80.876 5.08464 80.6299 5.46289C80.3838 5.83659 80.2607 6.40397 80.2607 7.16504ZM85.5449 7.16504C85.5449 8.40918 85.2168 9.38216 84.5605 10.084C83.9043 10.7858 82.9906 11.1367 81.8193 11.1367C81.0856 11.1367 80.4385 10.9772 79.8779 10.6582C79.3174 10.3346 78.8867 9.87207 78.5859 9.27051C78.2852 8.66895 78.1348 7.96712 78.1348 7.16504C78.1348 5.91634 78.4606 4.94564 79.1123 4.25293C79.764 3.56022 80.68 3.21387 81.8604 3.21387C82.5941 3.21387 83.2412 3.37337 83.8018 3.69238C84.3623 4.01139 84.793 4.4694 85.0938 5.06641C85.3945 5.66341 85.5449 6.36296 85.5449 7.16504ZM94.124 9.47559C94.4886 9.47559 94.9261 9.39583 95.4365 9.23633V10.7881C94.917 11.0205 94.279 11.1367 93.5225 11.1367C92.6885 11.1367 92.0801 10.9271 91.6973 10.5078C91.319 10.084 91.1299 9.45052 91.1299 8.60742V4.92285H90.1318V4.04102L91.2803 3.34375L91.8818 1.73047H93.2148V3.35742H95.3545V4.92285H93.2148V8.60742C93.2148 8.90365 93.2969 9.1224 93.4609 9.26367C93.6296 9.40495 93.8506 9.47559 94.124 9.47559ZM98.6494 7.16504C98.6494 7.92155 98.7725 8.49349 99.0186 8.88086C99.2692 9.26823 99.6748 9.46191 100.235 9.46191C100.791 9.46191 101.19 9.27051 101.432 8.8877C101.678 8.50033 101.801 7.92611 101.801 7.16504C101.801 6.40853 101.678 5.84115 101.432 5.46289C101.186 5.08464 100.782 4.89551 100.222 4.89551C99.6657 4.89551 99.2646 5.08464 99.0186 5.46289C98.7725 5.83659 98.6494 6.40397 98.6494 7.16504ZM103.934 7.16504C103.934 8.40918 103.605 9.38216 102.949 10.084C102.293 10.7858 101.379 11.1367 100.208 11.1367C99.4743 11.1367 98.8271 10.9772 98.2666 10.6582C97.7061 10.3346 97.2754 9.87207 96.9746 9.27051C96.6738 8.66895 96.5234 7.96712 96.5234 7.16504C96.5234 5.91634 96.8493 4.94564 97.501 4.25293C98.1527 3.56022 99.0687 3.21387 100.249 3.21387C100.983 3.21387 101.63 3.37337 102.19 3.69238C102.751 4.01139 103.182 4.4694 103.482 5.06641C103.783 5.66341 103.934 6.36296 103.934 7.16504ZM111.07 11L110.79 10.0225H110.681C110.457 10.3779 110.141 10.6536 109.73 10.8496C109.32 11.041 108.853 11.1367 108.329 11.1367C107.431 11.1367 106.755 10.8975 106.299 10.4189C105.843 9.93587 105.615 9.24316 105.615 8.34082V3.35742H107.7V7.82129C107.7 8.37272 107.798 8.78743 107.994 9.06543C108.19 9.33887 108.502 9.47559 108.931 9.47559C109.514 9.47559 109.936 9.2819 110.195 8.89453C110.455 8.5026 110.585 7.85547 110.585 6.95312V3.35742H112.67V11H111.07ZM119.123 3.21387C119.406 3.21387 119.64 3.23438 119.827 3.27539L119.67 5.23047C119.501 5.1849 119.296 5.16211 119.055 5.16211C118.389 5.16211 117.87 5.33301 117.496 5.6748C117.127 6.0166 116.942 6.49512 116.942 7.11035V11H114.857V3.35742H116.437L116.744 4.64258H116.847C117.084 4.21419 117.403 3.87012 117.804 3.61035C118.209 3.34603 118.649 3.21387 119.123 3.21387ZM131.906 11H129.821V6.53613C129.821 5.9847 129.723 5.57227 129.527 5.29883C129.331 5.02083 129.019 4.88184 128.591 4.88184C128.007 4.88184 127.586 5.0778 127.326 5.46973C127.066 5.8571 126.937 6.50195 126.937 7.4043V11H124.852V3.35742H126.444L126.725 4.33496H126.841C127.073 3.96582 127.392 3.68783 127.798 3.50098C128.208 3.30957 128.673 3.21387 129.192 3.21387C130.081 3.21387 130.756 3.4554 131.216 3.93848C131.676 4.41699 131.906 5.1097 131.906 6.0166V11ZM135.714 7.16504C135.714 7.92155 135.837 8.49349 136.083 8.88086C136.334 9.26823 136.739 9.46191 137.3 9.46191C137.856 9.46191 138.255 9.27051 138.496 8.8877C138.742 8.50033 138.865 7.92611 138.865 7.16504C138.865 6.40853 138.742 5.84115 138.496 5.46289C138.25 5.08464 137.847 4.89551 137.286 4.89551C136.73 4.89551 136.329 5.08464 136.083 5.46289C135.837 5.83659 135.714 6.40397 135.714 7.16504ZM140.998 7.16504C140.998 8.40918 140.67 9.38216 140.014 10.084C139.357 10.7858 138.444 11.1367 137.272 11.1367C136.539 11.1367 135.892 10.9772 135.331 10.6582C134.771 10.3346 134.34 9.87207 134.039 9.27051C133.738 8.66895 133.588 7.96712 133.588 7.16504C133.588 5.91634 133.914 4.94564 134.565 4.25293C135.217 3.56022 136.133 3.21387 137.313 3.21387C138.047 3.21387 138.694 3.37337 139.255 3.69238C139.815 4.01139 140.246 4.4694 140.547 5.06641C140.848 5.66341 140.998 6.36296 140.998 7.16504ZM149.003 11L148.415 8.32715L147.622 4.9502H147.574L146.18 11H143.938L141.764 3.35742H143.842L144.724 6.74121C144.865 7.34733 145.008 8.18359 145.154 9.25H145.195C145.214 8.90365 145.293 8.35449 145.435 7.60254L145.544 7.02148L146.487 3.35742H148.784L149.68 7.02148C149.698 7.12174 149.725 7.26986 149.762 7.46582C149.803 7.66178 149.841 7.87142 149.878 8.09473C149.914 8.31348 149.946 8.52995 149.974 8.74414C150.006 8.95378 150.024 9.1224 150.028 9.25H150.069C150.11 8.92188 150.183 8.47298 150.288 7.90332C150.393 7.3291 150.468 6.94173 150.514 6.74121L151.43 3.35742H153.474L151.272 11H149.003Z" fill="white"/>
</svg>
