<svg width="513" height="185" viewBox="0 0 513 185" fill="none" xmlns="http://www.w3.org/2000/svg">
<path d="M43.2148 51H40.5078L30.1631 14.6484C29.3037 11.6621 28.6592 9.21289 28.2295 7.30078C27.8857 9.16992 27.3916 11.3184 26.7471 13.7461C26.124 16.1738 22.665 28.5918 16.3701 51H13.5986L0.643555 3.88477H4.0918L12.3418 34.2422C12.6641 35.4668 12.9648 36.6055 13.2441 37.6582C13.5234 38.6895 13.7705 39.667 13.9854 40.5908C14.2217 41.4932 14.4258 42.374 14.5977 43.2334C14.791 44.0713 14.9629 44.9199 15.1133 45.7793C15.6289 42.8574 16.7246 38.4209 18.4004 32.4697L26.457 3.88477H30.0986L39.541 36.6914C40.6367 40.4727 41.4209 43.5234 41.8936 45.8438C42.1729 44.2969 42.5273 42.6533 42.957 40.9131C43.4082 39.1729 46.7275 26.8301 52.915 3.88477H56.2344L43.2148 51ZM77.9229 51.6445C72.8311 51.6445 68.8564 50.0762 65.999 46.9395C63.1631 43.8027 61.7451 39.4092 61.7451 33.7588C61.7451 28.1729 63.1201 23.7041 65.8701 20.3525C68.6201 16.9795 72.3262 15.293 76.9883 15.293C81.1133 15.293 84.3682 16.7324 86.7529 19.6113C89.1377 22.4902 90.3301 26.4004 90.3301 31.3418V33.9199H65.0967C65.1396 38.7324 66.2568 42.4062 68.4482 44.9414C70.6611 47.4766 73.8193 48.7441 77.9229 48.7441C79.9209 48.7441 81.6719 48.6045 83.1758 48.3252C84.7012 48.0459 86.624 47.4443 88.9443 46.5205V49.4209C86.9678 50.2803 85.1416 50.8604 83.4658 51.1611C81.79 51.4834 79.9424 51.6445 77.9229 51.6445ZM76.9883 18.1289C73.6152 18.1289 70.9082 19.2461 68.8672 21.4805C66.8262 23.6934 65.6338 26.8945 65.29 31.084H86.9463C86.9463 27.0234 86.0654 23.8545 84.3037 21.5771C82.542 19.2783 80.1035 18.1289 76.9883 18.1289ZM132.128 51.6445C126.735 51.6445 122.804 49.625 120.333 45.5859H120.107L120.204 48.293C120.29 49.8828 120.333 51.623 120.333 53.5137V66.8555H117.143V15.9697H119.85L120.462 20.9648H120.655C123.062 17.1836 126.907 15.293 132.192 15.293C136.919 15.293 140.518 16.8506 142.988 19.9658C145.48 23.0596 146.727 27.5713 146.727 33.501C146.727 39.2588 145.416 43.7275 142.795 46.9072C140.195 50.0654 136.64 51.6445 132.128 51.6445ZM132.063 48.8086C135.651 48.8086 138.423 47.4766 140.378 44.8125C142.354 42.1484 143.343 38.4209 143.343 33.6299C143.343 23.3389 139.626 18.1934 132.192 18.1934C128.11 18.1934 125.113 19.3213 123.201 21.5771C121.289 23.8115 120.333 27.4639 120.333 32.5342V33.5654C120.333 39.0439 121.246 42.9541 123.072 45.2959C124.92 47.6377 127.917 48.8086 132.063 48.8086ZM170.252 15.293C171.734 15.293 173.324 15.4434 175.021 15.7441L174.409 18.8057C172.948 18.4404 171.434 18.2578 169.865 18.2578C166.879 18.2578 164.43 19.5254 162.518 22.0605C160.605 24.5957 159.649 27.7969 159.649 31.6641V51H156.459V15.9697H159.166L159.488 22.2861H159.714C161.153 19.708 162.689 17.9033 164.322 16.8721C165.955 15.8193 167.932 15.293 170.252 15.293ZM211.147 33.4365C211.147 39.1514 209.762 43.6201 206.99 46.8428C204.219 50.0439 200.395 51.6445 195.518 51.6445C192.445 51.6445 189.738 50.9033 187.396 49.4209C185.055 47.9385 183.261 45.8115 182.015 43.04C180.769 40.2686 180.146 37.0674 180.146 33.4365C180.146 27.7217 181.531 23.2744 184.303 20.0947C187.074 16.8936 190.877 15.293 195.711 15.293C200.523 15.293 204.294 16.915 207.022 20.1592C209.772 23.3818 211.147 27.8076 211.147 33.4365ZM183.497 33.4365C183.497 38.249 184.55 42.0088 186.655 44.7158C188.782 47.4014 191.779 48.7441 195.646 48.7441C199.514 48.7441 202.5 47.4014 204.605 44.7158C206.732 42.0088 207.796 38.249 207.796 33.4365C207.796 28.6025 206.722 24.8535 204.573 22.1895C202.446 19.5254 199.449 18.1934 195.582 18.1934C191.715 18.1934 188.729 19.5254 186.623 22.1895C184.539 24.832 183.497 28.5811 183.497 33.4365ZM228.518 51L214.982 15.9697H218.27L227.325 39.7852C228.528 42.8359 229.431 45.5 230.032 47.7773H230.226C231.106 44.8555 232.009 42.1699 232.933 39.7207L241.988 15.9697H245.275L231.74 51H228.518ZM254.331 51H251.141V15.9697H254.331V51ZM250.689 6.2373C250.689 4.1748 251.366 3.14355 252.72 3.14355C253.386 3.14355 253.901 3.41211 254.267 3.94922C254.653 4.48633 254.847 5.24902 254.847 6.2373C254.847 7.2041 254.653 7.9668 254.267 8.52539C253.901 9.08398 253.386 9.36328 252.72 9.36328C251.366 9.36328 250.689 8.32129 250.689 6.2373ZM278.92 15.293C281.455 15.293 283.646 15.7549 285.494 16.6787C287.342 17.6025 288.996 19.1816 290.457 21.416H290.65C290.521 18.709 290.457 16.0557 290.457 13.4561V0.855469H293.615V51H291.521L290.715 45.6504H290.457C287.793 49.6465 283.969 51.6445 278.984 51.6445C274.15 51.6445 270.455 50.1406 267.898 47.1328C265.342 44.125 264.063 39.7422 264.063 33.9844C264.063 27.9258 265.331 23.2959 267.866 20.0947C270.401 16.8936 274.086 15.293 278.92 15.293ZM278.92 18.1934C275.096 18.1934 272.217 19.5361 270.283 22.2217C268.371 24.9072 267.415 28.8066 267.415 33.9199C267.415 43.8457 271.271 48.8086 278.984 48.8086C282.938 48.8086 285.838 47.6592 287.686 45.3604C289.533 43.0615 290.457 39.2695 290.457 33.9844V33.4365C290.457 28.0225 289.544 24.1338 287.718 21.7705C285.913 19.3857 282.98 18.1934 278.92 18.1934ZM319.558 51.6445C314.466 51.6445 310.491 50.0762 307.634 46.9395C304.798 43.8027 303.38 39.4092 303.38 33.7588C303.38 28.1729 304.755 23.7041 307.505 20.3525C310.255 16.9795 313.961 15.293 318.623 15.293C322.748 15.293 326.003 16.7324 328.388 19.6113C330.772 22.4902 331.965 26.4004 331.965 31.3418V33.9199H306.731C306.774 38.7324 307.892 42.4062 310.083 44.9414C312.296 47.4766 315.454 48.7441 319.558 48.7441C321.556 48.7441 323.307 48.6045 324.811 48.3252C326.336 48.0459 328.259 47.4443 330.579 46.5205V49.4209C328.603 50.2803 326.776 50.8604 325.101 51.1611C323.425 51.4834 321.577 51.6445 319.558 51.6445ZM318.623 18.1289C315.25 18.1289 312.543 19.2461 310.502 21.4805C308.461 23.6934 307.269 26.8945 306.925 31.084H328.581C328.581 27.0234 327.7 23.8545 325.938 21.5771C324.177 19.2783 321.738 18.1289 318.623 18.1289ZM4.48828 113H2.55469V91.7695H4.48828V113ZM2.28125 85.8711C2.28125 84.6211 2.69141 83.9961 3.51172 83.9961C3.91536 83.9961 4.22786 84.1589 4.44922 84.4844C4.68359 84.8099 4.80078 85.2721 4.80078 85.8711C4.80078 86.457 4.68359 86.9193 4.44922 87.2578C4.22786 87.5964 3.91536 87.7656 3.51172 87.7656C2.69141 87.7656 2.28125 87.1341 2.28125 85.8711ZM26.4219 113V99.2305C26.4219 97.0951 25.9727 95.5456 25.0742 94.582C24.1758 93.6055 22.7826 93.1172 20.8945 93.1172C18.3555 93.1172 16.4935 93.7617 15.3086 95.0508C14.1367 96.3268 13.5508 98.4036 13.5508 101.281V113H11.6172V91.7695H13.2578L13.6289 94.6797H13.7461C15.1263 92.4661 17.5807 91.3594 21.1094 91.3594C25.9271 91.3594 28.3359 93.944 28.3359 99.1133V113H26.4219ZM42.9844 91.3594C44.5208 91.3594 45.849 91.6393 46.9688 92.1992C48.0885 92.7591 49.0911 93.7161 49.9766 95.0703H50.0938C50.0156 93.4297 49.9766 91.8216 49.9766 90.2461V82.6094H51.8906V113H50.6211L50.1328 109.758H49.9766C48.362 112.18 46.0443 113.391 43.0234 113.391C40.0938 113.391 37.8542 112.479 36.3047 110.656C34.7552 108.833 33.9805 106.177 33.9805 102.688C33.9805 99.0156 34.7487 96.2096 36.2852 94.2695C37.8216 92.3294 40.0547 91.3594 42.9844 91.3594ZM42.9844 93.1172C40.6667 93.1172 38.9219 93.931 37.75 95.5586C36.5911 97.1862 36.0117 99.5495 36.0117 102.648C36.0117 108.664 38.349 111.672 43.0234 111.672C45.4193 111.672 47.1771 110.975 48.2969 109.582C49.4167 108.189 49.9766 105.891 49.9766 102.688V102.355C49.9766 99.0742 49.4232 96.7174 48.3164 95.2852C47.2227 93.8398 45.4453 93.1172 42.9844 93.1172ZM60.7188 91.7695V105.52C60.7188 107.655 61.168 109.211 62.0664 110.188C62.9648 111.151 64.3581 111.633 66.2461 111.633C68.7721 111.633 70.6276 110.995 71.8125 109.719C73.0104 108.443 73.6094 106.366 73.6094 103.488V91.7695H75.5234V113H73.8828L73.5312 110.07H73.4141C72.0339 112.284 69.5794 113.391 66.0508 113.391C61.2201 113.391 58.8047 110.806 58.8047 105.637V91.7695H60.7188ZM95.7969 107.473C95.7969 109.374 95.0742 110.839 93.6289 111.867C92.1836 112.883 90.1328 113.391 87.4766 113.391C84.638 113.391 82.3854 112.954 80.7188 112.082V109.992C82.8542 111.06 85.1068 111.594 87.4766 111.594C89.5729 111.594 91.1615 111.249 92.2422 110.559C93.3359 109.855 93.8828 108.924 93.8828 107.766C93.8828 106.698 93.4466 105.799 92.5742 105.07C91.7148 104.341 90.2956 103.625 88.3164 102.922C86.194 102.154 84.7031 101.496 83.8438 100.949C82.9844 100.389 82.3333 99.7643 81.8906 99.0742C81.4609 98.3711 81.2461 97.5182 81.2461 96.5156C81.2461 94.9271 81.9102 93.6706 83.2383 92.7461C84.5794 91.8216 86.4479 91.3594 88.8438 91.3594C91.1354 91.3594 93.3099 91.7891 95.3672 92.6484L94.6445 94.4062C92.5612 93.5469 90.6276 93.1172 88.8438 93.1172C87.112 93.1172 85.7383 93.4036 84.7227 93.9766C83.707 94.5495 83.1992 95.3438 83.1992 96.3594C83.1992 97.4661 83.5898 98.3516 84.3711 99.0156C85.1654 99.6797 86.7083 100.422 89 101.242C90.9141 101.932 92.3073 102.557 93.1797 103.117C94.0521 103.664 94.7031 104.289 95.1328 104.992C95.5755 105.695 95.7969 106.522 95.7969 107.473ZM106.871 111.672C108.095 111.672 109.163 111.568 110.074 111.359V112.922C109.137 113.234 108.056 113.391 106.832 113.391C104.957 113.391 103.57 112.889 102.672 111.887C101.786 110.884 101.344 109.309 101.344 107.16V93.4492H98.1992V92.3164L101.344 91.4375L102.32 86.6328H103.316V91.7695H109.547V93.4492H103.316V106.887C103.316 108.514 103.603 109.719 104.176 110.5C104.749 111.281 105.647 111.672 106.871 111.672ZM123.023 91.3594C123.922 91.3594 124.885 91.4505 125.914 91.6328L125.543 93.4883C124.658 93.2669 123.74 93.1562 122.789 93.1562C120.979 93.1562 119.495 93.9245 118.336 95.4609C117.177 96.9974 116.598 98.9375 116.598 101.281V113H114.664V91.7695H116.305L116.5 95.5977H116.637C117.509 94.0352 118.44 92.9414 119.43 92.3164C120.419 91.6784 121.617 91.3594 123.023 91.3594ZM126.695 91.7695H128.688L133.18 103.684C134.547 107.342 135.413 109.81 135.777 111.086H135.895C136.441 109.406 137.333 106.9 138.57 103.566L143.062 91.7695H145.055L135.543 116.438C134.775 118.443 134.13 119.797 133.609 120.5C133.089 121.203 132.477 121.73 131.773 122.082C131.083 122.434 130.243 122.609 129.254 122.609C128.512 122.609 127.685 122.473 126.773 122.199V120.52C127.529 120.728 128.342 120.832 129.215 120.832C129.879 120.832 130.465 120.676 130.973 120.363C131.48 120.051 131.936 119.562 132.34 118.898C132.757 118.247 133.232 117.206 133.766 115.773C134.312 114.354 134.664 113.43 134.82 113L126.695 91.7695ZM166.891 93.4492H161.891V113H159.957V93.4492H156.012V92.3164L159.957 91.5938V89.9531C159.957 87.349 160.432 85.4414 161.383 84.2305C162.346 83.0065 163.915 82.3945 166.09 82.3945C167.262 82.3945 168.434 82.5703 169.605 82.9219L169.156 84.6016C168.115 84.276 167.079 84.1133 166.051 84.1133C164.54 84.1133 163.466 84.5625 162.828 85.4609C162.203 86.3464 161.891 87.7917 161.891 89.7969V91.7695H166.891V93.4492ZM188.551 102.355C188.551 105.819 187.711 108.527 186.031 110.48C184.352 112.421 182.034 113.391 179.078 113.391C177.216 113.391 175.576 112.941 174.156 112.043C172.737 111.145 171.65 109.855 170.895 108.176C170.139 106.496 169.762 104.556 169.762 102.355C169.762 98.8919 170.602 96.1966 172.281 94.2695C173.961 92.3294 176.266 91.3594 179.195 91.3594C182.112 91.3594 184.397 92.3424 186.051 94.3086C187.717 96.2617 188.551 98.944 188.551 102.355ZM171.793 102.355C171.793 105.272 172.431 107.551 173.707 109.191C174.996 110.819 176.812 111.633 179.156 111.633C181.5 111.633 183.31 110.819 184.586 109.191C185.875 107.551 186.52 105.272 186.52 102.355C186.52 99.4258 185.868 97.1536 184.566 95.5391C183.277 93.9245 181.461 93.1172 179.117 93.1172C176.773 93.1172 174.964 93.9245 173.688 95.5391C172.424 97.1406 171.793 99.4128 171.793 102.355ZM202.906 113.391C199.872 113.391 197.496 112.434 195.777 110.52C194.059 108.605 193.199 105.936 193.199 102.512C193.199 98.9961 194.091 96.2617 195.875 94.3086C197.659 92.3424 200.1 91.3594 203.199 91.3594C205.035 91.3594 206.793 91.6784 208.473 92.3164L207.945 94.0352C206.109 93.4232 204.514 93.1172 203.16 93.1172C200.556 93.1172 198.583 93.9245 197.242 95.5391C195.901 97.1406 195.23 99.4518 195.23 102.473C195.23 105.337 195.901 107.583 197.242 109.211C198.583 110.826 200.458 111.633 202.867 111.633C204.794 111.633 206.585 111.288 208.238 110.598V112.395C206.884 113.059 205.107 113.391 202.906 113.391ZM215.133 91.7695V105.52C215.133 107.655 215.582 109.211 216.48 110.188C217.379 111.151 218.772 111.633 220.66 111.633C223.186 111.633 225.042 110.995 226.227 109.719C227.424 108.443 228.023 106.366 228.023 103.488V91.7695H229.938V113H228.297L227.945 110.07H227.828C226.448 112.284 223.993 113.391 220.465 113.391C215.634 113.391 213.219 110.806 213.219 105.637V91.7695H215.133ZM250.211 107.473C250.211 109.374 249.488 110.839 248.043 111.867C246.598 112.883 244.547 113.391 241.891 113.391C239.052 113.391 236.799 112.954 235.133 112.082V109.992C237.268 111.06 239.521 111.594 241.891 111.594C243.987 111.594 245.576 111.249 246.656 110.559C247.75 109.855 248.297 108.924 248.297 107.766C248.297 106.698 247.861 105.799 246.988 105.07C246.129 104.341 244.71 103.625 242.73 102.922C240.608 102.154 239.117 101.496 238.258 100.949C237.398 100.389 236.747 99.7643 236.305 99.0742C235.875 98.3711 235.66 97.5182 235.66 96.5156C235.66 94.9271 236.324 93.6706 237.652 92.7461C238.993 91.8216 240.862 91.3594 243.258 91.3594C245.549 91.3594 247.724 91.7891 249.781 92.6484L249.059 94.4062C246.975 93.5469 245.042 93.1172 243.258 93.1172C241.526 93.1172 240.152 93.4036 239.137 93.9766C238.121 94.5495 237.613 95.3438 237.613 96.3594C237.613 97.4661 238.004 98.3516 238.785 99.0156C239.579 99.6797 241.122 100.422 243.414 101.242C245.328 101.932 246.721 102.557 247.594 103.117C248.466 103.664 249.117 104.289 249.547 104.992C249.99 105.695 250.211 106.522 250.211 107.473ZM264.254 113.391C261.168 113.391 258.759 112.44 257.027 110.539C255.309 108.638 254.449 105.975 254.449 102.551C254.449 99.1654 255.283 96.457 256.949 94.4258C258.616 92.3815 260.862 91.3594 263.688 91.3594C266.188 91.3594 268.16 92.2318 269.605 93.9766C271.051 95.7214 271.773 98.0911 271.773 101.086V102.648H256.48C256.507 105.565 257.184 107.792 258.512 109.328C259.853 110.865 261.767 111.633 264.254 111.633C265.465 111.633 266.526 111.548 267.438 111.379C268.362 111.21 269.527 110.845 270.934 110.285V112.043C269.736 112.564 268.629 112.915 267.613 113.098C266.598 113.293 265.478 113.391 264.254 113.391ZM263.688 93.0781C261.643 93.0781 260.003 93.7552 258.766 95.1094C257.529 96.4505 256.806 98.3906 256.598 100.93H269.723C269.723 98.4688 269.189 96.5482 268.121 95.168C267.053 93.7747 265.576 93.0781 263.688 93.0781ZM285.406 91.3594C286.943 91.3594 288.271 91.6393 289.391 92.1992C290.51 92.7591 291.513 93.7161 292.398 95.0703H292.516C292.438 93.4297 292.398 91.8216 292.398 90.2461V82.6094H294.312V113H293.043L292.555 109.758H292.398C290.784 112.18 288.466 113.391 285.445 113.391C282.516 113.391 280.276 112.479 278.727 110.656C277.177 108.833 276.402 106.177 276.402 102.688C276.402 99.0156 277.171 96.2096 278.707 94.2695C280.243 92.3294 282.477 91.3594 285.406 91.3594ZM285.406 93.1172C283.089 93.1172 281.344 93.931 280.172 95.5586C279.013 97.1862 278.434 99.5495 278.434 102.648C278.434 108.664 280.771 111.672 285.445 111.672C287.841 111.672 289.599 110.975 290.719 109.582C291.839 108.189 292.398 105.891 292.398 102.688V102.355C292.398 99.0742 291.845 96.7174 290.738 95.2852C289.645 93.8398 287.867 93.1172 285.406 93.1172ZM325.016 107.473C325.016 109.374 324.293 110.839 322.848 111.867C321.402 112.883 319.352 113.391 316.695 113.391C313.857 113.391 311.604 112.954 309.938 112.082V109.992C312.073 111.06 314.326 111.594 316.695 111.594C318.792 111.594 320.38 111.249 321.461 110.559C322.555 109.855 323.102 108.924 323.102 107.766C323.102 106.698 322.665 105.799 321.793 105.07C320.934 104.341 319.514 103.625 317.535 102.922C315.413 102.154 313.922 101.496 313.062 100.949C312.203 100.389 311.552 99.7643 311.109 99.0742C310.68 98.3711 310.465 97.5182 310.465 96.5156C310.465 94.9271 311.129 93.6706 312.457 92.7461C313.798 91.8216 315.667 91.3594 318.062 91.3594C320.354 91.3594 322.529 91.7891 324.586 92.6484L323.863 94.4062C321.78 93.5469 319.846 93.1172 318.062 93.1172C316.331 93.1172 314.957 93.4036 313.941 93.9766C312.926 94.5495 312.418 95.3438 312.418 96.3594C312.418 97.4661 312.809 98.3516 313.59 99.0156C314.384 99.6797 315.927 100.422 318.219 101.242C320.133 101.932 321.526 102.557 322.398 103.117C323.271 103.664 323.922 104.289 324.352 104.992C324.794 105.695 325.016 106.522 325.016 107.473ZM339.059 113.391C335.973 113.391 333.564 112.44 331.832 110.539C330.113 108.638 329.254 105.975 329.254 102.551C329.254 99.1654 330.087 96.457 331.754 94.4258C333.421 92.3815 335.667 91.3594 338.492 91.3594C340.992 91.3594 342.965 92.2318 344.41 93.9766C345.855 95.7214 346.578 98.0911 346.578 101.086V102.648H331.285C331.311 105.565 331.988 107.792 333.316 109.328C334.658 110.865 336.572 111.633 339.059 111.633C340.27 111.633 341.331 111.548 342.242 111.379C343.167 111.21 344.332 110.845 345.738 110.285V112.043C344.54 112.564 343.434 112.915 342.418 113.098C341.402 113.293 340.283 113.391 339.059 113.391ZM338.492 93.0781C336.448 93.0781 334.807 93.7552 333.57 95.1094C332.333 96.4505 331.611 98.3906 331.402 100.93H344.527C344.527 98.4688 343.993 96.5482 342.926 95.168C341.858 93.7747 340.38 93.0781 338.492 93.0781ZM360.797 91.3594C361.695 91.3594 362.659 91.4505 363.688 91.6328L363.316 93.4883C362.431 93.2669 361.513 93.1562 360.562 93.1562C358.753 93.1562 357.268 93.9245 356.109 95.4609C354.951 96.9974 354.371 98.9375 354.371 101.281V113H352.438V91.7695H354.078L354.273 95.5977H354.41C355.283 94.0352 356.214 92.9414 357.203 92.3164C358.193 91.6784 359.391 91.3594 360.797 91.3594ZM372.672 113L364.469 91.7695H366.461L371.949 106.203C372.678 108.052 373.225 109.667 373.59 111.047H373.707C374.241 109.276 374.788 107.648 375.348 106.164L380.836 91.7695H382.828L374.625 113H372.672ZM388.316 113H386.383V91.7695H388.316V113ZM386.109 85.8711C386.109 84.6211 386.52 83.9961 387.34 83.9961C387.743 83.9961 388.056 84.1589 388.277 84.4844C388.512 84.8099 388.629 85.2721 388.629 85.8711C388.629 86.457 388.512 86.9193 388.277 87.2578C388.056 87.5964 387.743 87.7656 387.34 87.7656C386.52 87.7656 386.109 87.1341 386.109 85.8711ZM403.922 113.391C400.888 113.391 398.512 112.434 396.793 110.52C395.074 108.605 394.215 105.936 394.215 102.512C394.215 98.9961 395.107 96.2617 396.891 94.3086C398.674 92.3424 401.116 91.3594 404.215 91.3594C406.051 91.3594 407.809 91.6784 409.488 92.3164L408.961 94.0352C407.125 93.4232 405.53 93.1172 404.176 93.1172C401.572 93.1172 399.599 93.9245 398.258 95.5391C396.917 97.1406 396.246 99.4518 396.246 102.473C396.246 105.337 396.917 107.583 398.258 109.211C399.599 110.826 401.474 111.633 403.883 111.633C405.81 111.633 407.6 111.288 409.254 110.598V112.395C407.9 113.059 406.122 113.391 403.922 113.391ZM423.043 113.391C419.957 113.391 417.548 112.44 415.816 110.539C414.098 108.638 413.238 105.975 413.238 102.551C413.238 99.1654 414.072 96.457 415.738 94.4258C417.405 92.3815 419.651 91.3594 422.477 91.3594C424.977 91.3594 426.949 92.2318 428.395 93.9766C429.84 95.7214 430.562 98.0911 430.562 101.086V102.648H415.27C415.296 105.565 415.973 107.792 417.301 109.328C418.642 110.865 420.556 111.633 423.043 111.633C424.254 111.633 425.315 111.548 426.227 111.379C427.151 111.21 428.316 110.845 429.723 110.285V112.043C428.525 112.564 427.418 112.915 426.402 113.098C425.387 113.293 424.267 113.391 423.043 113.391ZM422.477 93.0781C420.432 93.0781 418.792 93.7552 417.555 95.1094C416.318 96.4505 415.595 98.3906 415.387 100.93H428.512C428.512 98.4688 427.978 96.5482 426.91 95.168C425.842 93.7747 424.365 93.0781 422.477 93.0781ZM449.586 107.473C449.586 109.374 448.863 110.839 447.418 111.867C445.973 112.883 443.922 113.391 441.266 113.391C438.427 113.391 436.174 112.954 434.508 112.082V109.992C436.643 111.06 438.896 111.594 441.266 111.594C443.362 111.594 444.951 111.249 446.031 110.559C447.125 109.855 447.672 108.924 447.672 107.766C447.672 106.698 447.236 105.799 446.363 105.07C445.504 104.341 444.085 103.625 442.105 102.922C439.983 102.154 438.492 101.496 437.633 100.949C436.773 100.389 436.122 99.7643 435.68 99.0742C435.25 98.3711 435.035 97.5182 435.035 96.5156C435.035 94.9271 435.699 93.6706 437.027 92.7461C438.368 91.8216 440.237 91.3594 442.633 91.3594C444.924 91.3594 447.099 91.7891 449.156 92.6484L448.434 94.4062C446.35 93.5469 444.417 93.1172 442.633 93.1172C440.901 93.1172 439.527 93.4036 438.512 93.9766C437.496 94.5495 436.988 95.3438 436.988 96.3594C436.988 97.4661 437.379 98.3516 438.16 99.0156C438.954 99.6797 440.497 100.422 442.789 101.242C444.703 101.932 446.096 102.557 446.969 103.117C447.841 103.664 448.492 104.289 448.922 104.992C449.365 105.695 449.586 106.522 449.586 107.473ZM473.336 93.4492H468.336V113H466.402V93.4492H462.457V92.3164L466.402 91.5938V89.9531C466.402 87.349 466.878 85.4414 467.828 84.2305C468.792 83.0065 470.361 82.3945 472.535 82.3945C473.707 82.3945 474.879 82.5703 476.051 82.9219L475.602 84.6016C474.56 84.276 473.525 84.1133 472.496 84.1133C470.986 84.1133 469.911 84.5625 469.273 85.4609C468.648 86.3464 468.336 87.7917 468.336 89.7969V91.7695H473.336V93.4492ZM494.996 102.355C494.996 105.819 494.156 108.527 492.477 110.48C490.797 112.421 488.479 113.391 485.523 113.391C483.661 113.391 482.021 112.941 480.602 112.043C479.182 111.145 478.095 109.855 477.34 108.176C476.585 106.496 476.207 104.556 476.207 102.355C476.207 98.8919 477.047 96.1966 478.727 94.2695C480.406 92.3294 482.711 91.3594 485.641 91.3594C488.557 91.3594 490.842 92.3424 492.496 94.3086C494.163 96.2617 494.996 98.944 494.996 102.355ZM478.238 102.355C478.238 105.272 478.876 107.551 480.152 109.191C481.441 110.819 483.258 111.633 485.602 111.633C487.945 111.633 489.755 110.819 491.031 109.191C492.32 107.551 492.965 105.272 492.965 102.355C492.965 99.4258 492.314 97.1536 491.012 95.5391C489.723 93.9245 487.906 93.1172 485.562 93.1172C483.219 93.1172 481.409 93.9245 480.133 95.5391C478.87 97.1406 478.238 99.4128 478.238 102.355ZM509.234 91.3594C510.133 91.3594 511.096 91.4505 512.125 91.6328L511.754 93.4883C510.868 93.2669 509.951 93.1562 509 93.1562C507.19 93.1562 505.706 93.9245 504.547 95.4609C503.388 96.9974 502.809 98.9375 502.809 101.281V113H500.875V91.7695H502.516L502.711 95.5977H502.848C503.72 94.0352 504.651 92.9414 505.641 92.3164C506.63 91.6784 507.828 91.3594 509.234 91.3594ZM11.6367 175.391C8.36849 175.391 5.98568 174.167 4.48828 171.719H4.35156L4.41016 173.359C4.46224 174.323 4.48828 175.378 4.48828 176.523V184.609H2.55469V153.77H4.19531L4.56641 156.797H4.68359C6.14193 154.505 8.47266 153.359 11.6758 153.359C14.5404 153.359 16.7214 154.303 18.2188 156.191C19.7292 158.066 20.4844 160.801 20.4844 164.395C20.4844 167.884 19.6901 170.592 18.1016 172.52C16.526 174.434 14.3711 175.391 11.6367 175.391ZM11.5977 173.672C13.7721 173.672 15.4518 172.865 16.6367 171.25C17.8346 169.635 18.4336 167.376 18.4336 164.473C18.4336 158.236 16.181 155.117 11.6758 155.117C9.20182 155.117 7.38542 155.801 6.22656 157.168C5.06771 158.522 4.48828 160.736 4.48828 163.809V164.434C4.48828 167.754 5.04167 170.124 6.14844 171.543C7.26823 172.962 9.08464 173.672 11.5977 173.672ZM28.0625 153.77V167.52C28.0625 169.655 28.5117 171.211 29.4102 172.188C30.3086 173.151 31.7018 173.633 33.5898 173.633C36.1159 173.633 37.9714 172.995 39.1562 171.719C40.3542 170.443 40.9531 168.366 40.9531 165.488V153.77H42.8672V175H41.2266L40.875 172.07H40.7578C39.3776 174.284 36.9232 175.391 33.3945 175.391C28.5638 175.391 26.1484 172.806 26.1484 167.637V153.77H28.0625ZM58.9414 153.359C61.9102 153.359 64.1432 154.297 65.6406 156.172C67.151 158.034 67.9062 160.762 67.9062 164.355C67.9062 167.884 67.112 170.605 65.5234 172.52C63.9479 174.434 61.7279 175.391 58.8633 175.391C57.3529 175.391 55.9922 175.078 54.7812 174.453C53.5703 173.828 52.6133 172.943 51.9102 171.797H51.7344L51.1875 175H49.9766V144.609H51.9102V152.246C51.9102 153.392 51.8841 154.447 51.832 155.41L51.7734 157.07H51.9102C52.7174 155.794 53.6875 154.857 54.8203 154.258C55.9661 153.659 57.3398 153.359 58.9414 153.359ZM58.9023 155.117C56.4023 155.117 54.612 155.833 53.5312 157.266C52.4505 158.698 51.9102 161.061 51.9102 164.355V164.688C51.9102 167.891 52.4701 170.189 53.5898 171.582C54.7227 172.975 56.4805 173.672 58.8633 173.672C61.181 173.672 62.9258 172.865 64.0977 171.25C65.2695 169.622 65.8555 167.311 65.8555 164.316C65.8555 158.184 63.5378 155.117 58.9023 155.117ZM75.7383 175H73.8047V144.609H75.7383V175ZM84.8008 175H82.8672V153.77H84.8008V175ZM82.5938 147.871C82.5938 146.621 83.0039 145.996 83.8242 145.996C84.2279 145.996 84.5404 146.159 84.7617 146.484C84.9961 146.81 85.1133 147.272 85.1133 147.871C85.1133 148.457 84.9961 148.919 84.7617 149.258C84.5404 149.596 84.2279 149.766 83.8242 149.766C83.0039 149.766 82.5938 149.134 82.5938 147.871ZM100.406 175.391C97.3724 175.391 94.9961 174.434 93.2773 172.52C91.5586 170.605 90.6992 167.936 90.6992 164.512C90.6992 160.996 91.5911 158.262 93.375 156.309C95.1589 154.342 97.6003 153.359 100.699 153.359C102.535 153.359 104.293 153.678 105.973 154.316L105.445 156.035C103.609 155.423 102.014 155.117 100.66 155.117C98.056 155.117 96.0833 155.924 94.7422 157.539C93.401 159.141 92.7305 161.452 92.7305 164.473C92.7305 167.337 93.401 169.583 94.7422 171.211C96.0833 172.826 97.9583 173.633 100.367 173.633C102.294 173.633 104.085 173.288 105.738 172.598V174.395C104.384 175.059 102.607 175.391 100.406 175.391ZM120.191 167.754C120.191 165.957 120.667 164.427 121.617 163.164C122.581 161.901 124.371 160.566 126.988 159.16L125.523 157.559C124.664 156.634 124.026 155.729 123.609 154.844C123.193 153.958 122.984 153.034 122.984 152.07C122.984 150.208 123.603 148.73 124.84 147.637C126.09 146.543 127.763 145.996 129.859 145.996C131.878 145.996 133.473 146.523 134.645 147.578C135.829 148.633 136.422 150.091 136.422 151.953C136.422 153.32 135.966 154.577 135.055 155.723C134.143 156.855 132.496 158.118 130.113 159.512L138.941 168.438C139.736 167.5 140.413 166.478 140.973 165.371C141.533 164.264 142.021 162.956 142.438 161.445H144.312C143.492 164.648 142.132 167.422 140.23 169.766L145.426 175H142.789L139.02 171.152C137.822 172.324 136.754 173.184 135.816 173.73C134.879 174.264 133.85 174.674 132.73 174.961C131.624 175.247 130.361 175.391 128.941 175.391C126.22 175.391 124.078 174.72 122.516 173.379C120.966 172.038 120.191 170.163 120.191 167.754ZM129.078 173.633C130.745 173.633 132.268 173.353 133.648 172.793C135.042 172.22 136.409 171.263 137.75 169.922L128.316 160.449C126.546 161.387 125.263 162.188 124.469 162.852C123.688 163.503 123.115 164.212 122.75 164.98C122.398 165.749 122.223 166.647 122.223 167.676C122.223 169.538 122.828 170.996 124.039 172.051C125.25 173.105 126.93 173.633 129.078 173.633ZM125.074 152.031C125.074 153.06 125.335 154.01 125.855 154.883C126.376 155.755 127.366 156.888 128.824 158.281C130.895 157.174 132.333 156.139 133.141 155.176C133.948 154.212 134.352 153.112 134.352 151.875C134.352 150.651 133.948 149.661 133.141 148.906C132.333 148.138 131.24 147.754 129.859 147.754C128.375 147.754 127.203 148.132 126.344 148.887C125.497 149.642 125.074 150.69 125.074 152.031ZM169.332 175.391C166.064 175.391 163.681 174.167 162.184 171.719H162.047L162.105 173.359C162.158 174.323 162.184 175.378 162.184 176.523V184.609H160.25V153.77H161.891L162.262 156.797H162.379C163.837 154.505 166.168 153.359 169.371 153.359C172.236 153.359 174.417 154.303 175.914 156.191C177.424 158.066 178.18 160.801 178.18 164.395C178.18 167.884 177.385 170.592 175.797 172.52C174.221 174.434 172.066 175.391 169.332 175.391ZM169.293 173.672C171.467 173.672 173.147 172.865 174.332 171.25C175.53 169.635 176.129 167.376 176.129 164.473C176.129 158.236 173.876 155.117 169.371 155.117C166.897 155.117 165.081 155.801 163.922 157.168C162.763 158.522 162.184 160.736 162.184 163.809V164.434C162.184 167.754 162.737 170.124 163.844 171.543C164.964 172.962 166.78 173.672 169.293 173.672ZM192.438 153.359C193.336 153.359 194.299 153.451 195.328 153.633L194.957 155.488C194.072 155.267 193.154 155.156 192.203 155.156C190.393 155.156 188.909 155.924 187.75 157.461C186.591 158.997 186.012 160.938 186.012 163.281V175H184.078V153.77H185.719L185.914 157.598H186.051C186.923 156.035 187.854 154.941 188.844 154.316C189.833 153.678 191.031 153.359 192.438 153.359ZM201.598 175H199.664V153.77H201.598V175ZM199.391 147.871C199.391 146.621 199.801 145.996 200.621 145.996C201.025 145.996 201.337 146.159 201.559 146.484C201.793 146.81 201.91 147.272 201.91 147.871C201.91 148.457 201.793 148.919 201.559 149.258C201.337 149.596 201.025 149.766 200.621 149.766C199.801 149.766 199.391 149.134 199.391 147.871ZM213.375 175L205.172 153.77H207.164L212.652 168.203C213.382 170.052 213.928 171.667 214.293 173.047H214.41C214.944 171.276 215.491 169.648 216.051 168.164L221.539 153.77H223.531L215.328 175H213.375ZM239.977 175L239.488 171.641H239.332C238.264 173.008 237.164 173.978 236.031 174.551C234.911 175.111 233.583 175.391 232.047 175.391C229.964 175.391 228.342 174.857 227.184 173.789C226.025 172.721 225.445 171.243 225.445 169.355C225.445 167.285 226.305 165.677 228.023 164.531C229.755 163.385 232.255 162.78 235.523 162.715L239.566 162.598V161.191C239.566 159.173 239.156 157.65 238.336 156.621C237.516 155.592 236.194 155.078 234.371 155.078C232.405 155.078 230.367 155.625 228.258 156.719L227.535 155.039C229.866 153.945 232.171 153.398 234.449 153.398C236.78 153.398 238.518 154.004 239.664 155.215C240.823 156.426 241.402 158.314 241.402 160.879V175H239.977ZM232.164 173.633C234.43 173.633 236.214 172.988 237.516 171.699C238.831 170.397 239.488 168.594 239.488 166.289V164.199L235.777 164.355C232.796 164.499 230.667 164.967 229.391 165.762C228.128 166.543 227.496 167.767 227.496 169.434C227.496 170.762 227.9 171.797 228.707 172.539C229.527 173.268 230.68 173.633 232.164 173.633ZM253.902 173.672C255.126 173.672 256.194 173.568 257.105 173.359V174.922C256.168 175.234 255.087 175.391 253.863 175.391C251.988 175.391 250.602 174.889 249.703 173.887C248.818 172.884 248.375 171.309 248.375 169.16V155.449H245.23V154.316L248.375 153.438L249.352 148.633H250.348V153.77H256.578V155.449H250.348V168.887C250.348 170.514 250.634 171.719 251.207 172.5C251.78 173.281 252.678 173.672 253.902 173.672ZM270.27 175.391C267.184 175.391 264.775 174.44 263.043 172.539C261.324 170.638 260.465 167.975 260.465 164.551C260.465 161.165 261.298 158.457 262.965 156.426C264.632 154.382 266.878 153.359 269.703 153.359C272.203 153.359 274.176 154.232 275.621 155.977C277.066 157.721 277.789 160.091 277.789 163.086V164.648H262.496C262.522 167.565 263.199 169.792 264.527 171.328C265.868 172.865 267.783 173.633 270.27 173.633C271.48 173.633 272.542 173.548 273.453 173.379C274.378 173.21 275.543 172.845 276.949 172.285V174.043C275.751 174.564 274.645 174.915 273.629 175.098C272.613 175.293 271.493 175.391 270.27 175.391ZM269.703 155.078C267.659 155.078 266.018 155.755 264.781 157.109C263.544 158.451 262.822 160.391 262.613 162.93H275.738C275.738 160.469 275.204 158.548 274.137 157.168C273.069 155.775 271.591 155.078 269.703 155.078ZM302.516 175.391C299.482 175.391 297.105 174.434 295.387 172.52C293.668 170.605 292.809 167.936 292.809 164.512C292.809 160.996 293.701 158.262 295.484 156.309C297.268 154.342 299.71 153.359 302.809 153.359C304.645 153.359 306.402 153.678 308.082 154.316L307.555 156.035C305.719 155.423 304.124 155.117 302.77 155.117C300.165 155.117 298.193 155.924 296.852 157.539C295.51 159.141 294.84 161.452 294.84 164.473C294.84 167.337 295.51 169.583 296.852 171.211C298.193 172.826 300.068 173.633 302.477 173.633C304.404 173.633 306.194 173.288 307.848 172.598V174.395C306.493 175.059 304.716 175.391 302.516 175.391ZM314.996 175H313.062V144.609H314.996V175ZM324.059 175H322.125V153.77H324.059V175ZM321.852 147.871C321.852 146.621 322.262 145.996 323.082 145.996C323.486 145.996 323.798 146.159 324.02 146.484C324.254 146.81 324.371 147.272 324.371 147.871C324.371 148.457 324.254 148.919 324.02 149.258C323.798 149.596 323.486 149.766 323.082 149.766C322.262 149.766 321.852 149.134 321.852 147.871ZM339.762 175.391C336.676 175.391 334.267 174.44 332.535 172.539C330.816 170.638 329.957 167.975 329.957 164.551C329.957 161.165 330.79 158.457 332.457 156.426C334.124 154.382 336.37 153.359 339.195 153.359C341.695 153.359 343.668 154.232 345.113 155.977C346.559 157.721 347.281 160.091 347.281 163.086V164.648H331.988C332.014 167.565 332.691 169.792 334.02 171.328C335.361 172.865 337.275 173.633 339.762 173.633C340.973 173.633 342.034 173.548 342.945 173.379C343.87 173.21 345.035 172.845 346.441 172.285V174.043C345.243 174.564 344.137 174.915 343.121 175.098C342.105 175.293 340.986 175.391 339.762 175.391ZM339.195 155.078C337.151 155.078 335.51 155.755 334.273 157.109C333.036 158.451 332.314 160.391 332.105 162.93H345.23C345.23 160.469 344.697 158.548 343.629 157.168C342.561 155.775 341.083 155.078 339.195 155.078ZM367.945 175V161.23C367.945 159.095 367.496 157.546 366.598 156.582C365.699 155.605 364.306 155.117 362.418 155.117C359.879 155.117 358.017 155.762 356.832 157.051C355.66 158.327 355.074 160.404 355.074 163.281V175H353.141V153.77H354.781L355.152 156.68H355.27C356.65 154.466 359.104 153.359 362.633 153.359C367.451 153.359 369.859 155.944 369.859 161.113V175H367.945ZM382.34 173.672C383.564 173.672 384.632 173.568 385.543 173.359V174.922C384.605 175.234 383.525 175.391 382.301 175.391C380.426 175.391 379.039 174.889 378.141 173.887C377.255 172.884 376.812 171.309 376.812 169.16V155.449H373.668V154.316L376.812 153.438L377.789 148.633H378.785V153.77H385.016V155.449H378.785V168.887C378.785 170.514 379.072 171.719 379.645 172.5C380.217 173.281 381.116 173.672 382.34 173.672ZM403.297 169.473C403.297 171.374 402.574 172.839 401.129 173.867C399.684 174.883 397.633 175.391 394.977 175.391C392.138 175.391 389.885 174.954 388.219 174.082V171.992C390.354 173.06 392.607 173.594 394.977 173.594C397.073 173.594 398.661 173.249 399.742 172.559C400.836 171.855 401.383 170.924 401.383 169.766C401.383 168.698 400.947 167.799 400.074 167.07C399.215 166.341 397.796 165.625 395.816 164.922C393.694 164.154 392.203 163.496 391.344 162.949C390.484 162.389 389.833 161.764 389.391 161.074C388.961 160.371 388.746 159.518 388.746 158.516C388.746 156.927 389.41 155.671 390.738 154.746C392.079 153.822 393.948 153.359 396.344 153.359C398.635 153.359 400.81 153.789 402.867 154.648L402.145 156.406C400.061 155.547 398.128 155.117 396.344 155.117C394.612 155.117 393.238 155.404 392.223 155.977C391.207 156.549 390.699 157.344 390.699 158.359C390.699 159.466 391.09 160.352 391.871 161.016C392.665 161.68 394.208 162.422 396.5 163.242C398.414 163.932 399.807 164.557 400.68 165.117C401.552 165.664 402.203 166.289 402.633 166.992C403.076 167.695 403.297 168.522 403.297 169.473Z" fill="white"/>
</svg>
