<svg width="211" height="32" viewBox="0 0 211 32" fill="none" xmlns="http://www.w3.org/2000/svg">
<path d="M26.7969 31H25.1562L18.8867 8.96875C18.3659 7.15885 17.9753 5.67448 17.7148 4.51562C17.5065 5.64844 17.207 6.95052 16.8164 8.42188C16.4388 9.89323 14.3424 17.4193 10.5273 31H8.84766L0.996094 2.44531H3.08594L8.08594 20.8438C8.28125 21.5859 8.46354 22.276 8.63281 22.9141C8.80208 23.5391 8.95182 24.1315 9.08203 24.6914C9.22526 25.2383 9.34896 25.7721 9.45312 26.293C9.57031 26.8008 9.67448 27.3151 9.76562 27.8359C10.0781 26.0651 10.7422 23.3763 11.7578 19.7695L16.6406 2.44531H18.8477L24.5703 22.3281C25.2344 24.6198 25.7096 26.4688 25.9961 27.875C26.1654 26.9375 26.3802 25.9414 26.6406 24.8867C26.9141 23.832 28.9258 16.3516 32.6758 2.44531H34.6875L26.7969 31ZM54.0625 31V17.2305C54.0625 15.0951 53.6133 13.5456 52.7148 12.582C51.8164 11.6055 50.4232 11.1172 48.5352 11.1172C45.9961 11.1172 44.1341 11.7617 42.9492 13.0508C41.7773 14.3268 41.1914 16.4036 41.1914 19.2812V31H39.2578V0.609375H41.1914V10.2773L41.0938 12.9922H41.2305C42.0247 11.7161 43.0273 10.7917 44.2383 10.2188C45.4492 9.64583 46.9531 9.35938 48.75 9.35938C53.5677 9.35938 55.9766 11.944 55.9766 17.1133V31H54.0625ZM80.4102 20.3555C80.4102 23.819 79.5703 26.5273 77.8906 28.4805C76.2109 30.4206 73.8932 31.3906 70.9375 31.3906C69.0755 31.3906 67.4349 30.9414 66.0156 30.043C64.5964 29.1445 63.5091 27.8555 62.7539 26.1758C61.9987 24.4961 61.6211 22.556 61.6211 20.3555C61.6211 16.8919 62.4609 14.1966 64.1406 12.2695C65.8203 10.3294 68.125 9.35938 71.0547 9.35938C73.9714 9.35938 76.2565 10.3424 77.9102 12.3086C79.5768 14.2617 80.4102 16.944 80.4102 20.3555ZM63.6523 20.3555C63.6523 23.2721 64.2904 25.5508 65.5664 27.1914C66.8555 28.819 68.6719 29.6328 71.0156 29.6328C73.3594 29.6328 75.1693 28.819 76.4453 27.1914C77.7344 25.5508 78.3789 23.2721 78.3789 20.3555C78.3789 17.4258 77.7279 15.1536 76.4258 13.5391C75.1367 11.9245 73.3203 11.1172 70.9766 11.1172C68.6328 11.1172 66.8229 11.9245 65.5469 13.5391C64.2839 15.1406 63.6523 17.4128 63.6523 20.3555ZM113.652 31L109.004 16.8008C108.704 15.8372 108.32 14.4245 107.852 12.5625H107.734L107.324 14.0078L106.445 16.8398L101.719 31H99.8047L93.7305 9.76953H95.8008L99.1992 22.0742C99.9935 25.1211 100.514 27.3607 100.762 28.793H100.879C101.647 25.7461 102.207 23.7214 102.559 22.7188L106.934 9.76953H108.691L112.852 22.6797C113.789 25.7396 114.362 27.7643 114.57 28.7539H114.688C114.792 27.9076 115.312 25.6419 116.25 21.957L119.492 9.76953H121.445L115.684 31H113.652ZM134.199 31.3906C131.113 31.3906 128.704 30.4401 126.973 28.5391C125.254 26.638 124.395 23.9753 124.395 20.5508C124.395 17.1654 125.228 14.457 126.895 12.4258C128.561 10.3815 130.807 9.35938 133.633 9.35938C136.133 9.35938 138.105 10.2318 139.551 11.9766C140.996 13.7214 141.719 16.0911 141.719 19.0859V20.6484H126.426C126.452 23.5651 127.129 25.7917 128.457 27.3281C129.798 28.8646 131.712 29.6328 134.199 29.6328C135.41 29.6328 136.471 29.5482 137.383 29.3789C138.307 29.2096 139.473 28.8451 140.879 28.2852V30.043C139.681 30.5638 138.574 30.9154 137.559 31.0977C136.543 31.293 135.423 31.3906 134.199 31.3906ZM133.633 11.0781C131.589 11.0781 129.948 11.7552 128.711 13.1094C127.474 14.4505 126.751 16.3906 126.543 18.9297H139.668C139.668 16.4688 139.134 14.5482 138.066 13.168C136.999 11.7747 135.521 11.0781 133.633 11.0781ZM170.859 31L170.371 27.6406H170.215C169.147 29.0078 168.047 29.9779 166.914 30.5508C165.794 31.1107 164.466 31.3906 162.93 31.3906C160.846 31.3906 159.225 30.8568 158.066 29.7891C156.908 28.7214 156.328 27.2435 156.328 25.3555C156.328 23.2852 157.188 21.6771 158.906 20.5312C160.638 19.3854 163.138 18.7799 166.406 18.7148L170.449 18.5977V17.1914C170.449 15.1732 170.039 13.6497 169.219 12.6211C168.398 11.5924 167.077 11.0781 165.254 11.0781C163.288 11.0781 161.25 11.625 159.141 12.7188L158.418 11.0391C160.749 9.94531 163.053 9.39844 165.332 9.39844C167.663 9.39844 169.401 10.0039 170.547 11.2148C171.706 12.4258 172.285 14.3138 172.285 16.8789V31H170.859ZM163.047 29.6328C165.312 29.6328 167.096 28.9883 168.398 27.6992C169.714 26.3971 170.371 24.5938 170.371 22.2891V20.1992L166.66 20.3555C163.678 20.4987 161.549 20.9674 160.273 21.7617C159.01 22.543 158.379 23.7669 158.379 25.4336C158.379 26.7617 158.783 27.7969 159.59 28.5391C160.41 29.2682 161.562 29.6328 163.047 29.6328ZM187.539 9.35938C188.438 9.35938 189.401 9.45052 190.43 9.63281L190.059 11.4883C189.173 11.2669 188.255 11.1562 187.305 11.1562C185.495 11.1562 184.01 11.9245 182.852 13.4609C181.693 14.9974 181.113 16.9375 181.113 19.2812V31H179.18V9.76953H180.82L181.016 13.5977H181.152C182.025 12.0352 182.956 10.9414 183.945 10.3164C184.935 9.67839 186.133 9.35938 187.539 9.35938ZM203.34 31.3906C200.254 31.3906 197.845 30.4401 196.113 28.5391C194.395 26.638 193.535 23.9753 193.535 20.5508C193.535 17.1654 194.368 14.457 196.035 12.4258C197.702 10.3815 199.948 9.35938 202.773 9.35938C205.273 9.35938 207.246 10.2318 208.691 11.9766C210.137 13.7214 210.859 16.0911 210.859 19.0859V20.6484H195.566C195.592 23.5651 196.27 25.7917 197.598 27.3281C198.939 28.8646 200.853 29.6328 203.34 29.6328C204.551 29.6328 205.612 29.5482 206.523 29.3789C207.448 29.2096 208.613 28.8451 210.02 28.2852V30.043C208.822 30.5638 207.715 30.9154 206.699 31.0977C205.684 31.293 204.564 31.3906 203.34 31.3906ZM202.773 11.0781C200.729 11.0781 199.089 11.7552 197.852 13.1094C196.615 14.4505 195.892 16.3906 195.684 18.9297H208.809C208.809 16.4688 208.275 14.5482 207.207 13.168C206.139 11.7747 204.661 11.0781 202.773 11.0781Z" fill="#474747"/>
</svg>
