<svg width="224" height="15" viewBox="0 0 224 15" fill="none" xmlns="http://www.w3.org/2000/svg">
<path d="M6.13184 3.53516C5.4847 3.53516 4.97656 3.75163 4.60742 4.18457C4.24284 4.61296 4.06055 5.21452 4.06055 5.98926C4.06055 6.83691 4.22917 7.46354 4.56641 7.86914C4.9082 8.27474 5.41178 8.47754 6.07715 8.47754C6.45996 8.47754 6.91113 8.37956 7.43066 8.18359V8.78516C6.96582 8.99023 6.49186 9.09277 6.00879 9.09277C5.15658 9.09277 4.49805 8.83073 4.0332 8.30664C3.57292 7.78255 3.34277 7.02832 3.34277 6.04395C3.34277 5.09603 3.5957 4.33952 4.10156 3.77441C4.60742 3.20475 5.28418 2.91992 6.13184 2.91992C6.67415 2.91992 7.19141 3.03841 7.68359 3.27539L7.43066 3.84277C6.98405 3.6377 6.55111 3.53516 6.13184 3.53516ZM0.683594 6.00293C0.683594 5.09147 0.911458 4.23698 1.36719 3.43945C1.82292 2.64193 2.44954 2.01302 3.24707 1.55273C4.0446 1.09245 4.90365 0.862305 5.82422 0.862305C6.73568 0.862305 7.59017 1.09017 8.3877 1.5459C9.18522 2.00163 9.81413 2.62826 10.2744 3.42578C10.7347 4.22331 10.9648 5.08236 10.9648 6.00293C10.9648 6.90072 10.7438 7.74382 10.3018 8.53223C9.8597 9.32064 9.23991 9.95182 8.44238 10.4258C7.64486 10.8997 6.77214 11.1367 5.82422 11.1367C4.88086 11.1367 4.01042 10.902 3.21289 10.4326C2.41536 9.95866 1.79329 9.32747 1.34668 8.53906C0.904622 7.75065 0.683594 6.90527 0.683594 6.00293ZM1.31934 6.00293C1.31934 6.81413 1.51986 7.56608 1.9209 8.25879C2.3265 8.94694 2.87565 9.49382 3.56836 9.89941C4.26107 10.305 5.01302 10.5078 5.82422 10.5078C6.63542 10.5078 7.38509 10.3073 8.07324 9.90625C8.76595 9.50065 9.3151 8.9515 9.7207 8.25879C10.1263 7.56608 10.3291 6.81413 10.3291 6.00293C10.3291 5.20996 10.1331 4.4694 9.74121 3.78125C9.35384 3.0931 8.80924 2.53939 8.10742 2.12012C7.41016 1.70085 6.64909 1.49121 5.82422 1.49121C5.02214 1.49121 4.27246 1.69401 3.5752 2.09961C2.88249 2.50065 2.33333 3.05208 1.92773 3.75391C1.52214 4.45573 1.31934 5.2054 1.31934 6.00293ZM22.3125 11H16.0576V10.3984L18.7168 7.62305C19.4642 6.84831 19.9883 6.25586 20.2891 5.8457C20.5898 5.43555 20.8109 5.04362 20.9521 4.66992C21.0934 4.29622 21.1641 3.9043 21.1641 3.49414C21.1641 2.89714 20.9681 2.41178 20.5762 2.03809C20.1842 1.66439 19.6761 1.47754 19.0518 1.47754C18.2178 1.47754 17.4202 1.7806 16.6592 2.38672L16.29 1.91504C17.124 1.21322 18.0492 0.862305 19.0654 0.862305C19.9359 0.862305 20.6195 1.09473 21.1162 1.55957C21.6175 2.02441 21.8682 2.66471 21.8682 3.48047C21.8682 4.14128 21.6995 4.78158 21.3623 5.40137C21.0296 6.0166 20.4189 6.77767 19.5303 7.68457L16.9668 10.3164V10.3438H22.3125V11ZM30.4951 5.97559C30.4951 7.73014 30.2262 9.02897 29.6885 9.87207C29.1553 10.7152 28.3464 11.1367 27.2617 11.1367C26.2181 11.1367 25.4251 10.7038 24.8828 9.83789C24.3405 8.96745 24.0693 7.68001 24.0693 5.97559C24.0693 4.2347 24.3314 2.94499 24.8555 2.10645C25.3841 1.2679 26.1862 0.848633 27.2617 0.848633C28.3145 0.848633 29.1165 1.28385 29.668 2.1543C30.2194 3.02018 30.4951 4.29395 30.4951 5.97559ZM24.8076 5.97559C24.8076 7.52507 25.0104 8.67122 25.416 9.41406C25.8216 10.1523 26.4368 10.5215 27.2617 10.5215C28.123 10.5215 28.7497 10.1387 29.1416 9.37305C29.5381 8.60742 29.7363 7.47493 29.7363 5.97559C29.7363 4.49902 29.5381 3.37793 29.1416 2.6123C28.7497 1.84668 28.123 1.46387 27.2617 1.46387C26.4004 1.46387 25.776 1.84668 25.3887 2.6123C25.0013 3.37793 24.8076 4.49902 24.8076 5.97559ZM35.9434 11H35.2734V3.71973C35.2734 3.05892 35.3008 2.37305 35.3555 1.66211C35.2871 1.73047 35.2165 1.79655 35.1436 1.86035C35.0706 1.92415 34.3665 2.47786 33.0312 3.52148L32.6416 3.03613L35.3555 1.00586H35.9434V11ZM46.3613 5.24414C46.3613 6.55664 46.1882 7.65495 45.8418 8.53906C45.5 9.42318 44.9987 10.0771 44.3379 10.501C43.6816 10.9248 42.8864 11.1367 41.9521 11.1367C41.4782 11.1367 41.0407 11.0775 40.6396 10.959V10.3711C40.8356 10.4349 41.0703 10.485 41.3438 10.5215C41.6217 10.5534 41.8337 10.5693 41.9795 10.5693C43.1051 10.5693 43.987 10.1637 44.625 9.35254C45.263 8.53678 45.6185 7.34961 45.6914 5.79102H45.6094C45.2767 6.22852 44.8802 6.56576 44.4199 6.80273C43.9596 7.03516 43.4788 7.15137 42.9775 7.15137C42.0524 7.15137 41.3301 6.89616 40.8105 6.38574C40.2956 5.87533 40.0381 5.15072 40.0381 4.21191C40.0381 3.20931 40.3206 2.39811 40.8857 1.77832C41.4554 1.15853 42.1937 0.848633 43.1006 0.848633C43.7568 0.848633 44.3311 1.02181 44.8232 1.36816C45.3154 1.70996 45.6937 2.21354 45.958 2.87891C46.2269 3.54427 46.3613 4.33268 46.3613 5.24414ZM43.1006 1.4502C42.3805 1.4502 41.8063 1.69401 41.3779 2.18164C40.9495 2.66471 40.7354 3.3278 40.7354 4.1709C40.7354 4.96387 40.9336 5.56543 41.3301 5.97559C41.7266 6.38574 42.2939 6.59082 43.0322 6.59082C43.4925 6.59082 43.9209 6.48828 44.3174 6.2832C44.7184 6.07812 45.0352 5.80697 45.2676 5.46973C45.5046 5.12793 45.623 4.78158 45.623 4.43066C45.623 3.89746 45.516 3.39844 45.3018 2.93359C45.0921 2.46875 44.7959 2.10645 44.4131 1.84668C44.0348 1.58236 43.5973 1.4502 43.1006 1.4502ZM52.3291 1.00586H55.0703C56.3053 1.00586 57.2122 1.21549 57.791 1.63477C58.3698 2.05404 58.6592 2.6875 58.6592 3.53516C58.6592 4.11393 58.4814 4.59701 58.126 4.98438C57.7751 5.36719 57.2601 5.61328 56.5811 5.72266V5.76367C57.3786 5.88216 57.9642 6.13509 58.3379 6.52246C58.7161 6.90527 58.9053 7.44076 58.9053 8.12891C58.9053 9.04948 58.5999 9.75814 57.9893 10.2549C57.3786 10.7516 56.5127 11 55.3916 11H52.3291V1.00586ZM53.0264 5.45605H55.2275C56.1663 5.45605 56.8477 5.30111 57.2715 4.99121C57.6999 4.67676 57.9141 4.18685 57.9141 3.52148C57.9141 2.85612 57.6725 2.37305 57.1895 2.07227C56.7109 1.77148 55.9954 1.62109 55.043 1.62109H53.0264V5.45605ZM53.0264 6.07129V10.3848H55.3779C57.2282 10.3848 58.1533 9.63281 58.1533 8.12891C58.1533 6.75716 57.1781 6.07129 55.2275 6.07129H53.0264ZM65.4473 11L65.2764 9.82422H65.2217C64.848 10.3027 64.4629 10.6423 64.0664 10.8428C63.6745 11.0387 63.2096 11.1367 62.6719 11.1367C61.9427 11.1367 61.3753 10.9499 60.9697 10.5762C60.5641 10.2025 60.3613 9.68522 60.3613 9.02441C60.3613 8.2998 60.6621 7.73698 61.2637 7.33594C61.8698 6.9349 62.7448 6.72298 63.8887 6.7002L65.3037 6.65918V6.16699C65.3037 5.46061 65.1602 4.92741 64.873 4.56738C64.5859 4.20736 64.1234 4.02734 63.4854 4.02734C62.7972 4.02734 62.084 4.21875 61.3457 4.60156L61.0928 4.01367C61.9085 3.63086 62.7152 3.43945 63.5127 3.43945C64.3285 3.43945 64.9368 3.65137 65.3379 4.0752C65.7435 4.49902 65.9463 5.15983 65.9463 6.05762V11H65.4473ZM62.7129 10.5215C63.5059 10.5215 64.1302 10.2959 64.5859 9.84473C65.0462 9.389 65.2764 8.75781 65.2764 7.95117V7.21973L63.9775 7.27441C62.9339 7.32454 62.1888 7.48861 61.7422 7.7666C61.3001 8.04004 61.0791 8.46842 61.0791 9.05176C61.0791 9.5166 61.2204 9.87891 61.5029 10.1387C61.79 10.3939 62.1934 10.5215 62.7129 10.5215ZM71.3262 11.1367C70.2643 11.1367 69.4326 10.8018 68.8311 10.1318C68.2295 9.46191 67.9287 8.52767 67.9287 7.3291C67.9287 6.09863 68.2409 5.1416 68.8652 4.45801C69.4896 3.76986 70.3441 3.42578 71.4287 3.42578C72.0713 3.42578 72.6865 3.53743 73.2744 3.76074L73.0898 4.3623C72.4473 4.14811 71.889 4.04102 71.415 4.04102C70.5036 4.04102 69.8132 4.32357 69.3438 4.88867C68.8743 5.44922 68.6396 6.25814 68.6396 7.31543C68.6396 8.31803 68.8743 9.10417 69.3438 9.67383C69.8132 10.2389 70.4694 10.5215 71.3125 10.5215C71.987 10.5215 72.6136 10.4007 73.1924 10.1592V10.7881C72.7184 11.0205 72.0964 11.1367 71.3262 11.1367ZM75.6807 7.73926L79.4746 3.56934H80.2949L77.3691 6.74121L80.5479 11H79.7344L76.9111 7.24707L75.6943 8.35449V11H75.0176V0.363281H75.6943V5.69531L75.6465 7.73926H75.6807ZM86.9805 11V6.18066C86.9805 5.43327 86.8232 4.89095 86.5088 4.55371C86.1943 4.21191 85.7067 4.04102 85.0459 4.04102C84.1572 4.04102 83.5055 4.2666 83.0908 4.71777C82.6807 5.16439 82.4756 5.89128 82.4756 6.89844V11H81.7988V0.363281H82.4756V3.74707L82.4414 4.69727H82.4893C82.7673 4.25065 83.1182 3.92708 83.542 3.72656C83.9658 3.52604 84.4922 3.42578 85.1211 3.42578C86.8073 3.42578 87.6504 4.3304 87.6504 6.13965V11H86.9805ZM96.2021 7.27441C96.2021 8.48665 95.9082 9.43457 95.3203 10.1182C94.7324 10.7972 93.9212 11.1367 92.8867 11.1367C92.235 11.1367 91.6608 10.9795 91.1641 10.665C90.6673 10.3506 90.2868 9.89941 90.0225 9.31152C89.7581 8.72363 89.626 8.0446 89.626 7.27441C89.626 6.06217 89.9199 5.11882 90.5078 4.44434C91.0957 3.7653 91.9023 3.42578 92.9277 3.42578C93.9486 3.42578 94.7484 3.76986 95.3271 4.45801C95.9105 5.1416 96.2021 6.0804 96.2021 7.27441ZM90.3369 7.27441C90.3369 8.29525 90.5602 9.09277 91.0068 9.66699C91.458 10.2367 92.0938 10.5215 92.9141 10.5215C93.7344 10.5215 94.3678 10.2367 94.8145 9.66699C95.2656 9.09277 95.4912 8.29525 95.4912 7.27441C95.4912 6.24902 95.2633 5.45378 94.8076 4.88867C94.3564 4.32357 93.7207 4.04102 92.9004 4.04102C92.0801 4.04102 91.4466 4.32357 91 4.88867C90.5579 5.44922 90.3369 6.24447 90.3369 7.27441ZM101.261 11.1367C100.181 11.1367 99.3376 10.804 98.7314 10.1387C98.1299 9.47331 97.8291 8.54134 97.8291 7.34277C97.8291 6.15788 98.1208 5.20996 98.7041 4.49902C99.2874 3.78353 100.074 3.42578 101.062 3.42578C101.938 3.42578 102.628 3.73112 103.134 4.3418C103.64 4.95247 103.893 5.7819 103.893 6.83008V7.37695H98.54C98.5492 8.39779 98.7861 9.17708 99.251 9.71484C99.7204 10.2526 100.39 10.5215 101.261 10.5215C101.685 10.5215 102.056 10.4919 102.375 10.4326C102.699 10.3734 103.106 10.2458 103.599 10.0498V10.665C103.179 10.8473 102.792 10.9704 102.437 11.0342C102.081 11.1025 101.689 11.1367 101.261 11.1367ZM101.062 4.02734C100.347 4.02734 99.7728 4.26432 99.3398 4.73828C98.9069 5.20768 98.654 5.88672 98.5811 6.77539H103.175C103.175 5.91406 102.988 5.24186 102.614 4.75879C102.241 4.27116 101.723 4.02734 101.062 4.02734ZM114.563 7.47266H110.503L109.108 11H108.336L112.355 0.964844H112.8L116.737 11H115.951L114.563 7.47266ZM110.756 6.84375H114.331L112.971 3.24121C112.857 2.95866 112.72 2.56673 112.561 2.06543C112.438 2.50293 112.303 2.89941 112.157 3.25488L110.756 6.84375ZM118.665 11H117.988V0.363281H118.665V11ZM121.837 11H121.16V0.363281H121.837V11ZM130.895 3.42578C131.209 3.42578 131.546 3.45768 131.906 3.52148L131.776 4.1709C131.466 4.09342 131.145 4.05469 130.812 4.05469C130.179 4.05469 129.66 4.32357 129.254 4.86133C128.848 5.39909 128.646 6.07812 128.646 6.89844V11H127.969V3.56934H128.543L128.611 4.90918H128.659C128.965 4.3623 129.29 3.97949 129.637 3.76074C129.983 3.53743 130.402 3.42578 130.895 3.42578ZM134.101 11H133.424V3.56934H134.101V11ZM133.328 1.50488C133.328 1.06738 133.472 0.848633 133.759 0.848633C133.9 0.848633 134.009 0.905599 134.087 1.01953C134.169 1.13346 134.21 1.29525 134.21 1.50488C134.21 1.70996 134.169 1.87174 134.087 1.99023C134.009 2.10872 133.9 2.16797 133.759 2.16797C133.472 2.16797 133.328 1.94694 133.328 1.50488ZM142.393 3.56934V4.04102L140.854 4.13672C141.265 4.64714 141.47 5.20768 141.47 5.81836C141.47 6.53385 141.23 7.11491 140.752 7.56152C140.278 8.00358 139.64 8.22461 138.838 8.22461C138.501 8.22461 138.264 8.21094 138.127 8.18359C137.858 8.32487 137.653 8.49121 137.512 8.68262C137.37 8.87402 137.3 9.07682 137.3 9.29102C137.3 9.52799 137.389 9.70117 137.566 9.81055C137.749 9.91992 138.052 9.97461 138.476 9.97461H139.774C140.581 9.97461 141.199 10.1387 141.627 10.4668C142.055 10.7904 142.27 11.2712 142.27 11.9092C142.27 12.693 141.951 13.2969 141.312 13.7207C140.679 14.1491 139.774 14.3633 138.599 14.3633C137.664 14.3633 136.94 14.1833 136.425 13.8232C135.914 13.4632 135.659 12.9619 135.659 12.3193C135.659 11.8089 135.816 11.3851 136.131 11.0479C136.45 10.7106 136.881 10.4805 137.423 10.3574C137.2 10.2617 137.02 10.1273 136.883 9.9541C136.751 9.77637 136.685 9.57357 136.685 9.3457C136.685 8.84896 137.001 8.41146 137.635 8.0332C137.202 7.85547 136.865 7.57747 136.623 7.19922C136.382 6.81641 136.261 6.37891 136.261 5.88672C136.261 5.14388 136.495 4.54915 136.965 4.10254C137.439 3.65137 138.077 3.42578 138.879 3.42578C139.367 3.42578 139.745 3.47363 140.014 3.56934H142.393ZM136.377 12.2578C136.377 13.2786 137.136 13.7891 138.653 13.7891C140.604 13.7891 141.579 13.167 141.579 11.9229C141.579 11.4762 141.426 11.1527 141.121 10.9521C140.816 10.7516 140.321 10.6514 139.638 10.6514H138.421C137.058 10.6514 136.377 11.1868 136.377 12.2578ZM136.944 5.88672C136.944 6.46094 137.118 6.90755 137.464 7.22656C137.815 7.54102 138.282 7.69824 138.865 7.69824C139.485 7.69824 139.959 7.54102 140.287 7.22656C140.62 6.91211 140.786 6.45638 140.786 5.85938C140.786 5.22591 140.615 4.75195 140.273 4.4375C139.936 4.11849 139.462 3.95898 138.852 3.95898C138.259 3.95898 137.792 4.12988 137.45 4.47168C137.113 4.80892 136.944 5.2806 136.944 5.88672ZM149.105 11V6.18066C149.105 5.43327 148.948 4.89095 148.634 4.55371C148.319 4.21191 147.832 4.04102 147.171 4.04102C146.282 4.04102 145.631 4.2666 145.216 4.71777C144.806 5.16439 144.601 5.89128 144.601 6.89844V11H143.924V0.363281H144.601V3.74707L144.566 4.69727H144.614C144.892 4.25065 145.243 3.92708 145.667 3.72656C146.091 3.52604 146.617 3.42578 147.246 3.42578C148.932 3.42578 149.775 4.3304 149.775 6.13965V11H149.105ZM154.144 10.5352C154.572 10.5352 154.946 10.4987 155.265 10.4258V10.9727C154.937 11.082 154.558 11.1367 154.13 11.1367C153.474 11.1367 152.988 10.9613 152.674 10.6104C152.364 10.2594 152.209 9.70801 152.209 8.95605V4.15723H151.108V3.76074L152.209 3.45312L152.551 1.77148H152.899V3.56934H155.08V4.15723H152.899V8.86035C152.899 9.43001 153 9.85156 153.2 10.125C153.401 10.3984 153.715 10.5352 154.144 10.5352ZM161.479 9.06543C161.479 9.73079 161.226 10.2435 160.72 10.6035C160.214 10.959 159.496 11.1367 158.566 11.1367C157.573 11.1367 156.785 10.984 156.201 10.6787V9.94727C156.949 10.321 157.737 10.5078 158.566 10.5078C159.3 10.5078 159.856 10.387 160.234 10.1455C160.617 9.89941 160.809 9.57357 160.809 9.16797C160.809 8.79427 160.656 8.47982 160.351 8.22461C160.05 7.9694 159.553 7.71875 158.86 7.47266C158.118 7.20378 157.596 6.97363 157.295 6.78223C156.994 6.58626 156.766 6.36751 156.611 6.12598C156.461 5.87988 156.386 5.58138 156.386 5.23047C156.386 4.67448 156.618 4.2347 157.083 3.91113C157.552 3.58757 158.206 3.42578 159.045 3.42578C159.847 3.42578 160.608 3.57617 161.328 3.87695L161.075 4.49219C160.346 4.19141 159.669 4.04102 159.045 4.04102C158.439 4.04102 157.958 4.14128 157.603 4.3418C157.247 4.54232 157.069 4.82031 157.069 5.17578C157.069 5.56315 157.206 5.87305 157.479 6.10547C157.757 6.33789 158.298 6.59766 159.1 6.88477C159.77 7.1263 160.257 7.34505 160.562 7.54102C160.868 7.73242 161.096 7.95117 161.246 8.19727C161.401 8.44336 161.479 8.73275 161.479 9.06543ZM169.955 3.42578C170.27 3.42578 170.607 3.45768 170.967 3.52148L170.837 4.1709C170.527 4.09342 170.206 4.05469 169.873 4.05469C169.24 4.05469 168.72 4.32357 168.314 4.86133C167.909 5.39909 167.706 6.07812 167.706 6.89844V11H167.029V3.56934H167.604L167.672 4.90918H167.72C168.025 4.3623 168.351 3.97949 168.697 3.76074C169.044 3.53743 169.463 3.42578 169.955 3.42578ZM175.485 11.1367C174.405 11.1367 173.562 10.804 172.956 10.1387C172.354 9.47331 172.054 8.54134 172.054 7.34277C172.054 6.15788 172.345 5.20996 172.929 4.49902C173.512 3.78353 174.298 3.42578 175.287 3.42578C176.162 3.42578 176.853 3.73112 177.358 4.3418C177.864 4.95247 178.117 5.7819 178.117 6.83008V7.37695H172.765C172.774 8.39779 173.011 9.17708 173.476 9.71484C173.945 10.2526 174.615 10.5215 175.485 10.5215C175.909 10.5215 176.281 10.4919 176.6 10.4326C176.923 10.3734 177.331 10.2458 177.823 10.0498V10.665C177.404 10.8473 177.017 10.9704 176.661 11.0342C176.306 11.1025 175.914 11.1367 175.485 11.1367ZM175.287 4.02734C174.572 4.02734 173.997 4.26432 173.564 4.73828C173.132 5.20768 172.879 5.88672 172.806 6.77539H177.399C177.399 5.91406 177.213 5.24186 176.839 4.75879C176.465 4.27116 175.948 4.02734 175.287 4.02734ZM184.775 9.06543C184.775 9.73079 184.522 10.2435 184.017 10.6035C183.511 10.959 182.793 11.1367 181.863 11.1367C180.87 11.1367 180.081 10.984 179.498 10.6787V9.94727C180.245 10.321 181.034 10.5078 181.863 10.5078C182.597 10.5078 183.153 10.387 183.531 10.1455C183.914 9.89941 184.105 9.57357 184.105 9.16797C184.105 8.79427 183.953 8.47982 183.647 8.22461C183.347 7.9694 182.85 7.71875 182.157 7.47266C181.414 7.20378 180.893 6.97363 180.592 6.78223C180.291 6.58626 180.063 6.36751 179.908 6.12598C179.758 5.87988 179.683 5.58138 179.683 5.23047C179.683 4.67448 179.915 4.2347 180.38 3.91113C180.849 3.58757 181.503 3.42578 182.342 3.42578C183.144 3.42578 183.905 3.57617 184.625 3.87695L184.372 4.49219C183.643 4.19141 182.966 4.04102 182.342 4.04102C181.736 4.04102 181.255 4.14128 180.899 4.3418C180.544 4.54232 180.366 4.82031 180.366 5.17578C180.366 5.56315 180.503 5.87305 180.776 6.10547C181.054 6.33789 181.594 6.59766 182.396 6.88477C183.066 7.1263 183.554 7.34505 183.859 7.54102C184.165 7.73242 184.393 7.95117 184.543 8.19727C184.698 8.44336 184.775 8.73275 184.775 9.06543ZM189.69 11.1367C188.61 11.1367 187.767 10.804 187.161 10.1387C186.56 9.47331 186.259 8.54134 186.259 7.34277C186.259 6.15788 186.55 5.20996 187.134 4.49902C187.717 3.78353 188.503 3.42578 189.492 3.42578C190.367 3.42578 191.058 3.73112 191.563 4.3418C192.069 4.95247 192.322 5.7819 192.322 6.83008V7.37695H186.97C186.979 8.39779 187.216 9.17708 187.681 9.71484C188.15 10.2526 188.82 10.5215 189.69 10.5215C190.114 10.5215 190.486 10.4919 190.805 10.4326C191.128 10.3734 191.536 10.2458 192.028 10.0498V10.665C191.609 10.8473 191.222 10.9704 190.866 11.0342C190.511 11.1025 190.119 11.1367 189.69 11.1367ZM189.492 4.02734C188.777 4.02734 188.202 4.26432 187.77 4.73828C187.337 5.20768 187.084 5.88672 187.011 6.77539H191.604C191.604 5.91406 191.418 5.24186 191.044 4.75879C190.67 4.27116 190.153 4.02734 189.492 4.02734ZM197.299 3.42578C197.613 3.42578 197.951 3.45768 198.311 3.52148L198.181 4.1709C197.871 4.09342 197.549 4.05469 197.217 4.05469C196.583 4.05469 196.064 4.32357 195.658 4.86133C195.253 5.39909 195.05 6.07812 195.05 6.89844V11H194.373V3.56934H194.947L195.016 4.90918H195.063C195.369 4.3623 195.695 3.97949 196.041 3.76074C196.387 3.53743 196.807 3.42578 197.299 3.42578ZM201.455 11L198.584 3.56934H199.281L201.202 8.62109C201.457 9.26823 201.649 9.83333 201.776 10.3164H201.817C202.004 9.69661 202.196 9.12695 202.392 8.60742L204.312 3.56934H205.01L202.139 11H201.455ZM209.255 11.1367C208.175 11.1367 207.332 10.804 206.726 10.1387C206.124 9.47331 205.823 8.54134 205.823 7.34277C205.823 6.15788 206.115 5.20996 206.698 4.49902C207.282 3.78353 208.068 3.42578 209.057 3.42578C209.932 3.42578 210.622 3.73112 211.128 4.3418C211.634 4.95247 211.887 5.7819 211.887 6.83008V7.37695H206.534C206.543 8.39779 206.78 9.17708 207.245 9.71484C207.715 10.2526 208.384 10.5215 209.255 10.5215C209.679 10.5215 210.05 10.4919 210.369 10.4326C210.693 10.3734 211.101 10.2458 211.593 10.0498V10.665C211.174 10.8473 210.786 10.9704 210.431 11.0342C210.075 11.1025 209.683 11.1367 209.255 11.1367ZM209.057 4.02734C208.341 4.02734 207.767 4.26432 207.334 4.73828C206.901 5.20768 206.648 5.88672 206.575 6.77539H211.169C211.169 5.91406 210.982 5.24186 210.608 4.75879C210.235 4.27116 209.717 4.02734 209.057 4.02734ZM216.658 3.42578C217.196 3.42578 217.661 3.52376 218.053 3.71973C218.445 3.91569 218.796 4.25065 219.105 4.72461H219.146C219.119 4.15039 219.105 3.58757 219.105 3.03613V0.363281H219.775V11H219.331L219.16 9.86523H219.105C218.54 10.7129 217.729 11.1367 216.672 11.1367C215.646 11.1367 214.863 10.8177 214.32 10.1797C213.778 9.54167 213.507 8.61198 213.507 7.39062C213.507 6.10547 213.776 5.12337 214.313 4.44434C214.851 3.7653 215.633 3.42578 216.658 3.42578ZM216.658 4.04102C215.847 4.04102 215.236 4.32585 214.826 4.89551C214.421 5.46517 214.218 6.29232 214.218 7.37695C214.218 9.48242 215.036 10.5352 216.672 10.5352C217.51 10.5352 218.126 10.2913 218.518 9.80371C218.91 9.31608 219.105 8.51172 219.105 7.39062V7.27441C219.105 6.12598 218.912 5.30111 218.524 4.7998C218.142 4.29395 217.52 4.04102 216.658 4.04102ZM222.141 10.4668C222.141 10.0202 222.323 9.79688 222.688 9.79688C223.061 9.79688 223.248 10.0202 223.248 10.4668C223.248 10.9134 223.061 11.1367 222.688 11.1367C222.323 11.1367 222.141 10.9134 222.141 10.4668Z" fill="#474747"/>
</svg>
